SplineFontDB: 3.2
FontName: CircularRoute
FullName: Circular Route Regular
FamilyName: Circular Route
Weight: Book
Copyright: Copyright Epalvosh 2023
Version: 1.0
ItalicAngle: 0
UnderlinePosition: 153
UnderlineWidth: 102
Ascent: 1638
Descent: 410
InvalidEm: 0
sfntRevision: 0x00010000
LayerCount: 2
Layer: 0 1 "Back" 1
Layer: 1 1 "Fore" 0
XUID: [1021 446 -26352003 11218]
StyleMap: 0x0040
FSType: 4
OS2Version: 2
OS2_WeightWidthSlopeOnly: 0
OS2_UseTypoMetrics: 0
CreationTime: 1704509567
ModificationTime: 1712929102
PfmFamily: 81
TTFWeight: 400
TTFWidth: 5
LineGap: 0
VLineGap: 0
Panose: 0 0 4 0 0 0 0 0 0 0
OS2TypoAscent: 1732
OS2TypoAOffset: 0
OS2TypoDescent: -315
OS2TypoDOffset: 0
OS2TypoLinegap: 0
OS2WinAscent: 1732
OS2WinAOffset: 0
OS2WinDescent: 315
OS2WinDOffset: 0
HheadAscent: 1732
HheadAOffset: 0
HheadDescent: -315
HheadDOffset: 0
OS2SubXSize: 1024
OS2SubYSize: 1024
OS2SubXOff: 0
OS2SubYOff: -157
OS2SupXSize: 1024
OS2SupYSize: 1024
OS2SupXOff: 0
OS2SupYOff: 1024
OS2StrikeYSize: 102
OS2StrikeYPos: 409
OS2CapHeight: 1709
OS2XHeight: 1236
OS2Vendor: 'FSTR'
OS2CodePages: 200101ff.cdff0000
OS2UnicodeRanges: 00000001.00000000.00000000.00000000
DEI: 91125
ShortTable: maxp 16
  1
  0
  141
  1496
  88
  0
  0
  2
  0
  0
  0
  0
  0
  0
  0
  0
EndShort
LangName: 1033 "" "" "Regular" "Circular Route" "" "Version 1.0" "" "FontStruct is a trademark of FontStruct.com" "https://fontstruct.com" "Epalvosh" "+IBwA-Circular Route+IB0A was built with FontStruct+AAoA" "https://fontstruct.com/fontstructions/show/2394532/circular-route" "https://fontstruct.com/fontstructors/show/2304697/epalvosh" "FontStruct Non-Commercial License" "" "" "" "" "" "Five big quacking zephyrs jolt my wax bed"
Encoding: UnicodeBmp
UnicodeInterp: none
NameList: AGL For New Fonts
DisplaySize: -48
AntiAlias: 1
FitToEm: 0
WinInfo: 84 21 8
BeginChars: 65537 142

StartChar: .notdef
Encoding: 65536 -1 0
Width: 1490
GlyphClass: 1
Flags: W
LayerCount: 2
Fore
SplineSet
1263 50 m 1,0,-1
 666 847 l 1,1,-1
 69 50 l 1,2,-1
 1263 50 l 1,0,-1
50 69 m 1,3,-1
 647 866 l 1,4,-1
 50 1663 l 1,5,-1
 50 69 l 1,3,-1
1283 69 m 1,6,-1
 1283 1663 l 1,7,-1
 685 866 l 1,8,-1
 1283 69 l 1,6,-1
666 885 m 1,9,-1
 1263 1682 l 1,10,-1
 69 1682 l 1,11,-1
 666 885 l 1,9,-1
0 0 m 1,12,-1
 0 1732 l 1,13,-1
 1333 1732 l 1,14,-1
 1333 0 l 1,15,-1
 0 0 l 1,12,-1
EndSplineSet
Validated: 1
EndChar

StartChar: exclam
Encoding: 33 33 2
Width: 472
GlyphClass: 1
Flags: W
LayerCount: 2
Fore
SplineSet
66 0 m 0,0,1
 39 0 39 0 19 19 c 0,2,3
 0 39 0 39 0 66 c 0,4,5
 0 94 0 94 19 114 c 0,6,7
 39 133 39 133 66 133 c 0,8,9
 94 133 94 133 114 114 c 0,10,11
 133 94 133 94 133 66 c 0,12,13
 133 39 133 39 114 19 c 0,14,15
 94 0 94 0 66 0 c 0,0,1
224 0 m 256,16,17
 196 0 196 0 177 19 c 0,18,19
 157 39 157 39 157 66 c 0,20,21
 157 94 157 94 177 114 c 0,22,23
 196 133 196 133 224 133 c 256,24,25
 252 133 252 133 271 114 c 0,26,27
 291 94 291 94 291 66 c 0,28,29
 291 39 291 39 271 19 c 0,30,31
 252 0 252 0 224 0 c 256,16,17
66 157 m 0,32,33
 39 157 39 157 19 177 c 0,34,35
 0 196 0 196 0 224 c 256,36,37
 0 252 0 252 19 271 c 0,38,39
 39 291 39 291 66 291 c 0,40,41
 94 291 94 291 114 271 c 0,42,43
 133 252 133 252 133 224 c 256,44,45
 133 196 133 196 114 177 c 0,46,47
 94 157 94 157 66 157 c 0,32,33
224 157 m 256,48,49
 196 157 196 157 177 177 c 0,50,51
 157 196 157 196 157 224 c 256,52,53
 157 252 157 252 177 271 c 0,54,55
 196 291 196 291 224 291 c 256,56,57
 252 291 252 291 271 271 c 0,58,59
 291 252 291 252 291 224 c 256,60,61
 291 196 291 196 271 177 c 0,62,63
 252 157 252 157 224 157 c 256,48,49
66 472 m 0,64,65
 39 472 39 472 19 492 c 0,66,67
 0 511 0 511 0 539 c 256,68,69
 0 567 0 567 19 586 c 0,70,71
 39 606 39 606 66 606 c 0,72,73
 94 606 94 606 114 586 c 0,74,75
 133 567 133 567 133 539 c 256,76,77
 133 511 133 511 114 492 c 0,78,79
 94 472 94 472 66 472 c 0,64,65
224 472 m 256,80,81
 196 472 196 472 177 492 c 0,82,83
 157 511 157 511 157 539 c 256,84,85
 157 567 157 567 177 586 c 0,86,87
 196 606 196 606 224 606 c 256,88,89
 252 606 252 606 271 586 c 0,90,91
 291 567 291 567 291 539 c 256,92,93
 291 511 291 511 271 492 c 0,94,95
 252 472 252 472 224 472 c 256,80,81
66 630 m 0,96,97
 39 630 39 630 19 649 c 0,98,99
 0 669 0 669 0 697 c 0,100,101
 0 724 0 724 19 744 c 0,102,103
 39 764 39 764 66 764 c 0,104,105
 94 764 94 764 114 744 c 0,106,107
 133 724 133 724 133 697 c 0,108,109
 133 669 133 669 114 649 c 0,110,111
 94 630 94 630 66 630 c 0,96,97
224 630 m 256,112,113
 196 630 196 630 177 649 c 0,114,115
 157 669 157 669 157 697 c 0,116,117
 157 724 157 724 177 744 c 0,118,119
 196 764 196 764 224 764 c 256,120,121
 252 764 252 764 271 744 c 0,122,123
 291 724 291 724 291 697 c 0,124,125
 291 669 291 669 271 649 c 0,126,127
 252 630 252 630 224 630 c 256,112,113
66 787 m 0,128,129
 39 787 39 787 19 807 c 0,130,131
 0 826 0 826 0 854 c 256,132,133
 0 882 0 882 19 902 c 0,134,135
 39 921 39 921 66 921 c 0,136,137
 94 921 94 921 114 902 c 0,138,139
 133 882 133 882 133 854 c 256,140,141
 133 826 133 826 114 807 c 0,142,143
 94 787 94 787 66 787 c 0,128,129
224 787 m 256,144,145
 196 787 196 787 177 807 c 0,146,147
 157 826 157 826 157 854 c 256,148,149
 157 882 157 882 177 902 c 0,150,151
 196 921 196 921 224 921 c 256,152,153
 252 921 252 921 271 902 c 0,154,155
 291 882 291 882 291 854 c 256,156,157
 291 826 291 826 271 807 c 0,158,159
 252 787 252 787 224 787 c 256,144,145
66 945 m 0,160,161
 39 945 39 945 19 964 c 0,162,163
 0 984 0 984 0 1012 c 0,164,165
 0 1039 0 1039 19 1059 c 0,166,167
 39 1079 39 1079 66 1079 c 0,168,169
 94 1079 94 1079 114 1059 c 0,170,171
 133 1039 133 1039 133 1012 c 0,172,173
 133 984 133 984 114 964 c 0,174,175
 94 945 94 945 66 945 c 0,160,161
224 945 m 256,176,177
 196 945 196 945 177 964 c 0,178,179
 157 984 157 984 157 1012 c 0,180,181
 157 1039 157 1039 177 1059 c 0,182,183
 196 1079 196 1079 224 1079 c 256,184,185
 252 1079 252 1079 271 1059 c 0,186,187
 291 1039 291 1039 291 1012 c 0,188,189
 291 984 291 984 271 964 c 0,190,191
 252 945 252 945 224 945 c 256,176,177
66 1102 m 0,192,193
 39 1102 39 1102 19 1122 c 0,194,195
 0 1142 0 1142 0 1169 c 0,196,197
 0 1197 0 1197 19 1217 c 0,198,199
 39 1236 39 1236 66 1236 c 0,200,201
 94 1236 94 1236 114 1217 c 0,202,203
 133 1197 133 1197 133 1169 c 0,204,205
 133 1142 133 1142 114 1122 c 0,206,207
 94 1102 94 1102 66 1102 c 0,192,193
224 1102 m 256,208,209
 196 1102 196 1102 177 1122 c 0,210,211
 157 1142 157 1142 157 1169 c 0,212,213
 157 1197 157 1197 177 1217 c 0,214,215
 196 1236 196 1236 224 1236 c 256,216,217
 252 1236 252 1236 271 1217 c 0,218,219
 291 1197 291 1197 291 1169 c 0,220,221
 291 1142 291 1142 271 1122 c 0,222,223
 252 1102 252 1102 224 1102 c 256,208,209
66 1260 m 0,224,225
 39 1260 39 1260 19 1279 c 0,226,227
 0 1299 0 1299 0 1327 c 0,228,229
 0 1354 0 1354 19 1374 c 0,230,231
 39 1394 39 1394 66 1394 c 0,232,233
 94 1394 94 1394 114 1374 c 0,234,235
 133 1354 133 1354 133 1327 c 0,236,237
 133 1299 133 1299 114 1279 c 0,238,239
 94 1260 94 1260 66 1260 c 0,224,225
224 1260 m 256,240,241
 196 1260 196 1260 177 1279 c 0,242,243
 157 1299 157 1299 157 1327 c 0,244,245
 157 1354 157 1354 177 1374 c 0,246,247
 196 1394 196 1394 224 1394 c 256,248,249
 252 1394 252 1394 271 1374 c 0,250,251
 291 1354 291 1354 291 1327 c 0,252,253
 291 1299 291 1299 271 1279 c 0,254,255
 252 1260 252 1260 224 1260 c 256,240,241
66 1417 m 0,256,257
 39 1417 39 1417 19 1437 c 0,258,259
 0 1457 0 1457 0 1484 c 0,260,261
 0 1512 0 1512 19 1532 c 0,262,263
 39 1551 39 1551 66 1551 c 0,264,265
 94 1551 94 1551 114 1532 c 0,266,267
 133 1512 133 1512 133 1484 c 0,268,269
 133 1457 133 1457 114 1437 c 0,270,271
 94 1417 94 1417 66 1417 c 0,256,257
224 1417 m 256,272,273
 196 1417 196 1417 177 1437 c 0,274,275
 157 1457 157 1457 157 1484 c 0,276,277
 157 1512 157 1512 177 1532 c 0,278,279
 196 1551 196 1551 224 1551 c 256,280,281
 252 1551 252 1551 271 1532 c 0,282,283
 291 1512 291 1512 291 1484 c 0,284,285
 291 1457 291 1457 271 1437 c 0,286,287
 252 1417 252 1417 224 1417 c 256,272,273
66 1575 m 0,288,289
 39 1575 39 1575 19 1594 c 0,290,291
 0 1614 0 1614 0 1642 c 256,292,293
 0 1670 0 1670 19 1689 c 0,294,295
 39 1709 39 1709 66 1709 c 0,296,297
 94 1709 94 1709 114 1689 c 0,298,299
 133 1670 133 1670 133 1642 c 256,300,301
 133 1614 133 1614 114 1594 c 0,302,303
 94 1575 94 1575 66 1575 c 0,288,289
224 1575 m 256,304,305
 196 1575 196 1575 177 1594 c 0,306,307
 157 1614 157 1614 157 1642 c 256,308,309
 157 1670 157 1670 177 1689 c 0,310,311
 196 1709 196 1709 224 1709 c 256,312,313
 252 1709 252 1709 271 1689 c 0,314,315
 291 1670 291 1670 291 1642 c 256,316,317
 291 1614 291 1614 271 1594 c 0,318,319
 252 1575 252 1575 224 1575 c 256,304,305
EndSplineSet
Validated: 1
EndChar

StartChar: quotedbl
Encoding: 34 34 3
Width: 945
GlyphClass: 1
Flags: W
LayerCount: 2
Fore
SplineSet
66 1102 m 0,0,1
 39 1102 39 1102 19 1122 c 0,2,3
 0 1142 0 1142 0 1169 c 0,4,5
 0 1197 0 1197 19 1217 c 0,6,7
 39 1236 39 1236 66 1236 c 0,8,9
 94 1236 94 1236 114 1217 c 0,10,11
 133 1197 133 1197 133 1169 c 0,12,13
 133 1142 133 1142 114 1122 c 0,14,15
 94 1102 94 1102 66 1102 c 0,0,1
224 1102 m 256,16,17
 196 1102 196 1102 177 1122 c 0,18,19
 157 1142 157 1142 157 1169 c 0,20,21
 157 1197 157 1197 177 1217 c 0,22,23
 196 1236 196 1236 224 1236 c 256,24,25
 252 1236 252 1236 271 1217 c 0,26,27
 291 1197 291 1197 291 1169 c 0,28,29
 291 1142 291 1142 271 1122 c 0,30,31
 252 1102 252 1102 224 1102 c 256,16,17
539 1102 m 256,32,33
 511 1102 511 1102 492 1122 c 0,34,35
 472 1142 472 1142 472 1169 c 0,36,37
 472 1197 472 1197 492 1217 c 0,38,39
 511 1236 511 1236 539 1236 c 256,40,41
 567 1236 567 1236 586 1217 c 0,42,43
 606 1197 606 1197 606 1169 c 0,44,45
 606 1142 606 1142 586 1122 c 0,46,47
 567 1102 567 1102 539 1102 c 256,32,33
697 1102 m 0,48,49
 669 1102 669 1102 649 1122 c 0,50,51
 630 1142 630 1142 630 1169 c 0,52,53
 630 1197 630 1197 649 1217 c 0,54,55
 669 1236 669 1236 697 1236 c 0,56,57
 724 1236 724 1236 744 1217 c 0,58,59
 764 1197 764 1197 764 1169 c 0,60,61
 764 1142 764 1142 744 1122 c 256,62,63
 724 1102 724 1102 697 1102 c 0,48,49
66 1260 m 0,64,65
 39 1260 39 1260 19 1279 c 0,66,67
 0 1299 0 1299 0 1327 c 0,68,69
 0 1354 0 1354 19 1374 c 0,70,71
 39 1394 39 1394 66 1394 c 0,72,73
 94 1394 94 1394 114 1374 c 0,74,75
 133 1354 133 1354 133 1327 c 0,76,77
 133 1299 133 1299 114 1279 c 0,78,79
 94 1260 94 1260 66 1260 c 0,64,65
224 1260 m 256,80,81
 196 1260 196 1260 177 1279 c 0,82,83
 157 1299 157 1299 157 1327 c 0,84,85
 157 1354 157 1354 177 1374 c 0,86,87
 196 1394 196 1394 224 1394 c 256,88,89
 252 1394 252 1394 271 1374 c 0,90,91
 291 1354 291 1354 291 1327 c 0,92,93
 291 1299 291 1299 271 1279 c 0,94,95
 252 1260 252 1260 224 1260 c 256,80,81
539 1260 m 256,96,97
 511 1260 511 1260 492 1279 c 0,98,99
 472 1299 472 1299 472 1327 c 0,100,101
 472 1354 472 1354 492 1374 c 0,102,103
 511 1394 511 1394 539 1394 c 256,104,105
 567 1394 567 1394 586 1374 c 0,106,107
 606 1354 606 1354 606 1327 c 0,108,109
 606 1299 606 1299 586 1279 c 0,110,111
 567 1260 567 1260 539 1260 c 256,96,97
697 1260 m 0,112,113
 669 1260 669 1260 649 1279 c 0,114,115
 630 1299 630 1299 630 1327 c 0,116,117
 630 1354 630 1354 649 1374 c 0,118,119
 669 1394 669 1394 697 1394 c 0,120,121
 724 1394 724 1394 744 1374 c 256,122,123
 764 1354 764 1354 764 1327 c 0,124,125
 764 1299 764 1299 744 1279 c 0,126,127
 724 1260 724 1260 697 1260 c 0,112,113
66 1417 m 0,128,129
 39 1417 39 1417 19 1437 c 0,130,131
 0 1457 0 1457 0 1484 c 0,132,133
 0 1512 0 1512 19 1532 c 0,134,135
 39 1551 39 1551 66 1551 c 0,136,137
 94 1551 94 1551 114 1532 c 0,138,139
 133 1512 133 1512 133 1484 c 0,140,141
 133 1457 133 1457 114 1437 c 0,142,143
 94 1417 94 1417 66 1417 c 0,128,129
224 1417 m 256,144,145
 196 1417 196 1417 177 1437 c 0,146,147
 157 1457 157 1457 157 1484 c 0,148,149
 157 1512 157 1512 177 1532 c 0,150,151
 196 1551 196 1551 224 1551 c 256,152,153
 252 1551 252 1551 271 1532 c 0,154,155
 291 1512 291 1512 291 1484 c 0,156,157
 291 1457 291 1457 271 1437 c 0,158,159
 252 1417 252 1417 224 1417 c 256,144,145
539 1417 m 256,160,161
 511 1417 511 1417 492 1437 c 0,162,163
 472 1457 472 1457 472 1484 c 0,164,165
 472 1512 472 1512 492 1532 c 0,166,167
 511 1551 511 1551 539 1551 c 256,168,169
 567 1551 567 1551 586 1532 c 0,170,171
 606 1512 606 1512 606 1484 c 0,172,173
 606 1457 606 1457 586 1437 c 0,174,175
 567 1417 567 1417 539 1417 c 256,160,161
697 1417 m 0,176,177
 669 1417 669 1417 649 1437 c 0,178,179
 630 1457 630 1457 630 1484 c 0,180,181
 630 1512 630 1512 649 1532 c 0,182,183
 669 1551 669 1551 697 1551 c 0,184,185
 724 1551 724 1551 744 1532 c 0,186,187
 764 1512 764 1512 764 1484 c 0,188,189
 764 1457 764 1457 744 1437 c 256,190,191
 724 1417 724 1417 697 1417 c 0,176,177
66 1575 m 0,192,193
 39 1575 39 1575 19 1594 c 0,194,195
 0 1614 0 1614 0 1642 c 256,196,197
 0 1670 0 1670 19 1689 c 0,198,199
 39 1709 39 1709 66 1709 c 0,200,201
 94 1709 94 1709 114 1689 c 0,202,203
 133 1670 133 1670 133 1642 c 256,204,205
 133 1614 133 1614 114 1594 c 0,206,207
 94 1575 94 1575 66 1575 c 0,192,193
224 1575 m 256,208,209
 196 1575 196 1575 177 1594 c 0,210,211
 157 1614 157 1614 157 1642 c 256,212,213
 157 1670 157 1670 177 1689 c 0,214,215
 196 1709 196 1709 224 1709 c 256,216,217
 252 1709 252 1709 271 1689 c 0,218,219
 291 1670 291 1670 291 1642 c 256,220,221
 291 1614 291 1614 271 1594 c 0,222,223
 252 1575 252 1575 224 1575 c 256,208,209
539 1575 m 256,224,225
 511 1575 511 1575 492 1594 c 0,226,227
 472 1614 472 1614 472 1642 c 256,228,229
 472 1670 472 1670 492 1689 c 0,230,231
 511 1709 511 1709 539 1709 c 256,232,233
 567 1709 567 1709 586 1689 c 0,234,235
 606 1670 606 1670 606 1642 c 256,236,237
 606 1614 606 1614 586 1594 c 0,238,239
 567 1575 567 1575 539 1575 c 256,224,225
697 1575 m 0,240,241
 669 1575 669 1575 649 1594 c 0,242,243
 630 1614 630 1614 630 1642 c 256,244,245
 630 1670 630 1670 649 1689 c 0,246,247
 669 1709 669 1709 697 1709 c 0,248,249
 724 1709 724 1709 744 1689 c 0,250,251
 764 1670 764 1670 764 1642 c 256,252,253
 764 1614 764 1614 744 1594 c 0,254,255
 724 1575 724 1575 697 1575 c 0,240,241
EndSplineSet
Validated: 1
EndChar

StartChar: numbersign
Encoding: 35 35 4
Width: 1417
GlyphClass: 1
Flags: W
LayerCount: 2
Fore
SplineSet
224 0 m 256,0,1
 196 0 196 0 177 19 c 0,2,3
 157 39 157 39 157 66 c 0,4,5
 157 94 157 94 177 114 c 0,6,7
 196 133 196 133 224 133 c 256,8,9
 252 133 252 133 271 114 c 0,10,11
 291 94 291 94 291 66 c 0,12,13
 291 39 291 39 271 19 c 0,14,15
 252 0 252 0 224 0 c 256,0,1
382 0 m 0,16,17
 354 0 354 0 334 19 c 0,18,19
 315 39 315 39 315 66 c 0,20,21
 315 94 315 94 334 114 c 0,22,23
 354 133 354 133 382 133 c 0,24,25
 409 133 409 133 429 114 c 0,26,27
 448 94 448 94 448 66 c 0,28,29
 448 39 448 39 429 19 c 0,30,31
 409 0 409 0 382 0 c 0,16,17
854 0 m 256,32,33
 826 0 826 0 807 19 c 0,34,35
 787 39 787 39 787 66 c 0,36,37
 787 94 787 94 807 114 c 0,38,39
 826 133 826 133 854 133 c 256,40,41
 882 133 882 133 902 114 c 0,42,43
 921 94 921 94 921 66 c 0,44,45
 921 39 921 39 902 19 c 0,46,47
 882 0 882 0 854 0 c 256,32,33
1012 0 m 0,48,49
 984 0 984 0 964 19 c 0,50,51
 945 39 945 39 945 66 c 0,52,53
 945 94 945 94 964 114 c 0,54,55
 984 133 984 133 1012 133 c 0,56,57
 1039 133 1039 133 1059 114 c 0,58,59
 1079 94 1079 94 1079 66 c 0,60,61
 1079 39 1079 39 1059 19 c 0,62,63
 1039 0 1039 0 1012 0 c 0,48,49
224 157 m 256,64,65
 196 157 196 157 177 177 c 0,66,67
 157 196 157 196 157 224 c 256,68,69
 157 252 157 252 177 271 c 0,70,71
 196 291 196 291 224 291 c 256,72,73
 252 291 252 291 271 271 c 0,74,75
 291 252 291 252 291 224 c 256,76,77
 291 196 291 196 271 177 c 0,78,79
 252 157 252 157 224 157 c 256,64,65
382 157 m 0,80,81
 354 157 354 157 334 177 c 0,82,83
 315 196 315 196 315 224 c 256,84,85
 315 252 315 252 334 271 c 0,86,87
 354 291 354 291 382 291 c 0,88,89
 409 291 409 291 429 271 c 0,90,91
 448 252 448 252 448 224 c 256,92,93
 448 196 448 196 429 177 c 0,94,95
 409 157 409 157 382 157 c 0,80,81
854 157 m 256,96,97
 826 157 826 157 807 177 c 0,98,99
 787 196 787 196 787 224 c 256,100,101
 787 252 787 252 807 271 c 0,102,103
 826 291 826 291 854 291 c 256,104,105
 882 291 882 291 902 271 c 0,106,107
 921 252 921 252 921 224 c 256,108,109
 921 196 921 196 902 177 c 0,110,111
 882 157 882 157 854 157 c 256,96,97
1012 157 m 0,112,113
 984 157 984 157 964 177 c 0,114,115
 945 196 945 196 945 224 c 256,116,117
 945 252 945 252 964 271 c 0,118,119
 984 291 984 291 1012 291 c 0,120,121
 1039 291 1039 291 1059 271 c 0,122,123
 1079 252 1079 252 1079 224 c 256,124,125
 1079 196 1079 196 1059 177 c 0,126,127
 1039 157 1039 157 1012 157 c 0,112,113
66 315 m 0,128,129
 39 315 39 315 19 334 c 0,130,131
 0 354 0 354 0 382 c 0,132,133
 0 409 0 409 19 429 c 0,134,135
 39 448 39 448 66 448 c 0,136,137
 94 448 94 448 114 429 c 0,138,139
 133 409 133 409 133 382 c 0,140,141
 133 354 133 354 114 334 c 0,142,143
 94 315 94 315 66 315 c 0,128,129
224 315 m 256,144,145
 196 315 196 315 177 334 c 0,146,147
 157 354 157 354 157 382 c 0,148,149
 157 409 157 409 177 429 c 0,150,151
 196 448 196 448 224 448 c 256,152,153
 252 448 252 448 271 429 c 0,154,155
 291 409 291 409 291 382 c 0,156,157
 291 354 291 354 271 334 c 0,158,159
 252 315 252 315 224 315 c 256,144,145
382 315 m 0,160,161
 354 315 354 315 334 334 c 0,162,163
 315 354 315 354 315 382 c 0,164,165
 315 409 315 409 334 429 c 0,166,167
 354 448 354 448 382 448 c 0,168,169
 409 448 409 448 429 429 c 0,170,171
 448 409 448 409 448 382 c 0,172,173
 448 354 448 354 429 334 c 0,174,175
 409 315 409 315 382 315 c 0,160,161
539 315 m 256,176,177
 511 315 511 315 492 334 c 0,178,179
 472 354 472 354 472 382 c 0,180,181
 472 409 472 409 492 429 c 0,182,183
 511 448 511 448 539 448 c 256,184,185
 567 448 567 448 586 429 c 0,186,187
 606 409 606 409 606 382 c 0,188,189
 606 354 606 354 586 334 c 0,190,191
 567 315 567 315 539 315 c 256,176,177
697 315 m 0,192,193
 669 315 669 315 649 334 c 0,194,195
 630 354 630 354 630 382 c 0,196,197
 630 409 630 409 649 429 c 0,198,199
 669 448 669 448 697 448 c 0,200,201
 724 448 724 448 744 429 c 0,202,203
 764 409 764 409 764 382 c 0,204,205
 764 354 764 354 744 334 c 0,206,207
 724 315 724 315 697 315 c 0,192,193
854 315 m 256,208,209
 826 315 826 315 807 334 c 0,210,211
 787 354 787 354 787 382 c 0,212,213
 787 409 787 409 807 429 c 0,214,215
 826 448 826 448 854 448 c 256,216,217
 882 448 882 448 902 429 c 0,218,219
 921 409 921 409 921 382 c 0,220,221
 921 354 921 354 902 334 c 0,222,223
 882 315 882 315 854 315 c 256,208,209
1012 315 m 0,224,225
 984 315 984 315 964 334 c 0,226,227
 945 354 945 354 945 382 c 0,228,229
 945 409 945 409 964 429 c 0,230,231
 984 448 984 448 1012 448 c 0,232,233
 1039 448 1039 448 1059 429 c 0,234,235
 1079 409 1079 409 1079 382 c 0,236,237
 1079 354 1079 354 1059 334 c 0,238,239
 1039 315 1039 315 1012 315 c 0,224,225
1169 315 m 0,240,241
 1142 315 1142 315 1122 334 c 0,242,243
 1102 354 1102 354 1102 382 c 0,244,245
 1102 409 1102 409 1122 429 c 0,246,247
 1142 448 1142 448 1169 448 c 0,248,249
 1197 448 1197 448 1217 429 c 0,250,251
 1236 409 1236 409 1236 382 c 0,252,253
 1236 354 1236 354 1217 334 c 0,254,255
 1197 315 1197 315 1169 315 c 0,240,241
66 472 m 0,256,257
 39 472 39 472 19 492 c 0,258,259
 0 511 0 511 0 539 c 256,260,261
 0 567 0 567 19 586 c 0,262,263
 39 606 39 606 66 606 c 0,264,265
 94 606 94 606 114 586 c 0,266,267
 133 567 133 567 133 539 c 256,268,269
 133 511 133 511 114 492 c 0,270,271
 94 472 94 472 66 472 c 0,256,257
224 472 m 256,272,273
 196 472 196 472 177 492 c 0,274,275
 157 511 157 511 157 539 c 256,276,277
 157 567 157 567 177 586 c 0,278,279
 196 606 196 606 224 606 c 256,280,281
 252 606 252 606 271 586 c 0,282,283
 291 567 291 567 291 539 c 256,284,285
 291 511 291 511 271 492 c 0,286,287
 252 472 252 472 224 472 c 256,272,273
382 472 m 0,288,289
 354 472 354 472 334 492 c 0,290,291
 315 511 315 511 315 539 c 256,292,293
 315 567 315 567 334 586 c 0,294,295
 354 606 354 606 382 606 c 0,296,297
 409 606 409 606 429 586 c 0,298,299
 448 567 448 567 448 539 c 256,300,301
 448 511 448 511 429 492 c 0,302,303
 409 472 409 472 382 472 c 0,288,289
539 472 m 256,304,305
 511 472 511 472 492 492 c 0,306,307
 472 511 472 511 472 539 c 256,308,309
 472 567 472 567 492 586 c 0,310,311
 511 606 511 606 539 606 c 256,312,313
 567 606 567 606 586 586 c 0,314,315
 606 567 606 567 606 539 c 256,316,317
 606 511 606 511 586 492 c 0,318,319
 567 472 567 472 539 472 c 256,304,305
697 472 m 0,320,321
 669 472 669 472 649 492 c 0,322,323
 630 511 630 511 630 539 c 256,324,325
 630 567 630 567 649 586 c 0,326,327
 669 606 669 606 697 606 c 0,328,329
 724 606 724 606 744 586 c 0,330,331
 764 567 764 567 764 539 c 256,332,333
 764 511 764 511 744 492 c 0,334,335
 724 472 724 472 697 472 c 0,320,321
854 472 m 256,336,337
 826 472 826 472 807 492 c 0,338,339
 787 511 787 511 787 539 c 256,340,341
 787 567 787 567 807 586 c 0,342,343
 826 606 826 606 854 606 c 256,344,345
 882 606 882 606 902 586 c 0,346,347
 921 567 921 567 921 539 c 256,348,349
 921 511 921 511 902 492 c 0,350,351
 882 472 882 472 854 472 c 256,336,337
1012 472 m 0,352,353
 984 472 984 472 964 492 c 0,354,355
 945 511 945 511 945 539 c 256,356,357
 945 567 945 567 964 586 c 0,358,359
 984 606 984 606 1012 606 c 0,360,361
 1039 606 1039 606 1059 586 c 0,362,363
 1079 567 1079 567 1079 539 c 256,364,365
 1079 511 1079 511 1059 492 c 0,366,367
 1039 472 1039 472 1012 472 c 0,352,353
1169 472 m 0,368,369
 1142 472 1142 472 1122 492 c 0,370,371
 1102 511 1102 511 1102 539 c 256,372,373
 1102 567 1102 567 1122 586 c 0,374,375
 1142 606 1142 606 1169 606 c 0,376,377
 1197 606 1197 606 1217 586 c 0,378,379
 1236 567 1236 567 1236 539 c 256,380,381
 1236 511 1236 511 1217 492 c 0,382,383
 1197 472 1197 472 1169 472 c 0,368,369
224 630 m 256,384,385
 196 630 196 630 177 649 c 0,386,387
 157 669 157 669 157 697 c 0,388,389
 157 724 157 724 177 744 c 0,390,391
 196 764 196 764 224 764 c 256,392,393
 252 764 252 764 271 744 c 0,394,395
 291 724 291 724 291 697 c 0,396,397
 291 669 291 669 271 649 c 0,398,399
 252 630 252 630 224 630 c 256,384,385
382 630 m 0,400,401
 354 630 354 630 334 649 c 0,402,403
 315 669 315 669 315 697 c 0,404,405
 315 724 315 724 334 744 c 0,406,407
 354 764 354 764 382 764 c 0,408,409
 409 764 409 764 429 744 c 0,410,411
 448 724 448 724 448 697 c 0,412,413
 448 669 448 669 429 649 c 0,414,415
 409 630 409 630 382 630 c 0,400,401
854 630 m 256,416,417
 826 630 826 630 807 649 c 0,418,419
 787 669 787 669 787 697 c 0,420,421
 787 724 787 724 807 744 c 0,422,423
 826 764 826 764 854 764 c 256,424,425
 882 764 882 764 902 744 c 0,426,427
 921 724 921 724 921 697 c 0,428,429
 921 669 921 669 902 649 c 0,430,431
 882 630 882 630 854 630 c 256,416,417
1012 630 m 0,432,433
 984 630 984 630 964 649 c 0,434,435
 945 669 945 669 945 697 c 0,436,437
 945 724 945 724 964 744 c 0,438,439
 984 764 984 764 1012 764 c 0,440,441
 1039 764 1039 764 1059 744 c 256,442,443
 1079 724 1079 724 1079 697 c 0,444,445
 1079 669 1079 669 1059 649 c 0,446,447
 1039 630 1039 630 1012 630 c 0,432,433
224 787 m 256,448,449
 196 787 196 787 177 807 c 0,450,451
 157 826 157 826 157 854 c 256,452,453
 157 882 157 882 177 902 c 0,454,455
 196 921 196 921 224 921 c 256,456,457
 252 921 252 921 271 902 c 0,458,459
 291 882 291 882 291 854 c 256,460,461
 291 826 291 826 271 807 c 0,462,463
 252 787 252 787 224 787 c 256,448,449
382 787 m 0,464,465
 354 787 354 787 334 807 c 0,466,467
 315 826 315 826 315 854 c 256,468,469
 315 882 315 882 334 902 c 0,470,471
 354 921 354 921 382 921 c 0,472,473
 409 921 409 921 429 902 c 0,474,475
 448 882 448 882 448 854 c 256,476,477
 448 826 448 826 429 807 c 0,478,479
 409 787 409 787 382 787 c 0,464,465
854 787 m 256,480,481
 826 787 826 787 807 807 c 0,482,483
 787 826 787 826 787 854 c 256,484,485
 787 882 787 882 807 902 c 0,486,487
 826 921 826 921 854 921 c 256,488,489
 882 921 882 921 902 902 c 0,490,491
 921 882 921 882 921 854 c 256,492,493
 921 826 921 826 902 807 c 0,494,495
 882 787 882 787 854 787 c 256,480,481
1012 787 m 0,496,497
 984 787 984 787 964 807 c 0,498,499
 945 826 945 826 945 854 c 256,500,501
 945 882 945 882 964 902 c 0,502,503
 984 921 984 921 1012 921 c 0,504,505
 1039 921 1039 921 1059 902 c 0,506,507
 1079 882 1079 882 1079 854 c 256,508,509
 1079 826 1079 826 1059 807 c 0,510,511
 1039 787 1039 787 1012 787 c 0,496,497
224 945 m 256,512,513
 196 945 196 945 177 964 c 0,514,515
 157 984 157 984 157 1012 c 0,516,517
 157 1039 157 1039 177 1059 c 0,518,519
 196 1079 196 1079 224 1079 c 256,520,521
 252 1079 252 1079 271 1059 c 0,522,523
 291 1039 291 1039 291 1012 c 0,524,525
 291 984 291 984 271 964 c 0,526,527
 252 945 252 945 224 945 c 256,512,513
382 945 m 0,528,529
 354 945 354 945 334 964 c 0,530,531
 315 984 315 984 315 1012 c 0,532,533
 315 1039 315 1039 334 1059 c 0,534,535
 354 1079 354 1079 382 1079 c 0,536,537
 409 1079 409 1079 429 1059 c 0,538,539
 448 1039 448 1039 448 1012 c 0,540,541
 448 984 448 984 429 964 c 0,542,543
 409 945 409 945 382 945 c 0,528,529
854 945 m 256,544,545
 826 945 826 945 807 964 c 0,546,547
 787 984 787 984 787 1012 c 0,548,549
 787 1039 787 1039 807 1059 c 0,550,551
 826 1079 826 1079 854 1079 c 256,552,553
 882 1079 882 1079 902 1059 c 0,554,555
 921 1039 921 1039 921 1012 c 0,556,557
 921 984 921 984 902 964 c 0,558,559
 882 945 882 945 854 945 c 256,544,545
1012 945 m 0,560,561
 984 945 984 945 964 964 c 0,562,563
 945 984 945 984 945 1012 c 0,564,565
 945 1039 945 1039 964 1059 c 0,566,567
 984 1079 984 1079 1012 1079 c 0,568,569
 1039 1079 1039 1079 1059 1059 c 256,570,571
 1079 1039 1079 1039 1079 1012 c 0,572,573
 1079 984 1079 984 1059 964 c 0,574,575
 1039 945 1039 945 1012 945 c 0,560,561
66 1102 m 0,576,577
 39 1102 39 1102 19 1122 c 0,578,579
 0 1142 0 1142 0 1169 c 0,580,581
 0 1197 0 1197 19 1217 c 0,582,583
 39 1236 39 1236 66 1236 c 0,584,585
 94 1236 94 1236 114 1217 c 0,586,587
 133 1197 133 1197 133 1169 c 0,588,589
 133 1142 133 1142 114 1122 c 0,590,591
 94 1102 94 1102 66 1102 c 0,576,577
224 1102 m 256,592,593
 196 1102 196 1102 177 1122 c 0,594,595
 157 1142 157 1142 157 1169 c 0,596,597
 157 1197 157 1197 177 1217 c 0,598,599
 196 1236 196 1236 224 1236 c 256,600,601
 252 1236 252 1236 271 1217 c 0,602,603
 291 1197 291 1197 291 1169 c 0,604,605
 291 1142 291 1142 271 1122 c 0,606,607
 252 1102 252 1102 224 1102 c 256,592,593
382 1102 m 0,608,609
 354 1102 354 1102 334 1122 c 0,610,611
 315 1142 315 1142 315 1169 c 0,612,613
 315 1197 315 1197 334 1217 c 0,614,615
 354 1236 354 1236 382 1236 c 0,616,617
 409 1236 409 1236 429 1217 c 0,618,619
 448 1197 448 1197 448 1169 c 0,620,621
 448 1142 448 1142 429 1122 c 0,622,623
 409 1102 409 1102 382 1102 c 0,608,609
539 1102 m 256,624,625
 511 1102 511 1102 492 1122 c 0,626,627
 472 1142 472 1142 472 1169 c 0,628,629
 472 1197 472 1197 492 1217 c 0,630,631
 511 1236 511 1236 539 1236 c 256,632,633
 567 1236 567 1236 586 1217 c 0,634,635
 606 1197 606 1197 606 1169 c 0,636,637
 606 1142 606 1142 586 1122 c 0,638,639
 567 1102 567 1102 539 1102 c 256,624,625
697 1102 m 0,640,641
 669 1102 669 1102 649 1122 c 0,642,643
 630 1142 630 1142 630 1169 c 0,644,645
 630 1197 630 1197 649 1217 c 0,646,647
 669 1236 669 1236 697 1236 c 0,648,649
 724 1236 724 1236 744 1217 c 0,650,651
 764 1197 764 1197 764 1169 c 0,652,653
 764 1142 764 1142 744 1122 c 256,654,655
 724 1102 724 1102 697 1102 c 0,640,641
854 1102 m 256,656,657
 826 1102 826 1102 807 1122 c 0,658,659
 787 1142 787 1142 787 1169 c 0,660,661
 787 1197 787 1197 807 1217 c 0,662,663
 826 1236 826 1236 854 1236 c 256,664,665
 882 1236 882 1236 902 1217 c 0,666,667
 921 1197 921 1197 921 1169 c 0,668,669
 921 1142 921 1142 902 1122 c 0,670,671
 882 1102 882 1102 854 1102 c 256,656,657
1012 1102 m 0,672,673
 984 1102 984 1102 964 1122 c 0,674,675
 945 1142 945 1142 945 1169 c 0,676,677
 945 1197 945 1197 964 1217 c 0,678,679
 984 1236 984 1236 1012 1236 c 0,680,681
 1039 1236 1039 1236 1059 1217 c 0,682,683
 1079 1197 1079 1197 1079 1169 c 0,684,685
 1079 1142 1079 1142 1059 1122 c 256,686,687
 1039 1102 1039 1102 1012 1102 c 0,672,673
1169 1102 m 0,688,689
 1142 1102 1142 1102 1122 1122 c 256,690,691
 1102 1142 1102 1142 1102 1169 c 0,692,693
 1102 1197 1102 1197 1122 1217 c 0,694,695
 1142 1236 1142 1236 1169 1236 c 0,696,697
 1197 1236 1197 1236 1217 1217 c 0,698,699
 1236 1197 1236 1197 1236 1169 c 0,700,701
 1236 1142 1236 1142 1217 1122 c 0,702,703
 1197 1102 1197 1102 1169 1102 c 0,688,689
66 1260 m 0,704,705
 39 1260 39 1260 19 1279 c 0,706,707
 0 1299 0 1299 0 1327 c 0,708,709
 0 1354 0 1354 19 1374 c 0,710,711
 39 1394 39 1394 66 1394 c 0,712,713
 94 1394 94 1394 114 1374 c 0,714,715
 133 1354 133 1354 133 1327 c 0,716,717
 133 1299 133 1299 114 1279 c 0,718,719
 94 1260 94 1260 66 1260 c 0,704,705
224 1260 m 256,720,721
 196 1260 196 1260 177 1279 c 0,722,723
 157 1299 157 1299 157 1327 c 0,724,725
 157 1354 157 1354 177 1374 c 0,726,727
 196 1394 196 1394 224 1394 c 256,728,729
 252 1394 252 1394 271 1374 c 0,730,731
 291 1354 291 1354 291 1327 c 0,732,733
 291 1299 291 1299 271 1279 c 0,734,735
 252 1260 252 1260 224 1260 c 256,720,721
382 1260 m 0,736,737
 354 1260 354 1260 334 1279 c 0,738,739
 315 1299 315 1299 315 1327 c 0,740,741
 315 1354 315 1354 334 1374 c 0,742,743
 354 1394 354 1394 382 1394 c 0,744,745
 409 1394 409 1394 429 1374 c 0,746,747
 448 1354 448 1354 448 1327 c 0,748,749
 448 1299 448 1299 429 1279 c 0,750,751
 409 1260 409 1260 382 1260 c 0,736,737
539 1260 m 256,752,753
 511 1260 511 1260 492 1279 c 0,754,755
 472 1299 472 1299 472 1327 c 0,756,757
 472 1354 472 1354 492 1374 c 0,758,759
 511 1394 511 1394 539 1394 c 256,760,761
 567 1394 567 1394 586 1374 c 0,762,763
 606 1354 606 1354 606 1327 c 0,764,765
 606 1299 606 1299 586 1279 c 0,766,767
 567 1260 567 1260 539 1260 c 256,752,753
697 1260 m 0,768,769
 669 1260 669 1260 649 1279 c 0,770,771
 630 1299 630 1299 630 1327 c 0,772,773
 630 1354 630 1354 649 1374 c 0,774,775
 669 1394 669 1394 697 1394 c 0,776,777
 724 1394 724 1394 744 1374 c 256,778,779
 764 1354 764 1354 764 1327 c 0,780,781
 764 1299 764 1299 744 1279 c 0,782,783
 724 1260 724 1260 697 1260 c 0,768,769
854 1260 m 256,784,785
 826 1260 826 1260 807 1279 c 0,786,787
 787 1299 787 1299 787 1327 c 0,788,789
 787 1354 787 1354 807 1374 c 0,790,791
 826 1394 826 1394 854 1394 c 256,792,793
 882 1394 882 1394 902 1374 c 0,794,795
 921 1354 921 1354 921 1327 c 0,796,797
 921 1299 921 1299 902 1279 c 0,798,799
 882 1260 882 1260 854 1260 c 256,784,785
1012 1260 m 0,800,801
 984 1260 984 1260 964 1279 c 0,802,803
 945 1299 945 1299 945 1327 c 0,804,805
 945 1354 945 1354 964 1374 c 0,806,807
 984 1394 984 1394 1012 1394 c 0,808,809
 1039 1394 1039 1394 1059 1374 c 256,810,811
 1079 1354 1079 1354 1079 1327 c 0,812,813
 1079 1299 1079 1299 1059 1279 c 0,814,815
 1039 1260 1039 1260 1012 1260 c 0,800,801
1169 1260 m 0,816,817
 1142 1260 1142 1260 1122 1279 c 0,818,819
 1102 1299 1102 1299 1102 1327 c 0,820,821
 1102 1354 1102 1354 1122 1374 c 256,822,823
 1142 1394 1142 1394 1169 1394 c 0,824,825
 1197 1394 1197 1394 1217 1374 c 0,826,827
 1236 1354 1236 1354 1236 1327 c 0,828,829
 1236 1299 1236 1299 1217 1279 c 0,830,831
 1197 1260 1197 1260 1169 1260 c 0,816,817
224 1417 m 256,832,833
 196 1417 196 1417 177 1437 c 0,834,835
 157 1457 157 1457 157 1484 c 0,836,837
 157 1512 157 1512 177 1532 c 0,838,839
 196 1551 196 1551 224 1551 c 256,840,841
 252 1551 252 1551 271 1532 c 0,842,843
 291 1512 291 1512 291 1484 c 0,844,845
 291 1457 291 1457 271 1437 c 0,846,847
 252 1417 252 1417 224 1417 c 256,832,833
382 1417 m 0,848,849
 354 1417 354 1417 334 1437 c 0,850,851
 315 1457 315 1457 315 1484 c 0,852,853
 315 1512 315 1512 334 1532 c 0,854,855
 354 1551 354 1551 382 1551 c 0,856,857
 409 1551 409 1551 429 1532 c 0,858,859
 448 1512 448 1512 448 1484 c 0,860,861
 448 1457 448 1457 429 1437 c 0,862,863
 409 1417 409 1417 382 1417 c 0,848,849
854 1417 m 256,864,865
 826 1417 826 1417 807 1437 c 0,866,867
 787 1457 787 1457 787 1484 c 0,868,869
 787 1512 787 1512 807 1532 c 0,870,871
 826 1551 826 1551 854 1551 c 256,872,873
 882 1551 882 1551 902 1532 c 0,874,875
 921 1512 921 1512 921 1484 c 0,876,877
 921 1457 921 1457 902 1437 c 0,878,879
 882 1417 882 1417 854 1417 c 256,864,865
1012 1417 m 0,880,881
 984 1417 984 1417 964 1437 c 0,882,883
 945 1457 945 1457 945 1484 c 0,884,885
 945 1512 945 1512 964 1532 c 0,886,887
 984 1551 984 1551 1012 1551 c 0,888,889
 1039 1551 1039 1551 1059 1532 c 0,890,891
 1079 1512 1079 1512 1079 1484 c 0,892,893
 1079 1457 1079 1457 1059 1437 c 256,894,895
 1039 1417 1039 1417 1012 1417 c 0,880,881
224 1575 m 256,896,897
 196 1575 196 1575 177 1594 c 0,898,899
 157 1614 157 1614 157 1642 c 256,900,901
 157 1670 157 1670 177 1689 c 0,902,903
 196 1709 196 1709 224 1709 c 256,904,905
 252 1709 252 1709 271 1689 c 0,906,907
 291 1670 291 1670 291 1642 c 256,908,909
 291 1614 291 1614 271 1594 c 0,910,911
 252 1575 252 1575 224 1575 c 256,896,897
382 1575 m 0,912,913
 354 1575 354 1575 334 1594 c 0,914,915
 315 1614 315 1614 315 1642 c 256,916,917
 315 1670 315 1670 334 1689 c 0,918,919
 354 1709 354 1709 382 1709 c 0,920,921
 409 1709 409 1709 429 1689 c 0,922,923
 448 1670 448 1670 448 1642 c 256,924,925
 448 1614 448 1614 429 1594 c 0,926,927
 409 1575 409 1575 382 1575 c 0,912,913
854 1575 m 256,928,929
 826 1575 826 1575 807 1594 c 0,930,931
 787 1614 787 1614 787 1642 c 256,932,933
 787 1670 787 1670 807 1689 c 0,934,935
 826 1709 826 1709 854 1709 c 256,936,937
 882 1709 882 1709 902 1689 c 0,938,939
 921 1670 921 1670 921 1642 c 256,940,941
 921 1614 921 1614 902 1594 c 0,942,943
 882 1575 882 1575 854 1575 c 256,928,929
1012 1575 m 0,944,945
 984 1575 984 1575 964 1594 c 0,946,947
 945 1614 945 1614 945 1642 c 256,948,949
 945 1670 945 1670 964 1689 c 0,950,951
 984 1709 984 1709 1012 1709 c 0,952,953
 1039 1709 1039 1709 1059 1689 c 0,954,955
 1079 1670 1079 1670 1079 1642 c 256,956,957
 1079 1614 1079 1614 1059 1594 c 0,958,959
 1039 1575 1039 1575 1012 1575 c 0,944,945
EndSplineSet
Validated: 1
EndChar

StartChar: dollar
Encoding: 36 36 5
Width: 1890
GlyphClass: 1
Flags: W
LayerCount: 2
Fore
SplineSet
1012 0 m 0,0,1
 984 0 984 0 964 19 c 0,2,3
 945 39 945 39 945 66 c 0,4,5
 945 94 945 94 964 114 c 0,6,7
 984 133 984 133 1012 133 c 0,8,9
 1039 133 1039 133 1059 114 c 0,10,11
 1079 94 1079 94 1079 66 c 0,12,13
 1079 39 1079 39 1059 19 c 0,14,15
 1039 0 1039 0 1012 0 c 0,0,1
1642 0 m 256,16,17
 1614 0 1614 0 1594 19 c 0,18,19
 1575 39 1575 39 1575 66 c 0,20,21
 1575 94 1575 94 1594 114 c 0,22,23
 1614 133 1614 133 1642 133 c 256,24,25
 1670 133 1670 133 1689 114 c 0,26,27
 1709 94 1709 94 1709 66 c 0,28,29
 1709 39 1709 39 1689 19 c 0,30,31
 1670 0 1670 0 1642 0 c 256,16,17
1012 157 m 0,32,33
 984 157 984 157 964 177 c 0,34,35
 945 196 945 196 945 224 c 256,36,37
 945 252 945 252 964 271 c 0,38,39
 984 291 984 291 1012 291 c 0,40,41
 1039 291 1039 291 1059 271 c 0,42,43
 1079 252 1079 252 1079 224 c 256,44,45
 1079 196 1079 196 1059 177 c 0,46,47
 1039 157 1039 157 1012 157 c 0,32,33
1169 157 m 0,48,49
 1142 157 1142 157 1122 177 c 0,50,51
 1102 196 1102 196 1102 224 c 256,52,53
 1102 252 1102 252 1122 271 c 0,54,55
 1142 291 1142 291 1169 291 c 0,56,57
 1197 291 1197 291 1217 271 c 0,58,59
 1236 252 1236 252 1236 224 c 256,60,61
 1236 196 1236 196 1217 177 c 0,62,63
 1197 157 1197 157 1169 157 c 0,48,49
1327 157 m 0,64,65
 1299 157 1299 157 1279 177 c 0,66,67
 1260 196 1260 196 1260 224 c 256,68,69
 1260 252 1260 252 1279 271 c 0,70,71
 1299 291 1299 291 1327 291 c 0,72,73
 1354 291 1354 291 1374 271 c 0,74,75
 1394 252 1394 252 1394 224 c 256,76,77
 1394 196 1394 196 1374 177 c 0,78,79
 1354 157 1354 157 1327 157 c 0,64,65
1484 157 m 0,80,81
 1457 157 1457 157 1437 177 c 0,82,83
 1417 196 1417 196 1417 224 c 256,84,85
 1417 252 1417 252 1437 271 c 0,86,87
 1457 291 1457 291 1484 291 c 0,88,89
 1512 291 1512 291 1532 271 c 0,90,91
 1551 252 1551 252 1551 224 c 256,92,93
 1551 196 1551 196 1532 177 c 0,94,95
 1512 157 1512 157 1484 157 c 0,80,81
1642 157 m 256,96,97
 1614 157 1614 157 1594 177 c 0,98,99
 1575 196 1575 196 1575 224 c 256,100,101
 1575 252 1575 252 1594 271 c 0,102,103
 1614 291 1614 291 1642 291 c 256,104,105
 1670 291 1670 291 1689 271 c 0,106,107
 1709 252 1709 252 1709 224 c 256,108,109
 1709 196 1709 196 1689 177 c 0,110,111
 1670 157 1670 157 1642 157 c 256,96,97
1169 315 m 0,112,113
 1142 315 1142 315 1122 334 c 0,114,115
 1102 354 1102 354 1102 382 c 0,116,117
 1102 409 1102 409 1122 429 c 0,118,119
 1142 448 1142 448 1169 448 c 0,120,121
 1197 448 1197 448 1217 429 c 0,122,123
 1236 409 1236 409 1236 382 c 0,124,125
 1236 354 1236 354 1217 334 c 0,126,127
 1197 315 1197 315 1169 315 c 0,112,113
1484 315 m 0,128,129
 1457 315 1457 315 1437 334 c 0,130,131
 1417 354 1417 354 1417 382 c 0,132,133
 1417 409 1417 409 1437 429 c 0,134,135
 1457 448 1457 448 1484 448 c 0,136,137
 1512 448 1512 448 1532 429 c 0,138,139
 1551 409 1551 409 1551 382 c 0,140,141
 1551 354 1551 354 1532 334 c 0,142,143
 1512 315 1512 315 1484 315 c 0,128,129
854 472 m 256,144,145
 826 472 826 472 807 492 c 0,146,147
 787 511 787 511 787 539 c 256,148,149
 787 567 787 567 807 586 c 0,150,151
 826 606 826 606 854 606 c 256,152,153
 882 606 882 606 902 586 c 0,154,155
 921 567 921 567 921 539 c 256,156,157
 921 511 921 511 902 492 c 0,158,159
 882 472 882 472 854 472 c 256,144,145
1169 472 m 0,160,161
 1142 472 1142 472 1122 492 c 0,162,163
 1102 511 1102 511 1102 539 c 256,164,165
 1102 567 1102 567 1122 586 c 0,166,167
 1142 606 1142 606 1169 606 c 0,168,169
 1197 606 1197 606 1217 586 c 0,170,171
 1236 567 1236 567 1236 539 c 256,172,173
 1236 511 1236 511 1217 492 c 0,174,175
 1197 472 1197 472 1169 472 c 0,160,161
1484 472 m 0,176,177
 1457 472 1457 472 1437 492 c 0,178,179
 1417 511 1417 511 1417 539 c 256,180,181
 1417 567 1417 567 1437 586 c 0,182,183
 1457 606 1457 606 1484 606 c 0,184,185
 1512 606 1512 606 1532 586 c 0,186,187
 1551 567 1551 567 1551 539 c 256,188,189
 1551 511 1551 511 1532 492 c 0,190,191
 1512 472 1512 472 1484 472 c 0,176,177
854 630 m 256,192,193
 826 630 826 630 807 649 c 0,194,195
 787 669 787 669 787 697 c 0,196,197
 787 724 787 724 807 744 c 0,198,199
 826 764 826 764 854 764 c 256,200,201
 882 764 882 764 902 744 c 0,202,203
 921 724 921 724 921 697 c 0,204,205
 921 669 921 669 902 649 c 0,206,207
 882 630 882 630 854 630 c 256,192,193
1327 630 m 0,208,209
 1299 630 1299 630 1279 649 c 0,210,211
 1260 669 1260 669 1260 697 c 0,212,213
 1260 724 1260 724 1279 744 c 0,214,215
 1299 764 1299 764 1327 764 c 0,216,217
 1354 764 1354 764 1374 744 c 256,218,219
 1394 724 1394 724 1394 697 c 0,220,221
 1394 669 1394 669 1374 649 c 0,222,223
 1354 630 1354 630 1327 630 c 0,208,209
382 787 m 0,224,225
 354 787 354 787 334 807 c 0,226,227
 315 826 315 826 315 854 c 256,228,229
 315 882 315 882 334 902 c 0,230,231
 354 921 354 921 382 921 c 0,232,233
 409 921 409 921 429 902 c 0,234,235
 448 882 448 882 448 854 c 256,236,237
 448 826 448 826 429 807 c 0,238,239
 409 787 409 787 382 787 c 0,224,225
854 787 m 256,240,241
 826 787 826 787 807 807 c 0,242,243
 787 826 787 826 787 854 c 256,244,245
 787 882 787 882 807 902 c 0,246,247
 826 921 826 921 854 921 c 256,248,249
 882 921 882 921 902 902 c 0,250,251
 921 882 921 882 921 854 c 256,252,253
 921 826 921 826 902 807 c 0,254,255
 882 787 882 787 854 787 c 256,240,241
1327 787 m 0,256,257
 1299 787 1299 787 1279 807 c 0,258,259
 1260 826 1260 826 1260 854 c 256,260,261
 1260 882 1260 882 1279 902 c 0,262,263
 1299 921 1299 921 1327 921 c 0,264,265
 1354 921 1354 921 1374 902 c 0,266,267
 1394 882 1394 882 1394 854 c 256,268,269
 1394 826 1394 826 1374 807 c 0,270,271
 1354 787 1354 787 1327 787 c 0,256,257
382 945 m 0,272,273
 354 945 354 945 334 964 c 0,274,275
 315 984 315 984 315 1012 c 0,276,277
 315 1039 315 1039 334 1059 c 0,278,279
 354 1079 354 1079 382 1079 c 0,280,281
 409 1079 409 1079 429 1059 c 0,282,283
 448 1039 448 1039 448 1012 c 0,284,285
 448 984 448 984 429 964 c 0,286,287
 409 945 409 945 382 945 c 0,272,273
854 945 m 256,288,289
 826 945 826 945 807 964 c 0,290,291
 787 984 787 984 787 1012 c 0,292,293
 787 1039 787 1039 807 1059 c 0,294,295
 826 1079 826 1079 854 1079 c 256,296,297
 882 1079 882 1079 902 1059 c 0,298,299
 921 1039 921 1039 921 1012 c 0,300,301
 921 984 921 984 902 964 c 0,302,303
 882 945 882 945 854 945 c 256,288,289
224 1102 m 256,304,305
 196 1102 196 1102 177 1122 c 0,306,307
 157 1142 157 1142 157 1169 c 0,308,309
 157 1197 157 1197 177 1217 c 0,310,311
 196 1236 196 1236 224 1236 c 256,312,313
 252 1236 252 1236 271 1217 c 0,314,315
 291 1197 291 1197 291 1169 c 0,316,317
 291 1142 291 1142 271 1122 c 0,318,319
 252 1102 252 1102 224 1102 c 256,304,305
539 1102 m 256,320,321
 511 1102 511 1102 492 1122 c 0,322,323
 472 1142 472 1142 472 1169 c 0,324,325
 472 1197 472 1197 492 1217 c 0,326,327
 511 1236 511 1236 539 1236 c 256,328,329
 567 1236 567 1236 586 1217 c 0,330,331
 606 1197 606 1197 606 1169 c 0,332,333
 606 1142 606 1142 586 1122 c 0,334,335
 567 1102 567 1102 539 1102 c 256,320,321
854 1102 m 256,336,337
 826 1102 826 1102 807 1122 c 0,338,339
 787 1142 787 1142 787 1169 c 0,340,341
 787 1197 787 1197 807 1217 c 0,342,343
 826 1236 826 1236 854 1236 c 256,344,345
 882 1236 882 1236 902 1217 c 0,346,347
 921 1197 921 1197 921 1169 c 0,348,349
 921 1142 921 1142 902 1122 c 0,350,351
 882 1102 882 1102 854 1102 c 256,336,337
224 1260 m 256,352,353
 196 1260 196 1260 177 1279 c 0,354,355
 157 1299 157 1299 157 1327 c 0,356,357
 157 1354 157 1354 177 1374 c 0,358,359
 196 1394 196 1394 224 1394 c 256,360,361
 252 1394 252 1394 271 1374 c 0,362,363
 291 1354 291 1354 291 1327 c 0,364,365
 291 1299 291 1299 271 1279 c 0,366,367
 252 1260 252 1260 224 1260 c 256,352,353
539 1260 m 256,368,369
 511 1260 511 1260 492 1279 c 0,370,371
 472 1299 472 1299 472 1327 c 0,372,373
 472 1354 472 1354 492 1374 c 0,374,375
 511 1394 511 1394 539 1394 c 256,376,377
 567 1394 567 1394 586 1374 c 0,378,379
 606 1354 606 1354 606 1327 c 0,380,381
 606 1299 606 1299 586 1279 c 0,382,383
 567 1260 567 1260 539 1260 c 256,368,369
66 1417 m 0,384,385
 39 1417 39 1417 19 1437 c 0,386,387
 0 1457 0 1457 0 1484 c 0,388,389
 0 1512 0 1512 19 1532 c 0,390,391
 39 1551 39 1551 66 1551 c 0,392,393
 94 1551 94 1551 114 1532 c 0,394,395
 133 1512 133 1512 133 1484 c 0,396,397
 133 1457 133 1457 114 1437 c 0,398,399
 94 1417 94 1417 66 1417 c 0,384,385
697 1417 m 0,400,401
 669 1417 669 1417 649 1437 c 0,402,403
 630 1457 630 1457 630 1484 c 0,404,405
 630 1512 630 1512 649 1532 c 0,406,407
 669 1551 669 1551 697 1551 c 0,408,409
 724 1551 724 1551 744 1532 c 0,410,411
 764 1512 764 1512 764 1484 c 0,412,413
 764 1457 764 1457 744 1437 c 256,414,415
 724 1417 724 1417 697 1417 c 0,400,401
66 1575 m 0,416,417
 39 1575 39 1575 19 1594 c 0,418,419
 0 1614 0 1614 0 1642 c 256,420,421
 0 1670 0 1670 19 1689 c 0,422,423
 39 1709 39 1709 66 1709 c 0,424,425
 94 1709 94 1709 114 1689 c 0,426,427
 133 1670 133 1670 133 1642 c 256,428,429
 133 1614 133 1614 114 1594 c 0,430,431
 94 1575 94 1575 66 1575 c 0,416,417
697 1575 m 0,432,433
 669 1575 669 1575 649 1594 c 0,434,435
 630 1614 630 1614 630 1642 c 256,436,437
 630 1670 630 1670 649 1689 c 0,438,439
 669 1709 669 1709 697 1709 c 0,440,441
 724 1709 724 1709 744 1689 c 0,442,443
 764 1670 764 1670 764 1642 c 256,444,445
 764 1614 764 1614 744 1594 c 0,446,447
 724 1575 724 1575 697 1575 c 0,432,433
EndSplineSet
Validated: 1
EndChar

StartChar: percent
Encoding: 37 37 6
Width: 1732
GlyphClass: 1
Flags: W
LayerCount: 2
Fore
SplineSet
1012 0 m 0,0,1
 984 0 984 0 964 19 c 0,2,3
 945 39 945 39 945 66 c 0,4,5
 945 94 945 94 964 114 c 0,6,7
 984 133 984 133 1012 133 c 0,8,9
 1039 133 1039 133 1059 114 c 0,10,11
 1079 94 1079 94 1079 66 c 0,12,13
 1079 39 1079 39 1059 19 c 0,14,15
 1039 0 1039 0 1012 0 c 0,0,1
1169 0 m 0,16,17
 1142 0 1142 0 1122 19 c 0,18,19
 1102 39 1102 39 1102 66 c 0,20,21
 1102 94 1102 94 1122 114 c 0,22,23
 1142 133 1142 133 1169 133 c 0,24,25
 1197 133 1197 133 1217 114 c 0,26,27
 1236 94 1236 94 1236 66 c 0,28,29
 1236 39 1236 39 1217 19 c 0,30,31
 1197 0 1197 0 1169 0 c 0,16,17
1327 0 m 0,32,33
 1299 0 1299 0 1279 19 c 0,34,35
 1260 39 1260 39 1260 66 c 0,36,37
 1260 94 1260 94 1279 114 c 0,38,39
 1299 133 1299 133 1327 133 c 0,40,41
 1354 133 1354 133 1374 114 c 0,42,43
 1394 94 1394 94 1394 66 c 0,44,45
 1394 39 1394 39 1374 19 c 0,46,47
 1354 0 1354 0 1327 0 c 0,32,33
66 157 m 0,48,49
 39 157 39 157 19 177 c 0,50,51
 0 196 0 196 0 224 c 256,52,53
 0 252 0 252 19 271 c 0,54,55
 39 291 39 291 66 291 c 0,56,57
 94 291 94 291 114 271 c 0,58,59
 133 252 133 252 133 224 c 256,60,61
 133 196 133 196 114 177 c 0,62,63
 94 157 94 157 66 157 c 0,48,49
224 157 m 256,64,65
 196 157 196 157 177 177 c 0,66,67
 157 196 157 196 157 224 c 256,68,69
 157 252 157 252 177 271 c 0,70,71
 196 291 196 291 224 291 c 256,72,73
 252 291 252 291 271 271 c 0,74,75
 291 252 291 252 291 224 c 256,76,77
 291 196 291 196 271 177 c 0,78,79
 252 157 252 157 224 157 c 256,64,65
854 157 m 256,80,81
 826 157 826 157 807 177 c 0,82,83
 787 196 787 196 787 224 c 256,84,85
 787 252 787 252 807 271 c 0,86,87
 826 291 826 291 854 291 c 256,88,89
 882 291 882 291 902 271 c 0,90,91
 921 252 921 252 921 224 c 256,92,93
 921 196 921 196 902 177 c 0,94,95
 882 157 882 157 854 157 c 256,80,81
1012 157 m 0,96,97
 984 157 984 157 964 177 c 0,98,99
 945 196 945 196 945 224 c 256,100,101
 945 252 945 252 964 271 c 0,102,103
 984 291 984 291 1012 291 c 0,104,105
 1039 291 1039 291 1059 271 c 0,106,107
 1079 252 1079 252 1079 224 c 256,108,109
 1079 196 1079 196 1059 177 c 0,110,111
 1039 157 1039 157 1012 157 c 0,96,97
1327 157 m 0,112,113
 1299 157 1299 157 1279 177 c 0,114,115
 1260 196 1260 196 1260 224 c 256,116,117
 1260 252 1260 252 1279 271 c 0,118,119
 1299 291 1299 291 1327 291 c 0,120,121
 1354 291 1354 291 1374 271 c 0,122,123
 1394 252 1394 252 1394 224 c 256,124,125
 1394 196 1394 196 1374 177 c 0,126,127
 1354 157 1354 157 1327 157 c 0,112,113
1484 157 m 0,128,129
 1457 157 1457 157 1437 177 c 0,130,131
 1417 196 1417 196 1417 224 c 256,132,133
 1417 252 1417 252 1437 271 c 0,134,135
 1457 291 1457 291 1484 291 c 0,136,137
 1512 291 1512 291 1532 271 c 0,138,139
 1551 252 1551 252 1551 224 c 256,140,141
 1551 196 1551 196 1532 177 c 0,142,143
 1512 157 1512 157 1484 157 c 0,128,129
224 315 m 256,144,145
 196 315 196 315 177 334 c 0,146,147
 157 354 157 354 157 382 c 0,148,149
 157 409 157 409 177 429 c 0,150,151
 196 448 196 448 224 448 c 256,152,153
 252 448 252 448 271 429 c 0,154,155
 291 409 291 409 291 382 c 0,156,157
 291 354 291 354 271 334 c 0,158,159
 252 315 252 315 224 315 c 256,144,145
382 315 m 0,160,161
 354 315 354 315 334 334 c 0,162,163
 315 354 315 354 315 382 c 0,164,165
 315 409 315 409 334 429 c 0,166,167
 354 448 354 448 382 448 c 0,168,169
 409 448 409 448 429 429 c 0,170,171
 448 409 448 409 448 382 c 0,172,173
 448 354 448 354 429 334 c 0,174,175
 409 315 409 315 382 315 c 0,160,161
854 315 m 256,176,177
 826 315 826 315 807 334 c 0,178,179
 787 354 787 354 787 382 c 0,180,181
 787 409 787 409 807 429 c 0,182,183
 826 448 826 448 854 448 c 256,184,185
 882 448 882 448 902 429 c 0,186,187
 921 409 921 409 921 382 c 0,188,189
 921 354 921 354 902 334 c 0,190,191
 882 315 882 315 854 315 c 256,176,177
1012 315 m 0,192,193
 984 315 984 315 964 334 c 0,194,195
 945 354 945 354 945 382 c 0,196,197
 945 409 945 409 964 429 c 0,198,199
 984 448 984 448 1012 448 c 0,200,201
 1039 448 1039 448 1059 429 c 0,202,203
 1079 409 1079 409 1079 382 c 0,204,205
 1079 354 1079 354 1059 334 c 0,206,207
 1039 315 1039 315 1012 315 c 0,192,193
1327 315 m 0,208,209
 1299 315 1299 315 1279 334 c 0,210,211
 1260 354 1260 354 1260 382 c 0,212,213
 1260 409 1260 409 1279 429 c 0,214,215
 1299 448 1299 448 1327 448 c 0,216,217
 1354 448 1354 448 1374 429 c 0,218,219
 1394 409 1394 409 1394 382 c 0,220,221
 1394 354 1394 354 1374 334 c 0,222,223
 1354 315 1354 315 1327 315 c 0,208,209
1484 315 m 0,224,225
 1457 315 1457 315 1437 334 c 0,226,227
 1417 354 1417 354 1417 382 c 0,228,229
 1417 409 1417 409 1437 429 c 0,230,231
 1457 448 1457 448 1484 448 c 0,232,233
 1512 448 1512 448 1532 429 c 0,234,235
 1551 409 1551 409 1551 382 c 0,236,237
 1551 354 1551 354 1532 334 c 0,238,239
 1512 315 1512 315 1484 315 c 0,224,225
382 472 m 0,240,241
 354 472 354 472 334 492 c 0,242,243
 315 511 315 511 315 539 c 256,244,245
 315 567 315 567 334 586 c 0,246,247
 354 606 354 606 382 606 c 0,248,249
 409 606 409 606 429 586 c 0,250,251
 448 567 448 567 448 539 c 256,252,253
 448 511 448 511 429 492 c 0,254,255
 409 472 409 472 382 472 c 0,240,241
539 472 m 256,256,257
 511 472 511 472 492 492 c 0,258,259
 472 511 472 511 472 539 c 256,260,261
 472 567 472 567 492 586 c 0,262,263
 511 606 511 606 539 606 c 256,264,265
 567 606 567 606 586 586 c 0,266,267
 606 567 606 567 606 539 c 256,268,269
 606 511 606 511 586 492 c 0,270,271
 567 472 567 472 539 472 c 256,256,257
1012 472 m 0,272,273
 984 472 984 472 964 492 c 0,274,275
 945 511 945 511 945 539 c 256,276,277
 945 567 945 567 964 586 c 0,278,279
 984 606 984 606 1012 606 c 0,280,281
 1039 606 1039 606 1059 586 c 0,282,283
 1079 567 1079 567 1079 539 c 256,284,285
 1079 511 1079 511 1059 492 c 0,286,287
 1039 472 1039 472 1012 472 c 0,272,273
1169 472 m 0,288,289
 1142 472 1142 472 1122 492 c 0,290,291
 1102 511 1102 511 1102 539 c 256,292,293
 1102 567 1102 567 1122 586 c 0,294,295
 1142 606 1142 606 1169 606 c 0,296,297
 1197 606 1197 606 1217 586 c 0,298,299
 1236 567 1236 567 1236 539 c 256,300,301
 1236 511 1236 511 1217 492 c 0,302,303
 1197 472 1197 472 1169 472 c 0,288,289
1327 472 m 0,304,305
 1299 472 1299 472 1279 492 c 0,306,307
 1260 511 1260 511 1260 539 c 256,308,309
 1260 567 1260 567 1279 586 c 0,310,311
 1299 606 1299 606 1327 606 c 0,312,313
 1354 606 1354 606 1374 586 c 0,314,315
 1394 567 1394 567 1394 539 c 256,316,317
 1394 511 1394 511 1374 492 c 0,318,319
 1354 472 1354 472 1327 472 c 0,304,305
539 630 m 256,320,321
 511 630 511 630 492 649 c 0,322,323
 472 669 472 669 472 697 c 0,324,325
 472 724 472 724 492 744 c 0,326,327
 511 764 511 764 539 764 c 256,328,329
 567 764 567 764 586 744 c 0,330,331
 606 724 606 724 606 697 c 0,332,333
 606 669 606 669 586 649 c 0,334,335
 567 630 567 630 539 630 c 256,320,321
697 630 m 0,336,337
 669 630 669 630 649 649 c 0,338,339
 630 669 630 669 630 697 c 0,340,341
 630 724 630 724 649 744 c 0,342,343
 669 764 669 764 697 764 c 0,344,345
 724 764 724 764 744 744 c 256,346,347
 764 724 764 724 764 697 c 0,348,349
 764 669 764 669 744 649 c 0,350,351
 724 630 724 630 697 630 c 0,336,337
697 787 m 0,352,353
 669 787 669 787 649 807 c 0,354,355
 630 826 630 826 630 854 c 256,356,357
 630 882 630 882 649 902 c 0,358,359
 669 921 669 921 697 921 c 0,360,361
 724 921 724 921 744 902 c 0,362,363
 764 882 764 882 764 854 c 256,364,365
 764 826 764 826 744 807 c 0,366,367
 724 787 724 787 697 787 c 0,352,353
854 787 m 256,368,369
 826 787 826 787 807 807 c 0,370,371
 787 826 787 826 787 854 c 256,372,373
 787 882 787 882 807 902 c 0,374,375
 826 921 826 921 854 921 c 256,376,377
 882 921 882 921 902 902 c 0,378,379
 921 882 921 882 921 854 c 256,380,381
 921 826 921 826 902 807 c 0,382,383
 882 787 882 787 854 787 c 256,368,369
854 945 m 256,384,385
 826 945 826 945 807 964 c 0,386,387
 787 984 787 984 787 1012 c 0,388,389
 787 1039 787 1039 807 1059 c 0,390,391
 826 1079 826 1079 854 1079 c 256,392,393
 882 1079 882 1079 902 1059 c 0,394,395
 921 1039 921 1039 921 1012 c 0,396,397
 921 984 921 984 902 964 c 0,398,399
 882 945 882 945 854 945 c 256,384,385
1012 945 m 0,400,401
 984 945 984 945 964 964 c 0,402,403
 945 984 945 984 945 1012 c 0,404,405
 945 1039 945 1039 964 1059 c 0,406,407
 984 1079 984 1079 1012 1079 c 0,408,409
 1039 1079 1039 1079 1059 1059 c 256,410,411
 1079 1039 1079 1039 1079 1012 c 0,412,413
 1079 984 1079 984 1059 964 c 0,414,415
 1039 945 1039 945 1012 945 c 0,400,401
224 1102 m 256,416,417
 196 1102 196 1102 177 1122 c 0,418,419
 157 1142 157 1142 157 1169 c 0,420,421
 157 1197 157 1197 177 1217 c 0,422,423
 196 1236 196 1236 224 1236 c 256,424,425
 252 1236 252 1236 271 1217 c 0,426,427
 291 1197 291 1197 291 1169 c 0,428,429
 291 1142 291 1142 271 1122 c 0,430,431
 252 1102 252 1102 224 1102 c 256,416,417
382 1102 m 0,432,433
 354 1102 354 1102 334 1122 c 0,434,435
 315 1142 315 1142 315 1169 c 0,436,437
 315 1197 315 1197 334 1217 c 0,438,439
 354 1236 354 1236 382 1236 c 0,440,441
 409 1236 409 1236 429 1217 c 0,442,443
 448 1197 448 1197 448 1169 c 0,444,445
 448 1142 448 1142 429 1122 c 0,446,447
 409 1102 409 1102 382 1102 c 0,432,433
539 1102 m 256,448,449
 511 1102 511 1102 492 1122 c 0,450,451
 472 1142 472 1142 472 1169 c 0,452,453
 472 1197 472 1197 492 1217 c 0,454,455
 511 1236 511 1236 539 1236 c 256,456,457
 567 1236 567 1236 586 1217 c 0,458,459
 606 1197 606 1197 606 1169 c 0,460,461
 606 1142 606 1142 586 1122 c 0,462,463
 567 1102 567 1102 539 1102 c 256,448,449
1012 1102 m 0,464,465
 984 1102 984 1102 964 1122 c 0,466,467
 945 1142 945 1142 945 1169 c 0,468,469
 945 1197 945 1197 964 1217 c 0,470,471
 984 1236 984 1236 1012 1236 c 0,472,473
 1039 1236 1039 1236 1059 1217 c 0,474,475
 1079 1197 1079 1197 1079 1169 c 0,476,477
 1079 1142 1079 1142 1059 1122 c 256,478,479
 1039 1102 1039 1102 1012 1102 c 0,464,465
1169 1102 m 0,480,481
 1142 1102 1142 1102 1122 1122 c 256,482,483
 1102 1142 1102 1142 1102 1169 c 0,484,485
 1102 1197 1102 1197 1122 1217 c 0,486,487
 1142 1236 1142 1236 1169 1236 c 0,488,489
 1197 1236 1197 1236 1217 1217 c 0,490,491
 1236 1197 1236 1197 1236 1169 c 0,492,493
 1236 1142 1236 1142 1217 1122 c 0,494,495
 1197 1102 1197 1102 1169 1102 c 0,480,481
66 1260 m 0,496,497
 39 1260 39 1260 19 1279 c 0,498,499
 0 1299 0 1299 0 1327 c 0,500,501
 0 1354 0 1354 19 1374 c 0,502,503
 39 1394 39 1394 66 1394 c 0,504,505
 94 1394 94 1394 114 1374 c 0,506,507
 133 1354 133 1354 133 1327 c 0,508,509
 133 1299 133 1299 114 1279 c 0,510,511
 94 1260 94 1260 66 1260 c 0,496,497
224 1260 m 256,512,513
 196 1260 196 1260 177 1279 c 0,514,515
 157 1299 157 1299 157 1327 c 0,516,517
 157 1354 157 1354 177 1374 c 0,518,519
 196 1394 196 1394 224 1394 c 256,520,521
 252 1394 252 1394 271 1374 c 0,522,523
 291 1354 291 1354 291 1327 c 0,524,525
 291 1299 291 1299 271 1279 c 0,526,527
 252 1260 252 1260 224 1260 c 256,512,513
539 1260 m 256,528,529
 511 1260 511 1260 492 1279 c 0,530,531
 472 1299 472 1299 472 1327 c 0,532,533
 472 1354 472 1354 492 1374 c 0,534,535
 511 1394 511 1394 539 1394 c 256,536,537
 567 1394 567 1394 586 1374 c 0,538,539
 606 1354 606 1354 606 1327 c 0,540,541
 606 1299 606 1299 586 1279 c 0,542,543
 567 1260 567 1260 539 1260 c 256,528,529
697 1260 m 0,544,545
 669 1260 669 1260 649 1279 c 0,546,547
 630 1299 630 1299 630 1327 c 0,548,549
 630 1354 630 1354 649 1374 c 0,550,551
 669 1394 669 1394 697 1394 c 0,552,553
 724 1394 724 1394 744 1374 c 256,554,555
 764 1354 764 1354 764 1327 c 0,556,557
 764 1299 764 1299 744 1279 c 0,558,559
 724 1260 724 1260 697 1260 c 0,544,545
1169 1260 m 0,560,561
 1142 1260 1142 1260 1122 1279 c 0,562,563
 1102 1299 1102 1299 1102 1327 c 0,564,565
 1102 1354 1102 1354 1122 1374 c 256,566,567
 1142 1394 1142 1394 1169 1394 c 0,568,569
 1197 1394 1197 1394 1217 1374 c 0,570,571
 1236 1354 1236 1354 1236 1327 c 0,572,573
 1236 1299 1236 1299 1217 1279 c 0,574,575
 1197 1260 1197 1260 1169 1260 c 0,560,561
1327 1260 m 0,576,577
 1299 1260 1299 1260 1279 1279 c 0,578,579
 1260 1299 1260 1299 1260 1327 c 0,580,581
 1260 1354 1260 1354 1279 1374 c 0,582,583
 1299 1394 1299 1394 1327 1394 c 0,584,585
 1354 1394 1354 1394 1374 1374 c 256,586,587
 1394 1354 1394 1354 1394 1327 c 0,588,589
 1394 1299 1394 1299 1374 1279 c 0,590,591
 1354 1260 1354 1260 1327 1260 c 0,576,577
66 1417 m 0,592,593
 39 1417 39 1417 19 1437 c 0,594,595
 0 1457 0 1457 0 1484 c 0,596,597
 0 1512 0 1512 19 1532 c 0,598,599
 39 1551 39 1551 66 1551 c 0,600,601
 94 1551 94 1551 114 1532 c 0,602,603
 133 1512 133 1512 133 1484 c 0,604,605
 133 1457 133 1457 114 1437 c 0,606,607
 94 1417 94 1417 66 1417 c 0,592,593
224 1417 m 256,608,609
 196 1417 196 1417 177 1437 c 0,610,611
 157 1457 157 1457 157 1484 c 0,612,613
 157 1512 157 1512 177 1532 c 0,614,615
 196 1551 196 1551 224 1551 c 256,616,617
 252 1551 252 1551 271 1532 c 0,618,619
 291 1512 291 1512 291 1484 c 0,620,621
 291 1457 291 1457 271 1437 c 0,622,623
 252 1417 252 1417 224 1417 c 256,608,609
539 1417 m 256,624,625
 511 1417 511 1417 492 1437 c 0,626,627
 472 1457 472 1457 472 1484 c 0,628,629
 472 1512 472 1512 492 1532 c 0,630,631
 511 1551 511 1551 539 1551 c 256,632,633
 567 1551 567 1551 586 1532 c 0,634,635
 606 1512 606 1512 606 1484 c 0,636,637
 606 1457 606 1457 586 1437 c 0,638,639
 567 1417 567 1417 539 1417 c 256,624,625
697 1417 m 0,640,641
 669 1417 669 1417 649 1437 c 0,642,643
 630 1457 630 1457 630 1484 c 0,644,645
 630 1512 630 1512 649 1532 c 0,646,647
 669 1551 669 1551 697 1551 c 0,648,649
 724 1551 724 1551 744 1532 c 0,650,651
 764 1512 764 1512 764 1484 c 0,652,653
 764 1457 764 1457 744 1437 c 256,654,655
 724 1417 724 1417 697 1417 c 0,640,641
1327 1417 m 0,656,657
 1299 1417 1299 1417 1279 1437 c 0,658,659
 1260 1457 1260 1457 1260 1484 c 0,660,661
 1260 1512 1260 1512 1279 1532 c 0,662,663
 1299 1551 1299 1551 1327 1551 c 0,664,665
 1354 1551 1354 1551 1374 1532 c 0,666,667
 1394 1512 1394 1512 1394 1484 c 0,668,669
 1394 1457 1394 1457 1374 1437 c 256,670,671
 1354 1417 1354 1417 1327 1417 c 0,656,657
1484 1417 m 0,672,673
 1457 1417 1457 1417 1437 1437 c 256,674,675
 1417 1457 1417 1457 1417 1484 c 0,676,677
 1417 1512 1417 1512 1437 1532 c 0,678,679
 1457 1551 1457 1551 1484 1551 c 0,680,681
 1512 1551 1512 1551 1532 1532 c 0,682,683
 1551 1512 1551 1512 1551 1484 c 0,684,685
 1551 1457 1551 1457 1532 1437 c 0,686,687
 1512 1417 1512 1417 1484 1417 c 0,672,673
224 1575 m 256,688,689
 196 1575 196 1575 177 1594 c 0,690,691
 157 1614 157 1614 157 1642 c 256,692,693
 157 1670 157 1670 177 1689 c 0,694,695
 196 1709 196 1709 224 1709 c 256,696,697
 252 1709 252 1709 271 1689 c 0,698,699
 291 1670 291 1670 291 1642 c 256,700,701
 291 1614 291 1614 271 1594 c 0,702,703
 252 1575 252 1575 224 1575 c 256,688,689
382 1575 m 0,704,705
 354 1575 354 1575 334 1594 c 0,706,707
 315 1614 315 1614 315 1642 c 256,708,709
 315 1670 315 1670 334 1689 c 0,710,711
 354 1709 354 1709 382 1709 c 0,712,713
 409 1709 409 1709 429 1689 c 0,714,715
 448 1670 448 1670 448 1642 c 256,716,717
 448 1614 448 1614 429 1594 c 0,718,719
 409 1575 409 1575 382 1575 c 0,704,705
539 1575 m 256,720,721
 511 1575 511 1575 492 1594 c 0,722,723
 472 1614 472 1614 472 1642 c 256,724,725
 472 1670 472 1670 492 1689 c 0,726,727
 511 1709 511 1709 539 1709 c 256,728,729
 567 1709 567 1709 586 1689 c 0,730,731
 606 1670 606 1670 606 1642 c 256,732,733
 606 1614 606 1614 586 1594 c 0,734,735
 567 1575 567 1575 539 1575 c 256,720,721
EndSplineSet
Validated: 1
EndChar

StartChar: ampersand
Encoding: 38 38 7
Width: 1575
GlyphClass: 1
Flags: W
LayerCount: 2
Fore
SplineSet
224 0 m 256,0,1
 196 0 196 0 177 19 c 0,2,3
 157 39 157 39 157 66 c 0,4,5
 157 94 157 94 177 114 c 0,6,7
 196 133 196 133 224 133 c 256,8,9
 252 133 252 133 271 114 c 0,10,11
 291 94 291 94 291 66 c 0,12,13
 291 39 291 39 271 19 c 0,14,15
 252 0 252 0 224 0 c 256,0,1
382 0 m 0,16,17
 354 0 354 0 334 19 c 0,18,19
 315 39 315 39 315 66 c 0,20,21
 315 94 315 94 334 114 c 0,22,23
 354 133 354 133 382 133 c 0,24,25
 409 133 409 133 429 114 c 0,26,27
 448 94 448 94 448 66 c 0,28,29
 448 39 448 39 429 19 c 0,30,31
 409 0 409 0 382 0 c 0,16,17
539 0 m 256,32,33
 511 0 511 0 492 19 c 0,34,35
 472 39 472 39 472 66 c 0,36,37
 472 94 472 94 492 114 c 0,38,39
 511 133 511 133 539 133 c 256,40,41
 567 133 567 133 586 114 c 0,42,43
 606 94 606 94 606 66 c 0,44,45
 606 39 606 39 586 19 c 0,46,47
 567 0 567 0 539 0 c 256,32,33
697 0 m 0,48,49
 669 0 669 0 649 19 c 0,50,51
 630 39 630 39 630 66 c 0,52,53
 630 94 630 94 649 114 c 0,54,55
 669 133 669 133 697 133 c 0,56,57
 724 133 724 133 744 114 c 0,58,59
 764 94 764 94 764 66 c 0,60,61
 764 39 764 39 744 19 c 0,62,63
 724 0 724 0 697 0 c 0,48,49
854 0 m 256,64,65
 826 0 826 0 807 19 c 0,66,67
 787 39 787 39 787 66 c 0,68,69
 787 94 787 94 807 114 c 0,70,71
 826 133 826 133 854 133 c 256,72,73
 882 133 882 133 902 114 c 0,74,75
 921 94 921 94 921 66 c 0,76,77
 921 39 921 39 902 19 c 0,78,79
 882 0 882 0 854 0 c 256,64,65
1169 0 m 0,80,81
 1142 0 1142 0 1122 19 c 0,82,83
 1102 39 1102 39 1102 66 c 0,84,85
 1102 94 1102 94 1122 114 c 0,86,87
 1142 133 1142 133 1169 133 c 0,88,89
 1197 133 1197 133 1217 114 c 0,90,91
 1236 94 1236 94 1236 66 c 0,92,93
 1236 39 1236 39 1217 19 c 0,94,95
 1197 0 1197 0 1169 0 c 0,80,81
1327 0 m 0,96,97
 1299 0 1299 0 1279 19 c 0,98,99
 1260 39 1260 39 1260 66 c 0,100,101
 1260 94 1260 94 1279 114 c 0,102,103
 1299 133 1299 133 1327 133 c 0,104,105
 1354 133 1354 133 1374 114 c 0,106,107
 1394 94 1394 94 1394 66 c 0,108,109
 1394 39 1394 39 1374 19 c 0,110,111
 1354 0 1354 0 1327 0 c 0,96,97
66 157 m 0,112,113
 39 157 39 157 19 177 c 0,114,115
 0 196 0 196 0 224 c 256,116,117
 0 252 0 252 19 271 c 0,118,119
 39 291 39 291 66 291 c 0,120,121
 94 291 94 291 114 271 c 0,122,123
 133 252 133 252 133 224 c 256,124,125
 133 196 133 196 114 177 c 0,126,127
 94 157 94 157 66 157 c 0,112,113
224 157 m 256,128,129
 196 157 196 157 177 177 c 0,130,131
 157 196 157 196 157 224 c 256,132,133
 157 252 157 252 177 271 c 0,134,135
 196 291 196 291 224 291 c 256,136,137
 252 291 252 291 271 271 c 0,138,139
 291 252 291 252 291 224 c 256,140,141
 291 196 291 196 271 177 c 0,142,143
 252 157 252 157 224 157 c 256,128,129
382 157 m 0,144,145
 354 157 354 157 334 177 c 0,146,147
 315 196 315 196 315 224 c 256,148,149
 315 252 315 252 334 271 c 0,150,151
 354 291 354 291 382 291 c 0,152,153
 409 291 409 291 429 271 c 0,154,155
 448 252 448 252 448 224 c 256,156,157
 448 196 448 196 429 177 c 0,158,159
 409 157 409 157 382 157 c 0,144,145
539 157 m 256,160,161
 511 157 511 157 492 177 c 0,162,163
 472 196 472 196 472 224 c 256,164,165
 472 252 472 252 492 271 c 0,166,167
 511 291 511 291 539 291 c 256,168,169
 567 291 567 291 586 271 c 0,170,171
 606 252 606 252 606 224 c 256,172,173
 606 196 606 196 586 177 c 0,174,175
 567 157 567 157 539 157 c 256,160,161
697 157 m 0,176,177
 669 157 669 157 649 177 c 0,178,179
 630 196 630 196 630 224 c 256,180,181
 630 252 630 252 649 271 c 0,182,183
 669 291 669 291 697 291 c 0,184,185
 724 291 724 291 744 271 c 0,186,187
 764 252 764 252 764 224 c 256,188,189
 764 196 764 196 744 177 c 0,190,191
 724 157 724 157 697 157 c 0,176,177
854 157 m 256,192,193
 826 157 826 157 807 177 c 0,194,195
 787 196 787 196 787 224 c 256,196,197
 787 252 787 252 807 271 c 0,198,199
 826 291 826 291 854 291 c 256,200,201
 882 291 882 291 902 271 c 0,202,203
 921 252 921 252 921 224 c 256,204,205
 921 196 921 196 902 177 c 0,206,207
 882 157 882 157 854 157 c 256,192,193
1012 157 m 0,208,209
 984 157 984 157 964 177 c 0,210,211
 945 196 945 196 945 224 c 256,212,213
 945 252 945 252 964 271 c 0,214,215
 984 291 984 291 1012 291 c 0,216,217
 1039 291 1039 291 1059 271 c 0,218,219
 1079 252 1079 252 1079 224 c 256,220,221
 1079 196 1079 196 1059 177 c 0,222,223
 1039 157 1039 157 1012 157 c 0,208,209
1169 157 m 0,224,225
 1142 157 1142 157 1122 177 c 0,226,227
 1102 196 1102 196 1102 224 c 256,228,229
 1102 252 1102 252 1122 271 c 0,230,231
 1142 291 1142 291 1169 291 c 0,232,233
 1197 291 1197 291 1217 271 c 0,234,235
 1236 252 1236 252 1236 224 c 256,236,237
 1236 196 1236 196 1217 177 c 0,238,239
 1197 157 1197 157 1169 157 c 0,224,225
66 315 m 0,240,241
 39 315 39 315 19 334 c 0,242,243
 0 354 0 354 0 382 c 0,244,245
 0 409 0 409 19 429 c 0,246,247
 39 448 39 448 66 448 c 0,248,249
 94 448 94 448 114 429 c 0,250,251
 133 409 133 409 133 382 c 0,252,253
 133 354 133 354 114 334 c 0,254,255
 94 315 94 315 66 315 c 0,240,241
224 315 m 256,256,257
 196 315 196 315 177 334 c 0,258,259
 157 354 157 354 157 382 c 0,260,261
 157 409 157 409 177 429 c 0,262,263
 196 448 196 448 224 448 c 256,264,265
 252 448 252 448 271 429 c 0,266,267
 291 409 291 409 291 382 c 0,268,269
 291 354 291 354 271 334 c 0,270,271
 252 315 252 315 224 315 c 256,256,257
854 315 m 256,272,273
 826 315 826 315 807 334 c 0,274,275
 787 354 787 354 787 382 c 0,276,277
 787 409 787 409 807 429 c 0,278,279
 826 448 826 448 854 448 c 256,280,281
 882 448 882 448 902 429 c 0,282,283
 921 409 921 409 921 382 c 0,284,285
 921 354 921 354 902 334 c 0,286,287
 882 315 882 315 854 315 c 256,272,273
1012 315 m 0,288,289
 984 315 984 315 964 334 c 0,290,291
 945 354 945 354 945 382 c 0,292,293
 945 409 945 409 964 429 c 0,294,295
 984 448 984 448 1012 448 c 0,296,297
 1039 448 1039 448 1059 429 c 0,298,299
 1079 409 1079 409 1079 382 c 0,300,301
 1079 354 1079 354 1059 334 c 0,302,303
 1039 315 1039 315 1012 315 c 0,288,289
1169 315 m 0,304,305
 1142 315 1142 315 1122 334 c 0,306,307
 1102 354 1102 354 1102 382 c 0,308,309
 1102 409 1102 409 1122 429 c 0,310,311
 1142 448 1142 448 1169 448 c 0,312,313
 1197 448 1197 448 1217 429 c 0,314,315
 1236 409 1236 409 1236 382 c 0,316,317
 1236 354 1236 354 1217 334 c 0,318,319
 1197 315 1197 315 1169 315 c 0,304,305
66 472 m 0,320,321
 39 472 39 472 19 492 c 0,322,323
 0 511 0 511 0 539 c 256,324,325
 0 567 0 567 19 586 c 0,326,327
 39 606 39 606 66 606 c 0,328,329
 94 606 94 606 114 586 c 0,330,331
 133 567 133 567 133 539 c 256,332,333
 133 511 133 511 114 492 c 0,334,335
 94 472 94 472 66 472 c 0,320,321
224 472 m 256,336,337
 196 472 196 472 177 492 c 0,338,339
 157 511 157 511 157 539 c 256,340,341
 157 567 157 567 177 586 c 0,342,343
 196 606 196 606 224 606 c 256,344,345
 252 606 252 606 271 586 c 0,346,347
 291 567 291 567 291 539 c 256,348,349
 291 511 291 511 271 492 c 0,350,351
 252 472 252 472 224 472 c 256,336,337
697 472 m 0,352,353
 669 472 669 472 649 492 c 0,354,355
 630 511 630 511 630 539 c 256,356,357
 630 567 630 567 649 586 c 0,358,359
 669 606 669 606 697 606 c 0,360,361
 724 606 724 606 744 586 c 0,362,363
 764 567 764 567 764 539 c 256,364,365
 764 511 764 511 744 492 c 0,366,367
 724 472 724 472 697 472 c 0,352,353
854 472 m 256,368,369
 826 472 826 472 807 492 c 0,370,371
 787 511 787 511 787 539 c 256,372,373
 787 567 787 567 807 586 c 0,374,375
 826 606 826 606 854 606 c 256,376,377
 882 606 882 606 902 586 c 0,378,379
 921 567 921 567 921 539 c 256,380,381
 921 511 921 511 902 492 c 0,382,383
 882 472 882 472 854 472 c 256,368,369
1012 472 m 0,384,385
 984 472 984 472 964 492 c 0,386,387
 945 511 945 511 945 539 c 256,388,389
 945 567 945 567 964 586 c 0,390,391
 984 606 984 606 1012 606 c 0,392,393
 1039 606 1039 606 1059 586 c 0,394,395
 1079 567 1079 567 1079 539 c 256,396,397
 1079 511 1079 511 1059 492 c 0,398,399
 1039 472 1039 472 1012 472 c 0,384,385
1169 472 m 0,400,401
 1142 472 1142 472 1122 492 c 0,402,403
 1102 511 1102 511 1102 539 c 256,404,405
 1102 567 1102 567 1122 586 c 0,406,407
 1142 606 1142 606 1169 606 c 0,408,409
 1197 606 1197 606 1217 586 c 0,410,411
 1236 567 1236 567 1236 539 c 256,412,413
 1236 511 1236 511 1217 492 c 0,414,415
 1197 472 1197 472 1169 472 c 0,400,401
224 630 m 256,416,417
 196 630 196 630 177 649 c 0,418,419
 157 669 157 669 157 697 c 0,420,421
 157 724 157 724 177 744 c 0,422,423
 196 764 196 764 224 764 c 256,424,425
 252 764 252 764 271 744 c 0,426,427
 291 724 291 724 291 697 c 0,428,429
 291 669 291 669 271 649 c 0,430,431
 252 630 252 630 224 630 c 256,416,417
382 630 m 0,432,433
 354 630 354 630 334 649 c 0,434,435
 315 669 315 669 315 697 c 0,436,437
 315 724 315 724 334 744 c 0,438,439
 354 764 354 764 382 764 c 0,440,441
 409 764 409 764 429 744 c 0,442,443
 448 724 448 724 448 697 c 0,444,445
 448 669 448 669 429 649 c 0,446,447
 409 630 409 630 382 630 c 0,432,433
539 630 m 256,448,449
 511 630 511 630 492 649 c 0,450,451
 472 669 472 669 472 697 c 0,452,453
 472 724 472 724 492 744 c 0,454,455
 511 764 511 764 539 764 c 256,456,457
 567 764 567 764 586 744 c 0,458,459
 606 724 606 724 606 697 c 0,460,461
 606 669 606 669 586 649 c 0,462,463
 567 630 567 630 539 630 c 256,448,449
697 630 m 0,464,465
 669 630 669 630 649 649 c 0,466,467
 630 669 630 669 630 697 c 0,468,469
 630 724 630 724 649 744 c 0,470,471
 669 764 669 764 697 764 c 0,472,473
 724 764 724 764 744 744 c 256,474,475
 764 724 764 724 764 697 c 0,476,477
 764 669 764 669 744 649 c 0,478,479
 724 630 724 630 697 630 c 0,464,465
854 630 m 256,480,481
 826 630 826 630 807 649 c 0,482,483
 787 669 787 669 787 697 c 0,484,485
 787 724 787 724 807 744 c 0,486,487
 826 764 826 764 854 764 c 256,488,489
 882 764 882 764 902 744 c 0,490,491
 921 724 921 724 921 697 c 0,492,493
 921 669 921 669 902 649 c 0,494,495
 882 630 882 630 854 630 c 256,480,481
1169 630 m 0,496,497
 1142 630 1142 630 1122 649 c 0,498,499
 1102 669 1102 669 1102 697 c 0,500,501
 1102 724 1102 724 1122 744 c 256,502,503
 1142 764 1142 764 1169 764 c 0,504,505
 1197 764 1197 764 1217 744 c 0,506,507
 1236 724 1236 724 1236 697 c 0,508,509
 1236 669 1236 669 1217 649 c 0,510,511
 1197 630 1197 630 1169 630 c 0,496,497
1327 630 m 0,512,513
 1299 630 1299 630 1279 649 c 0,514,515
 1260 669 1260 669 1260 697 c 0,516,517
 1260 724 1260 724 1279 744 c 0,518,519
 1299 764 1299 764 1327 764 c 0,520,521
 1354 764 1354 764 1374 744 c 256,522,523
 1394 724 1394 724 1394 697 c 0,524,525
 1394 669 1394 669 1374 649 c 0,526,527
 1354 630 1354 630 1327 630 c 0,512,513
382 787 m 0,528,529
 354 787 354 787 334 807 c 0,530,531
 315 826 315 826 315 854 c 256,532,533
 315 882 315 882 334 902 c 0,534,535
 354 921 354 921 382 921 c 0,536,537
 409 921 409 921 429 902 c 0,538,539
 448 882 448 882 448 854 c 256,540,541
 448 826 448 826 429 807 c 0,542,543
 409 787 409 787 382 787 c 0,528,529
539 787 m 256,544,545
 511 787 511 787 492 807 c 0,546,547
 472 826 472 826 472 854 c 256,548,549
 472 882 472 882 492 902 c 0,550,551
 511 921 511 921 539 921 c 256,552,553
 567 921 567 921 586 902 c 0,554,555
 606 882 606 882 606 854 c 256,556,557
 606 826 606 826 586 807 c 0,558,559
 567 787 567 787 539 787 c 256,544,545
697 787 m 0,560,561
 669 787 669 787 649 807 c 0,562,563
 630 826 630 826 630 854 c 256,564,565
 630 882 630 882 649 902 c 0,566,567
 669 921 669 921 697 921 c 0,568,569
 724 921 724 921 744 902 c 0,570,571
 764 882 764 882 764 854 c 256,572,573
 764 826 764 826 744 807 c 0,574,575
 724 787 724 787 697 787 c 0,560,561
1327 787 m 0,576,577
 1299 787 1299 787 1279 807 c 0,578,579
 1260 826 1260 826 1260 854 c 256,580,581
 1260 882 1260 882 1279 902 c 0,582,583
 1299 921 1299 921 1327 921 c 0,584,585
 1354 921 1354 921 1374 902 c 0,586,587
 1394 882 1394 882 1394 854 c 256,588,589
 1394 826 1394 826 1374 807 c 0,590,591
 1354 787 1354 787 1327 787 c 0,576,577
224 945 m 256,592,593
 196 945 196 945 177 964 c 0,594,595
 157 984 157 984 157 1012 c 0,596,597
 157 1039 157 1039 177 1059 c 0,598,599
 196 1079 196 1079 224 1079 c 256,600,601
 252 1079 252 1079 271 1059 c 0,602,603
 291 1039 291 1039 291 1012 c 0,604,605
 291 984 291 984 271 964 c 0,606,607
 252 945 252 945 224 945 c 256,592,593
382 945 m 0,608,609
 354 945 354 945 334 964 c 0,610,611
 315 984 315 984 315 1012 c 0,612,613
 315 1039 315 1039 334 1059 c 0,614,615
 354 1079 354 1079 382 1079 c 0,616,617
 409 1079 409 1079 429 1059 c 0,618,619
 448 1039 448 1039 448 1012 c 0,620,621
 448 984 448 984 429 964 c 0,622,623
 409 945 409 945 382 945 c 0,608,609
539 945 m 256,624,625
 511 945 511 945 492 964 c 0,626,627
 472 984 472 984 472 1012 c 0,628,629
 472 1039 472 1039 492 1059 c 0,630,631
 511 1079 511 1079 539 1079 c 256,632,633
 567 1079 567 1079 586 1059 c 0,634,635
 606 1039 606 1039 606 1012 c 0,636,637
 606 984 606 984 586 964 c 0,638,639
 567 945 567 945 539 945 c 256,624,625
697 945 m 0,640,641
 669 945 669 945 649 964 c 0,642,643
 630 984 630 984 630 1012 c 0,644,645
 630 1039 630 1039 649 1059 c 0,646,647
 669 1079 669 1079 697 1079 c 0,648,649
 724 1079 724 1079 744 1059 c 256,650,651
 764 1039 764 1039 764 1012 c 0,652,653
 764 984 764 984 744 964 c 0,654,655
 724 945 724 945 697 945 c 0,640,641
66 1102 m 0,656,657
 39 1102 39 1102 19 1122 c 0,658,659
 0 1142 0 1142 0 1169 c 0,660,661
 0 1197 0 1197 19 1217 c 0,662,663
 39 1236 39 1236 66 1236 c 0,664,665
 94 1236 94 1236 114 1217 c 0,666,667
 133 1197 133 1197 133 1169 c 0,668,669
 133 1142 133 1142 114 1122 c 0,670,671
 94 1102 94 1102 66 1102 c 0,656,657
224 1102 m 256,672,673
 196 1102 196 1102 177 1122 c 0,674,675
 157 1142 157 1142 157 1169 c 0,676,677
 157 1197 157 1197 177 1217 c 0,678,679
 196 1236 196 1236 224 1236 c 256,680,681
 252 1236 252 1236 271 1217 c 0,682,683
 291 1197 291 1197 291 1169 c 0,684,685
 291 1142 291 1142 271 1122 c 0,686,687
 252 1102 252 1102 224 1102 c 256,672,673
697 1102 m 0,688,689
 669 1102 669 1102 649 1122 c 0,690,691
 630 1142 630 1142 630 1169 c 0,692,693
 630 1197 630 1197 649 1217 c 0,694,695
 669 1236 669 1236 697 1236 c 0,696,697
 724 1236 724 1236 744 1217 c 0,698,699
 764 1197 764 1197 764 1169 c 0,700,701
 764 1142 764 1142 744 1122 c 256,702,703
 724 1102 724 1102 697 1102 c 0,688,689
854 1102 m 256,704,705
 826 1102 826 1102 807 1122 c 0,706,707
 787 1142 787 1142 787 1169 c 0,708,709
 787 1197 787 1197 807 1217 c 0,710,711
 826 1236 826 1236 854 1236 c 256,712,713
 882 1236 882 1236 902 1217 c 0,714,715
 921 1197 921 1197 921 1169 c 0,716,717
 921 1142 921 1142 902 1122 c 0,718,719
 882 1102 882 1102 854 1102 c 256,704,705
66 1260 m 0,720,721
 39 1260 39 1260 19 1279 c 0,722,723
 0 1299 0 1299 0 1327 c 0,724,725
 0 1354 0 1354 19 1374 c 0,726,727
 39 1394 39 1394 66 1394 c 0,728,729
 94 1394 94 1394 114 1374 c 0,730,731
 133 1354 133 1354 133 1327 c 0,732,733
 133 1299 133 1299 114 1279 c 0,734,735
 94 1260 94 1260 66 1260 c 0,720,721
224 1260 m 256,736,737
 196 1260 196 1260 177 1279 c 0,738,739
 157 1299 157 1299 157 1327 c 0,740,741
 157 1354 157 1354 177 1374 c 0,742,743
 196 1394 196 1394 224 1394 c 256,744,745
 252 1394 252 1394 271 1374 c 0,746,747
 291 1354 291 1354 291 1327 c 0,748,749
 291 1299 291 1299 271 1279 c 0,750,751
 252 1260 252 1260 224 1260 c 256,736,737
697 1260 m 0,752,753
 669 1260 669 1260 649 1279 c 0,754,755
 630 1299 630 1299 630 1327 c 0,756,757
 630 1354 630 1354 649 1374 c 0,758,759
 669 1394 669 1394 697 1394 c 0,760,761
 724 1394 724 1394 744 1374 c 256,762,763
 764 1354 764 1354 764 1327 c 0,764,765
 764 1299 764 1299 744 1279 c 0,766,767
 724 1260 724 1260 697 1260 c 0,752,753
854 1260 m 256,768,769
 826 1260 826 1260 807 1279 c 0,770,771
 787 1299 787 1299 787 1327 c 0,772,773
 787 1354 787 1354 807 1374 c 0,774,775
 826 1394 826 1394 854 1394 c 256,776,777
 882 1394 882 1394 902 1374 c 0,778,779
 921 1354 921 1354 921 1327 c 0,780,781
 921 1299 921 1299 902 1279 c 0,782,783
 882 1260 882 1260 854 1260 c 256,768,769
66 1417 m 0,784,785
 39 1417 39 1417 19 1437 c 0,786,787
 0 1457 0 1457 0 1484 c 0,788,789
 0 1512 0 1512 19 1532 c 0,790,791
 39 1551 39 1551 66 1551 c 0,792,793
 94 1551 94 1551 114 1532 c 0,794,795
 133 1512 133 1512 133 1484 c 0,796,797
 133 1457 133 1457 114 1437 c 0,798,799
 94 1417 94 1417 66 1417 c 0,784,785
224 1417 m 256,800,801
 196 1417 196 1417 177 1437 c 0,802,803
 157 1457 157 1457 157 1484 c 0,804,805
 157 1512 157 1512 177 1532 c 0,806,807
 196 1551 196 1551 224 1551 c 256,808,809
 252 1551 252 1551 271 1532 c 0,810,811
 291 1512 291 1512 291 1484 c 0,812,813
 291 1457 291 1457 271 1437 c 0,814,815
 252 1417 252 1417 224 1417 c 256,800,801
382 1417 m 0,816,817
 354 1417 354 1417 334 1437 c 0,818,819
 315 1457 315 1457 315 1484 c 0,820,821
 315 1512 315 1512 334 1532 c 0,822,823
 354 1551 354 1551 382 1551 c 0,824,825
 409 1551 409 1551 429 1532 c 0,826,827
 448 1512 448 1512 448 1484 c 0,828,829
 448 1457 448 1457 429 1437 c 0,830,831
 409 1417 409 1417 382 1417 c 0,816,817
539 1417 m 256,832,833
 511 1417 511 1417 492 1437 c 0,834,835
 472 1457 472 1457 472 1484 c 0,836,837
 472 1512 472 1512 492 1532 c 0,838,839
 511 1551 511 1551 539 1551 c 256,840,841
 567 1551 567 1551 586 1532 c 0,842,843
 606 1512 606 1512 606 1484 c 0,844,845
 606 1457 606 1457 586 1437 c 0,846,847
 567 1417 567 1417 539 1417 c 256,832,833
697 1417 m 0,848,849
 669 1417 669 1417 649 1437 c 0,850,851
 630 1457 630 1457 630 1484 c 0,852,853
 630 1512 630 1512 649 1532 c 0,854,855
 669 1551 669 1551 697 1551 c 0,856,857
 724 1551 724 1551 744 1532 c 0,858,859
 764 1512 764 1512 764 1484 c 0,860,861
 764 1457 764 1457 744 1437 c 256,862,863
 724 1417 724 1417 697 1417 c 0,848,849
854 1417 m 256,864,865
 826 1417 826 1417 807 1437 c 0,866,867
 787 1457 787 1457 787 1484 c 0,868,869
 787 1512 787 1512 807 1532 c 0,870,871
 826 1551 826 1551 854 1551 c 256,872,873
 882 1551 882 1551 902 1532 c 0,874,875
 921 1512 921 1512 921 1484 c 0,876,877
 921 1457 921 1457 902 1437 c 0,878,879
 882 1417 882 1417 854 1417 c 256,864,865
224 1575 m 256,880,881
 196 1575 196 1575 177 1594 c 0,882,883
 157 1614 157 1614 157 1642 c 256,884,885
 157 1670 157 1670 177 1689 c 0,886,887
 196 1709 196 1709 224 1709 c 256,888,889
 252 1709 252 1709 271 1689 c 0,890,891
 291 1670 291 1670 291 1642 c 256,892,893
 291 1614 291 1614 271 1594 c 0,894,895
 252 1575 252 1575 224 1575 c 256,880,881
382 1575 m 0,896,897
 354 1575 354 1575 334 1594 c 0,898,899
 315 1614 315 1614 315 1642 c 256,900,901
 315 1670 315 1670 334 1689 c 0,902,903
 354 1709 354 1709 382 1709 c 0,904,905
 409 1709 409 1709 429 1689 c 0,906,907
 448 1670 448 1670 448 1642 c 256,908,909
 448 1614 448 1614 429 1594 c 0,910,911
 409 1575 409 1575 382 1575 c 0,896,897
539 1575 m 256,912,913
 511 1575 511 1575 492 1594 c 0,914,915
 472 1614 472 1614 472 1642 c 256,916,917
 472 1670 472 1670 492 1689 c 0,918,919
 511 1709 511 1709 539 1709 c 256,920,921
 567 1709 567 1709 586 1689 c 0,922,923
 606 1670 606 1670 606 1642 c 256,924,925
 606 1614 606 1614 586 1594 c 0,926,927
 567 1575 567 1575 539 1575 c 256,912,913
697 1575 m 0,928,929
 669 1575 669 1575 649 1594 c 0,930,931
 630 1614 630 1614 630 1642 c 256,932,933
 630 1670 630 1670 649 1689 c 0,934,935
 669 1709 669 1709 697 1709 c 0,936,937
 724 1709 724 1709 744 1689 c 0,938,939
 764 1670 764 1670 764 1642 c 256,940,941
 764 1614 764 1614 744 1594 c 0,942,943
 724 1575 724 1575 697 1575 c 0,928,929
EndSplineSet
Validated: 1
EndChar

StartChar: quotesingle
Encoding: 39 39 8
Width: 472
GlyphClass: 1
Flags: W
LayerCount: 2
Fore
SplineSet
66 1102 m 0,0,1
 39 1102 39 1102 19 1122 c 0,2,3
 0 1142 0 1142 0 1169 c 0,4,5
 0 1197 0 1197 19 1217 c 0,6,7
 39 1236 39 1236 66 1236 c 0,8,9
 94 1236 94 1236 114 1217 c 0,10,11
 133 1197 133 1197 133 1169 c 0,12,13
 133 1142 133 1142 114 1122 c 0,14,15
 94 1102 94 1102 66 1102 c 0,0,1
224 1102 m 256,16,17
 196 1102 196 1102 177 1122 c 0,18,19
 157 1142 157 1142 157 1169 c 0,20,21
 157 1197 157 1197 177 1217 c 0,22,23
 196 1236 196 1236 224 1236 c 256,24,25
 252 1236 252 1236 271 1217 c 0,26,27
 291 1197 291 1197 291 1169 c 0,28,29
 291 1142 291 1142 271 1122 c 0,30,31
 252 1102 252 1102 224 1102 c 256,16,17
66 1260 m 0,32,33
 39 1260 39 1260 19 1279 c 0,34,35
 0 1299 0 1299 0 1327 c 0,36,37
 0 1354 0 1354 19 1374 c 0,38,39
 39 1394 39 1394 66 1394 c 0,40,41
 94 1394 94 1394 114 1374 c 0,42,43
 133 1354 133 1354 133 1327 c 0,44,45
 133 1299 133 1299 114 1279 c 0,46,47
 94 1260 94 1260 66 1260 c 0,32,33
224 1260 m 256,48,49
 196 1260 196 1260 177 1279 c 0,50,51
 157 1299 157 1299 157 1327 c 0,52,53
 157 1354 157 1354 177 1374 c 0,54,55
 196 1394 196 1394 224 1394 c 256,56,57
 252 1394 252 1394 271 1374 c 0,58,59
 291 1354 291 1354 291 1327 c 0,60,61
 291 1299 291 1299 271 1279 c 0,62,63
 252 1260 252 1260 224 1260 c 256,48,49
66 1417 m 0,64,65
 39 1417 39 1417 19 1437 c 0,66,67
 0 1457 0 1457 0 1484 c 0,68,69
 0 1512 0 1512 19 1532 c 0,70,71
 39 1551 39 1551 66 1551 c 0,72,73
 94 1551 94 1551 114 1532 c 0,74,75
 133 1512 133 1512 133 1484 c 0,76,77
 133 1457 133 1457 114 1437 c 0,78,79
 94 1417 94 1417 66 1417 c 0,64,65
224 1417 m 256,80,81
 196 1417 196 1417 177 1437 c 0,82,83
 157 1457 157 1457 157 1484 c 0,84,85
 157 1512 157 1512 177 1532 c 0,86,87
 196 1551 196 1551 224 1551 c 256,88,89
 252 1551 252 1551 271 1532 c 0,90,91
 291 1512 291 1512 291 1484 c 0,92,93
 291 1457 291 1457 271 1437 c 0,94,95
 252 1417 252 1417 224 1417 c 256,80,81
66 1575 m 0,96,97
 39 1575 39 1575 19 1594 c 0,98,99
 0 1614 0 1614 0 1642 c 256,100,101
 0 1670 0 1670 19 1689 c 0,102,103
 39 1709 39 1709 66 1709 c 0,104,105
 94 1709 94 1709 114 1689 c 0,106,107
 133 1670 133 1670 133 1642 c 256,108,109
 133 1614 133 1614 114 1594 c 0,110,111
 94 1575 94 1575 66 1575 c 0,96,97
224 1575 m 256,112,113
 196 1575 196 1575 177 1594 c 0,114,115
 157 1614 157 1614 157 1642 c 256,116,117
 157 1670 157 1670 177 1689 c 0,118,119
 196 1709 196 1709 224 1709 c 256,120,121
 252 1709 252 1709 271 1689 c 0,122,123
 291 1670 291 1670 291 1642 c 256,124,125
 291 1614 291 1614 271 1594 c 0,126,127
 252 1575 252 1575 224 1575 c 256,112,113
EndSplineSet
Validated: 1
EndChar

StartChar: parenleft
Encoding: 40 40 9
Width: 945
GlyphClass: 1
Flags: W
LayerCount: 2
Fore
SplineSet
539 0 m 256,0,1
 511 0 511 0 492 19 c 0,2,3
 472 39 472 39 472 66 c 0,4,5
 472 94 472 94 492 114 c 0,6,7
 511 133 511 133 539 133 c 256,8,9
 567 133 567 133 586 114 c 0,10,11
 606 94 606 94 606 66 c 0,12,13
 606 39 606 39 586 19 c 0,14,15
 567 0 567 0 539 0 c 256,0,1
697 0 m 0,16,17
 669 0 669 0 649 19 c 0,18,19
 630 39 630 39 630 66 c 0,20,21
 630 94 630 94 649 114 c 0,22,23
 669 133 669 133 697 133 c 0,24,25
 724 133 724 133 744 114 c 0,26,27
 764 94 764 94 764 66 c 0,28,29
 764 39 764 39 744 19 c 0,30,31
 724 0 724 0 697 0 c 0,16,17
382 157 m 0,32,33
 354 157 354 157 334 177 c 0,34,35
 315 196 315 196 315 224 c 256,36,37
 315 252 315 252 334 271 c 0,38,39
 354 291 354 291 382 291 c 0,40,41
 409 291 409 291 429 271 c 0,42,43
 448 252 448 252 448 224 c 256,44,45
 448 196 448 196 429 177 c 0,46,47
 409 157 409 157 382 157 c 0,32,33
539 157 m 256,48,49
 511 157 511 157 492 177 c 0,50,51
 472 196 472 196 472 224 c 256,52,53
 472 252 472 252 492 271 c 0,54,55
 511 291 511 291 539 291 c 256,56,57
 567 291 567 291 586 271 c 0,58,59
 606 252 606 252 606 224 c 256,60,61
 606 196 606 196 586 177 c 0,62,63
 567 157 567 157 539 157 c 256,48,49
224 315 m 256,64,65
 196 315 196 315 177 334 c 0,66,67
 157 354 157 354 157 382 c 0,68,69
 157 409 157 409 177 429 c 0,70,71
 196 448 196 448 224 448 c 256,72,73
 252 448 252 448 271 429 c 0,74,75
 291 409 291 409 291 382 c 0,76,77
 291 354 291 354 271 334 c 0,78,79
 252 315 252 315 224 315 c 256,64,65
382 315 m 0,80,81
 354 315 354 315 334 334 c 0,82,83
 315 354 315 354 315 382 c 0,84,85
 315 409 315 409 334 429 c 0,86,87
 354 448 354 448 382 448 c 0,88,89
 409 448 409 448 429 429 c 0,90,91
 448 409 448 409 448 382 c 0,92,93
 448 354 448 354 429 334 c 0,94,95
 409 315 409 315 382 315 c 0,80,81
224 472 m 256,96,97
 196 472 196 472 177 492 c 0,98,99
 157 511 157 511 157 539 c 256,100,101
 157 567 157 567 177 586 c 0,102,103
 196 606 196 606 224 606 c 256,104,105
 252 606 252 606 271 586 c 0,106,107
 291 567 291 567 291 539 c 256,108,109
 291 511 291 511 271 492 c 0,110,111
 252 472 252 472 224 472 c 256,96,97
382 472 m 0,112,113
 354 472 354 472 334 492 c 0,114,115
 315 511 315 511 315 539 c 256,116,117
 315 567 315 567 334 586 c 0,118,119
 354 606 354 606 382 606 c 0,120,121
 409 606 409 606 429 586 c 0,122,123
 448 567 448 567 448 539 c 256,124,125
 448 511 448 511 429 492 c 0,126,127
 409 472 409 472 382 472 c 0,112,113
66 630 m 0,128,129
 39 630 39 630 19 649 c 0,130,131
 0 669 0 669 0 697 c 0,132,133
 0 724 0 724 19 744 c 0,134,135
 39 764 39 764 66 764 c 0,136,137
 94 764 94 764 114 744 c 0,138,139
 133 724 133 724 133 697 c 0,140,141
 133 669 133 669 114 649 c 0,142,143
 94 630 94 630 66 630 c 0,128,129
224 630 m 256,144,145
 196 630 196 630 177 649 c 0,146,147
 157 669 157 669 157 697 c 0,148,149
 157 724 157 724 177 744 c 0,150,151
 196 764 196 764 224 764 c 256,152,153
 252 764 252 764 271 744 c 0,154,155
 291 724 291 724 291 697 c 0,156,157
 291 669 291 669 271 649 c 0,158,159
 252 630 252 630 224 630 c 256,144,145
66 787 m 0,160,161
 39 787 39 787 19 807 c 0,162,163
 0 826 0 826 0 854 c 256,164,165
 0 882 0 882 19 902 c 0,166,167
 39 921 39 921 66 921 c 0,168,169
 94 921 94 921 114 902 c 0,170,171
 133 882 133 882 133 854 c 256,172,173
 133 826 133 826 114 807 c 0,174,175
 94 787 94 787 66 787 c 0,160,161
224 787 m 256,176,177
 196 787 196 787 177 807 c 0,178,179
 157 826 157 826 157 854 c 256,180,181
 157 882 157 882 177 902 c 0,182,183
 196 921 196 921 224 921 c 256,184,185
 252 921 252 921 271 902 c 0,186,187
 291 882 291 882 291 854 c 256,188,189
 291 826 291 826 271 807 c 0,190,191
 252 787 252 787 224 787 c 256,176,177
66 945 m 0,192,193
 39 945 39 945 19 964 c 0,194,195
 0 984 0 984 0 1012 c 0,196,197
 0 1039 0 1039 19 1059 c 0,198,199
 39 1079 39 1079 66 1079 c 0,200,201
 94 1079 94 1079 114 1059 c 0,202,203
 133 1039 133 1039 133 1012 c 0,204,205
 133 984 133 984 114 964 c 0,206,207
 94 945 94 945 66 945 c 0,192,193
224 945 m 256,208,209
 196 945 196 945 177 964 c 0,210,211
 157 984 157 984 157 1012 c 0,212,213
 157 1039 157 1039 177 1059 c 0,214,215
 196 1079 196 1079 224 1079 c 256,216,217
 252 1079 252 1079 271 1059 c 0,218,219
 291 1039 291 1039 291 1012 c 0,220,221
 291 984 291 984 271 964 c 0,222,223
 252 945 252 945 224 945 c 256,208,209
224 1102 m 256,224,225
 196 1102 196 1102 177 1122 c 0,226,227
 157 1142 157 1142 157 1169 c 0,228,229
 157 1197 157 1197 177 1217 c 0,230,231
 196 1236 196 1236 224 1236 c 256,232,233
 252 1236 252 1236 271 1217 c 0,234,235
 291 1197 291 1197 291 1169 c 0,236,237
 291 1142 291 1142 271 1122 c 0,238,239
 252 1102 252 1102 224 1102 c 256,224,225
382 1102 m 0,240,241
 354 1102 354 1102 334 1122 c 0,242,243
 315 1142 315 1142 315 1169 c 0,244,245
 315 1197 315 1197 334 1217 c 0,246,247
 354 1236 354 1236 382 1236 c 0,248,249
 409 1236 409 1236 429 1217 c 0,250,251
 448 1197 448 1197 448 1169 c 0,252,253
 448 1142 448 1142 429 1122 c 0,254,255
 409 1102 409 1102 382 1102 c 0,240,241
224 1260 m 256,256,257
 196 1260 196 1260 177 1279 c 0,258,259
 157 1299 157 1299 157 1327 c 0,260,261
 157 1354 157 1354 177 1374 c 0,262,263
 196 1394 196 1394 224 1394 c 256,264,265
 252 1394 252 1394 271 1374 c 0,266,267
 291 1354 291 1354 291 1327 c 0,268,269
 291 1299 291 1299 271 1279 c 0,270,271
 252 1260 252 1260 224 1260 c 256,256,257
382 1260 m 0,272,273
 354 1260 354 1260 334 1279 c 0,274,275
 315 1299 315 1299 315 1327 c 0,276,277
 315 1354 315 1354 334 1374 c 0,278,279
 354 1394 354 1394 382 1394 c 0,280,281
 409 1394 409 1394 429 1374 c 0,282,283
 448 1354 448 1354 448 1327 c 0,284,285
 448 1299 448 1299 429 1279 c 0,286,287
 409 1260 409 1260 382 1260 c 0,272,273
382 1417 m 0,288,289
 354 1417 354 1417 334 1437 c 0,290,291
 315 1457 315 1457 315 1484 c 0,292,293
 315 1512 315 1512 334 1532 c 0,294,295
 354 1551 354 1551 382 1551 c 0,296,297
 409 1551 409 1551 429 1532 c 0,298,299
 448 1512 448 1512 448 1484 c 0,300,301
 448 1457 448 1457 429 1437 c 0,302,303
 409 1417 409 1417 382 1417 c 0,288,289
539 1417 m 256,304,305
 511 1417 511 1417 492 1437 c 0,306,307
 472 1457 472 1457 472 1484 c 0,308,309
 472 1512 472 1512 492 1532 c 0,310,311
 511 1551 511 1551 539 1551 c 256,312,313
 567 1551 567 1551 586 1532 c 0,314,315
 606 1512 606 1512 606 1484 c 0,316,317
 606 1457 606 1457 586 1437 c 0,318,319
 567 1417 567 1417 539 1417 c 256,304,305
539 1575 m 256,320,321
 511 1575 511 1575 492 1594 c 0,322,323
 472 1614 472 1614 472 1642 c 256,324,325
 472 1670 472 1670 492 1689 c 0,326,327
 511 1709 511 1709 539 1709 c 256,328,329
 567 1709 567 1709 586 1689 c 0,330,331
 606 1670 606 1670 606 1642 c 256,332,333
 606 1614 606 1614 586 1594 c 0,334,335
 567 1575 567 1575 539 1575 c 256,320,321
697 1575 m 0,336,337
 669 1575 669 1575 649 1594 c 0,338,339
 630 1614 630 1614 630 1642 c 256,340,341
 630 1670 630 1670 649 1689 c 0,342,343
 669 1709 669 1709 697 1709 c 0,344,345
 724 1709 724 1709 744 1689 c 0,346,347
 764 1670 764 1670 764 1642 c 256,348,349
 764 1614 764 1614 744 1594 c 0,350,351
 724 1575 724 1575 697 1575 c 0,336,337
EndSplineSet
Validated: 1
EndChar

StartChar: parenright
Encoding: 41 41 10
Width: 945
GlyphClass: 1
Flags: W
LayerCount: 2
Fore
SplineSet
66 0 m 0,0,1
 39 0 39 0 19 19 c 0,2,3
 0 39 0 39 0 66 c 0,4,5
 0 94 0 94 19 114 c 0,6,7
 39 133 39 133 66 133 c 0,8,9
 94 133 94 133 114 114 c 0,10,11
 133 94 133 94 133 66 c 0,12,13
 133 39 133 39 114 19 c 0,14,15
 94 0 94 0 66 0 c 0,0,1
224 0 m 256,16,17
 196 0 196 0 177 19 c 0,18,19
 157 39 157 39 157 66 c 0,20,21
 157 94 157 94 177 114 c 0,22,23
 196 133 196 133 224 133 c 256,24,25
 252 133 252 133 271 114 c 0,26,27
 291 94 291 94 291 66 c 0,28,29
 291 39 291 39 271 19 c 0,30,31
 252 0 252 0 224 0 c 256,16,17
224 157 m 256,32,33
 196 157 196 157 177 177 c 0,34,35
 157 196 157 196 157 224 c 256,36,37
 157 252 157 252 177 271 c 0,38,39
 196 291 196 291 224 291 c 256,40,41
 252 291 252 291 271 271 c 0,42,43
 291 252 291 252 291 224 c 256,44,45
 291 196 291 196 271 177 c 0,46,47
 252 157 252 157 224 157 c 256,32,33
382 157 m 0,48,49
 354 157 354 157 334 177 c 0,50,51
 315 196 315 196 315 224 c 256,52,53
 315 252 315 252 334 271 c 0,54,55
 354 291 354 291 382 291 c 0,56,57
 409 291 409 291 429 271 c 0,58,59
 448 252 448 252 448 224 c 256,60,61
 448 196 448 196 429 177 c 0,62,63
 409 157 409 157 382 157 c 0,48,49
382 315 m 0,64,65
 354 315 354 315 334 334 c 0,66,67
 315 354 315 354 315 382 c 0,68,69
 315 409 315 409 334 429 c 0,70,71
 354 448 354 448 382 448 c 0,72,73
 409 448 409 448 429 429 c 0,74,75
 448 409 448 409 448 382 c 0,76,77
 448 354 448 354 429 334 c 0,78,79
 409 315 409 315 382 315 c 0,64,65
539 315 m 256,80,81
 511 315 511 315 492 334 c 0,82,83
 472 354 472 354 472 382 c 0,84,85
 472 409 472 409 492 429 c 0,86,87
 511 448 511 448 539 448 c 256,88,89
 567 448 567 448 586 429 c 0,90,91
 606 409 606 409 606 382 c 0,92,93
 606 354 606 354 586 334 c 0,94,95
 567 315 567 315 539 315 c 256,80,81
382 472 m 0,96,97
 354 472 354 472 334 492 c 0,98,99
 315 511 315 511 315 539 c 256,100,101
 315 567 315 567 334 586 c 0,102,103
 354 606 354 606 382 606 c 0,104,105
 409 606 409 606 429 586 c 0,106,107
 448 567 448 567 448 539 c 256,108,109
 448 511 448 511 429 492 c 0,110,111
 409 472 409 472 382 472 c 0,96,97
539 472 m 256,112,113
 511 472 511 472 492 492 c 0,114,115
 472 511 472 511 472 539 c 256,116,117
 472 567 472 567 492 586 c 0,118,119
 511 606 511 606 539 606 c 256,120,121
 567 606 567 606 586 586 c 0,122,123
 606 567 606 567 606 539 c 256,124,125
 606 511 606 511 586 492 c 0,126,127
 567 472 567 472 539 472 c 256,112,113
539 630 m 256,128,129
 511 630 511 630 492 649 c 0,130,131
 472 669 472 669 472 697 c 0,132,133
 472 724 472 724 492 744 c 0,134,135
 511 764 511 764 539 764 c 256,136,137
 567 764 567 764 586 744 c 0,138,139
 606 724 606 724 606 697 c 0,140,141
 606 669 606 669 586 649 c 0,142,143
 567 630 567 630 539 630 c 256,128,129
697 630 m 0,144,145
 669 630 669 630 649 649 c 0,146,147
 630 669 630 669 630 697 c 0,148,149
 630 724 630 724 649 744 c 0,150,151
 669 764 669 764 697 764 c 0,152,153
 724 764 724 764 744 744 c 256,154,155
 764 724 764 724 764 697 c 0,156,157
 764 669 764 669 744 649 c 0,158,159
 724 630 724 630 697 630 c 0,144,145
539 787 m 256,160,161
 511 787 511 787 492 807 c 0,162,163
 472 826 472 826 472 854 c 256,164,165
 472 882 472 882 492 902 c 0,166,167
 511 921 511 921 539 921 c 256,168,169
 567 921 567 921 586 902 c 0,170,171
 606 882 606 882 606 854 c 256,172,173
 606 826 606 826 586 807 c 0,174,175
 567 787 567 787 539 787 c 256,160,161
697 787 m 0,176,177
 669 787 669 787 649 807 c 0,178,179
 630 826 630 826 630 854 c 256,180,181
 630 882 630 882 649 902 c 0,182,183
 669 921 669 921 697 921 c 0,184,185
 724 921 724 921 744 902 c 0,186,187
 764 882 764 882 764 854 c 256,188,189
 764 826 764 826 744 807 c 0,190,191
 724 787 724 787 697 787 c 0,176,177
539 945 m 256,192,193
 511 945 511 945 492 964 c 0,194,195
 472 984 472 984 472 1012 c 0,196,197
 472 1039 472 1039 492 1059 c 0,198,199
 511 1079 511 1079 539 1079 c 256,200,201
 567 1079 567 1079 586 1059 c 0,202,203
 606 1039 606 1039 606 1012 c 0,204,205
 606 984 606 984 586 964 c 0,206,207
 567 945 567 945 539 945 c 256,192,193
697 945 m 0,208,209
 669 945 669 945 649 964 c 0,210,211
 630 984 630 984 630 1012 c 0,212,213
 630 1039 630 1039 649 1059 c 0,214,215
 669 1079 669 1079 697 1079 c 0,216,217
 724 1079 724 1079 744 1059 c 256,218,219
 764 1039 764 1039 764 1012 c 0,220,221
 764 984 764 984 744 964 c 0,222,223
 724 945 724 945 697 945 c 0,208,209
382 1102 m 0,224,225
 354 1102 354 1102 334 1122 c 0,226,227
 315 1142 315 1142 315 1169 c 0,228,229
 315 1197 315 1197 334 1217 c 0,230,231
 354 1236 354 1236 382 1236 c 0,232,233
 409 1236 409 1236 429 1217 c 0,234,235
 448 1197 448 1197 448 1169 c 0,236,237
 448 1142 448 1142 429 1122 c 0,238,239
 409 1102 409 1102 382 1102 c 0,224,225
539 1102 m 256,240,241
 511 1102 511 1102 492 1122 c 0,242,243
 472 1142 472 1142 472 1169 c 0,244,245
 472 1197 472 1197 492 1217 c 0,246,247
 511 1236 511 1236 539 1236 c 256,248,249
 567 1236 567 1236 586 1217 c 0,250,251
 606 1197 606 1197 606 1169 c 0,252,253
 606 1142 606 1142 586 1122 c 0,254,255
 567 1102 567 1102 539 1102 c 256,240,241
382 1260 m 0,256,257
 354 1260 354 1260 334 1279 c 0,258,259
 315 1299 315 1299 315 1327 c 0,260,261
 315 1354 315 1354 334 1374 c 0,262,263
 354 1394 354 1394 382 1394 c 0,264,265
 409 1394 409 1394 429 1374 c 0,266,267
 448 1354 448 1354 448 1327 c 0,268,269
 448 1299 448 1299 429 1279 c 0,270,271
 409 1260 409 1260 382 1260 c 0,256,257
539 1260 m 256,272,273
 511 1260 511 1260 492 1279 c 0,274,275
 472 1299 472 1299 472 1327 c 0,276,277
 472 1354 472 1354 492 1374 c 0,278,279
 511 1394 511 1394 539 1394 c 256,280,281
 567 1394 567 1394 586 1374 c 0,282,283
 606 1354 606 1354 606 1327 c 0,284,285
 606 1299 606 1299 586 1279 c 0,286,287
 567 1260 567 1260 539 1260 c 256,272,273
224 1417 m 256,288,289
 196 1417 196 1417 177 1437 c 0,290,291
 157 1457 157 1457 157 1484 c 0,292,293
 157 1512 157 1512 177 1532 c 0,294,295
 196 1551 196 1551 224 1551 c 256,296,297
 252 1551 252 1551 271 1532 c 0,298,299
 291 1512 291 1512 291 1484 c 0,300,301
 291 1457 291 1457 271 1437 c 0,302,303
 252 1417 252 1417 224 1417 c 256,288,289
382 1417 m 0,304,305
 354 1417 354 1417 334 1437 c 0,306,307
 315 1457 315 1457 315 1484 c 0,308,309
 315 1512 315 1512 334 1532 c 0,310,311
 354 1551 354 1551 382 1551 c 0,312,313
 409 1551 409 1551 429 1532 c 0,314,315
 448 1512 448 1512 448 1484 c 0,316,317
 448 1457 448 1457 429 1437 c 0,318,319
 409 1417 409 1417 382 1417 c 0,304,305
66 1575 m 0,320,321
 39 1575 39 1575 19 1594 c 0,322,323
 0 1614 0 1614 0 1642 c 256,324,325
 0 1670 0 1670 19 1689 c 0,326,327
 39 1709 39 1709 66 1709 c 0,328,329
 94 1709 94 1709 114 1689 c 0,330,331
 133 1670 133 1670 133 1642 c 256,332,333
 133 1614 133 1614 114 1594 c 0,334,335
 94 1575 94 1575 66 1575 c 0,320,321
224 1575 m 256,336,337
 196 1575 196 1575 177 1594 c 0,338,339
 157 1614 157 1614 157 1642 c 256,340,341
 157 1670 157 1670 177 1689 c 0,342,343
 196 1709 196 1709 224 1709 c 256,344,345
 252 1709 252 1709 271 1689 c 0,346,347
 291 1670 291 1670 291 1642 c 256,348,349
 291 1614 291 1614 271 1594 c 0,350,351
 252 1575 252 1575 224 1575 c 256,336,337
EndSplineSet
Validated: 1
EndChar

StartChar: asterisk
Encoding: 42 42 11
Width: 1417
GlyphClass: 1
Flags: W
LayerCount: 2
Fore
SplineSet
539 157 m 256,0,1
 511 157 511 157 492 177 c 0,2,3
 472 196 472 196 472 224 c 256,4,5
 472 252 472 252 492 271 c 0,6,7
 511 291 511 291 539 291 c 256,8,9
 567 291 567 291 586 271 c 0,10,11
 606 252 606 252 606 224 c 256,12,13
 606 196 606 196 586 177 c 0,14,15
 567 157 567 157 539 157 c 256,0,1
697 157 m 0,16,17
 669 157 669 157 649 177 c 0,18,19
 630 196 630 196 630 224 c 256,20,21
 630 252 630 252 649 271 c 0,22,23
 669 291 669 291 697 291 c 0,24,25
 724 291 724 291 744 271 c 0,26,27
 764 252 764 252 764 224 c 256,28,29
 764 196 764 196 744 177 c 0,30,31
 724 157 724 157 697 157 c 0,16,17
66 315 m 0,32,33
 39 315 39 315 19 334 c 0,34,35
 0 354 0 354 0 382 c 0,36,37
 0 409 0 409 19 429 c 0,38,39
 39 448 39 448 66 448 c 0,40,41
 94 448 94 448 114 429 c 0,42,43
 133 409 133 409 133 382 c 0,44,45
 133 354 133 354 114 334 c 0,46,47
 94 315 94 315 66 315 c 0,32,33
539 315 m 256,48,49
 511 315 511 315 492 334 c 0,50,51
 472 354 472 354 472 382 c 0,52,53
 472 409 472 409 492 429 c 0,54,55
 511 448 511 448 539 448 c 256,56,57
 567 448 567 448 586 429 c 0,58,59
 606 409 606 409 606 382 c 0,60,61
 606 354 606 354 586 334 c 0,62,63
 567 315 567 315 539 315 c 256,48,49
697 315 m 0,64,65
 669 315 669 315 649 334 c 0,66,67
 630 354 630 354 630 382 c 0,68,69
 630 409 630 409 649 429 c 0,70,71
 669 448 669 448 697 448 c 0,72,73
 724 448 724 448 744 429 c 0,74,75
 764 409 764 409 764 382 c 0,76,77
 764 354 764 354 744 334 c 0,78,79
 724 315 724 315 697 315 c 0,64,65
1169 315 m 0,80,81
 1142 315 1142 315 1122 334 c 0,82,83
 1102 354 1102 354 1102 382 c 0,84,85
 1102 409 1102 409 1122 429 c 0,86,87
 1142 448 1142 448 1169 448 c 0,88,89
 1197 448 1197 448 1217 429 c 0,90,91
 1236 409 1236 409 1236 382 c 0,92,93
 1236 354 1236 354 1217 334 c 0,94,95
 1197 315 1197 315 1169 315 c 0,80,81
224 472 m 256,96,97
 196 472 196 472 177 492 c 0,98,99
 157 511 157 511 157 539 c 256,100,101
 157 567 157 567 177 586 c 0,102,103
 196 606 196 606 224 606 c 256,104,105
 252 606 252 606 271 586 c 0,106,107
 291 567 291 567 291 539 c 256,108,109
 291 511 291 511 271 492 c 0,110,111
 252 472 252 472 224 472 c 256,96,97
539 472 m 256,112,113
 511 472 511 472 492 492 c 0,114,115
 472 511 472 511 472 539 c 256,116,117
 472 567 472 567 492 586 c 0,118,119
 511 606 511 606 539 606 c 256,120,121
 567 606 567 606 586 586 c 0,122,123
 606 567 606 567 606 539 c 256,124,125
 606 511 606 511 586 492 c 0,126,127
 567 472 567 472 539 472 c 256,112,113
697 472 m 0,128,129
 669 472 669 472 649 492 c 0,130,131
 630 511 630 511 630 539 c 256,132,133
 630 567 630 567 649 586 c 0,134,135
 669 606 669 606 697 606 c 0,136,137
 724 606 724 606 744 586 c 0,138,139
 764 567 764 567 764 539 c 256,140,141
 764 511 764 511 744 492 c 0,142,143
 724 472 724 472 697 472 c 0,128,129
1012 472 m 0,144,145
 984 472 984 472 964 492 c 0,146,147
 945 511 945 511 945 539 c 256,148,149
 945 567 945 567 964 586 c 0,150,151
 984 606 984 606 1012 606 c 0,152,153
 1039 606 1039 606 1059 586 c 0,154,155
 1079 567 1079 567 1079 539 c 256,156,157
 1079 511 1079 511 1059 492 c 0,158,159
 1039 472 1039 472 1012 472 c 0,144,145
382 630 m 0,160,161
 354 630 354 630 334 649 c 0,162,163
 315 669 315 669 315 697 c 0,164,165
 315 724 315 724 334 744 c 0,166,167
 354 764 354 764 382 764 c 0,168,169
 409 764 409 764 429 744 c 0,170,171
 448 724 448 724 448 697 c 0,172,173
 448 669 448 669 429 649 c 0,174,175
 409 630 409 630 382 630 c 0,160,161
539 630 m 256,176,177
 511 630 511 630 492 649 c 0,178,179
 472 669 472 669 472 697 c 0,180,181
 472 724 472 724 492 744 c 0,182,183
 511 764 511 764 539 764 c 256,184,185
 567 764 567 764 586 744 c 0,186,187
 606 724 606 724 606 697 c 0,188,189
 606 669 606 669 586 649 c 0,190,191
 567 630 567 630 539 630 c 256,176,177
697 630 m 0,192,193
 669 630 669 630 649 649 c 0,194,195
 630 669 630 669 630 697 c 0,196,197
 630 724 630 724 649 744 c 0,198,199
 669 764 669 764 697 764 c 0,200,201
 724 764 724 764 744 744 c 256,202,203
 764 724 764 724 764 697 c 0,204,205
 764 669 764 669 744 649 c 0,206,207
 724 630 724 630 697 630 c 0,192,193
854 630 m 256,208,209
 826 630 826 630 807 649 c 0,210,211
 787 669 787 669 787 697 c 0,212,213
 787 724 787 724 807 744 c 0,214,215
 826 764 826 764 854 764 c 256,216,217
 882 764 882 764 902 744 c 0,218,219
 921 724 921 724 921 697 c 0,220,221
 921 669 921 669 902 649 c 0,222,223
 882 630 882 630 854 630 c 256,208,209
66 787 m 0,224,225
 39 787 39 787 19 807 c 0,226,227
 0 826 0 826 0 854 c 256,228,229
 0 882 0 882 19 902 c 0,230,231
 39 921 39 921 66 921 c 0,232,233
 94 921 94 921 114 902 c 0,234,235
 133 882 133 882 133 854 c 256,236,237
 133 826 133 826 114 807 c 0,238,239
 94 787 94 787 66 787 c 0,224,225
224 787 m 256,240,241
 196 787 196 787 177 807 c 0,242,243
 157 826 157 826 157 854 c 256,244,245
 157 882 157 882 177 902 c 0,246,247
 196 921 196 921 224 921 c 256,248,249
 252 921 252 921 271 902 c 0,250,251
 291 882 291 882 291 854 c 256,252,253
 291 826 291 826 271 807 c 0,254,255
 252 787 252 787 224 787 c 256,240,241
382 787 m 0,256,257
 354 787 354 787 334 807 c 0,258,259
 315 826 315 826 315 854 c 256,260,261
 315 882 315 882 334 902 c 0,262,263
 354 921 354 921 382 921 c 0,264,265
 409 921 409 921 429 902 c 0,266,267
 448 882 448 882 448 854 c 256,268,269
 448 826 448 826 429 807 c 0,270,271
 409 787 409 787 382 787 c 0,256,257
539 787 m 256,272,273
 511 787 511 787 492 807 c 0,274,275
 472 826 472 826 472 854 c 256,276,277
 472 882 472 882 492 902 c 0,278,279
 511 921 511 921 539 921 c 256,280,281
 567 921 567 921 586 902 c 0,282,283
 606 882 606 882 606 854 c 256,284,285
 606 826 606 826 586 807 c 0,286,287
 567 787 567 787 539 787 c 256,272,273
697 787 m 0,288,289
 669 787 669 787 649 807 c 0,290,291
 630 826 630 826 630 854 c 256,292,293
 630 882 630 882 649 902 c 0,294,295
 669 921 669 921 697 921 c 0,296,297
 724 921 724 921 744 902 c 0,298,299
 764 882 764 882 764 854 c 256,300,301
 764 826 764 826 744 807 c 0,302,303
 724 787 724 787 697 787 c 0,288,289
854 787 m 256,304,305
 826 787 826 787 807 807 c 0,306,307
 787 826 787 826 787 854 c 256,308,309
 787 882 787 882 807 902 c 0,310,311
 826 921 826 921 854 921 c 256,312,313
 882 921 882 921 902 902 c 0,314,315
 921 882 921 882 921 854 c 256,316,317
 921 826 921 826 902 807 c 0,318,319
 882 787 882 787 854 787 c 256,304,305
1012 787 m 0,320,321
 984 787 984 787 964 807 c 0,322,323
 945 826 945 826 945 854 c 256,324,325
 945 882 945 882 964 902 c 0,326,327
 984 921 984 921 1012 921 c 0,328,329
 1039 921 1039 921 1059 902 c 0,330,331
 1079 882 1079 882 1079 854 c 256,332,333
 1079 826 1079 826 1059 807 c 0,334,335
 1039 787 1039 787 1012 787 c 0,320,321
1169 787 m 0,336,337
 1142 787 1142 787 1122 807 c 0,338,339
 1102 826 1102 826 1102 854 c 256,340,341
 1102 882 1102 882 1122 902 c 0,342,343
 1142 921 1142 921 1169 921 c 0,344,345
 1197 921 1197 921 1217 902 c 0,346,347
 1236 882 1236 882 1236 854 c 256,348,349
 1236 826 1236 826 1217 807 c 0,350,351
 1197 787 1197 787 1169 787 c 0,336,337
382 945 m 0,352,353
 354 945 354 945 334 964 c 0,354,355
 315 984 315 984 315 1012 c 0,356,357
 315 1039 315 1039 334 1059 c 0,358,359
 354 1079 354 1079 382 1079 c 0,360,361
 409 1079 409 1079 429 1059 c 0,362,363
 448 1039 448 1039 448 1012 c 0,364,365
 448 984 448 984 429 964 c 0,366,367
 409 945 409 945 382 945 c 0,352,353
539 945 m 256,368,369
 511 945 511 945 492 964 c 0,370,371
 472 984 472 984 472 1012 c 0,372,373
 472 1039 472 1039 492 1059 c 0,374,375
 511 1079 511 1079 539 1079 c 256,376,377
 567 1079 567 1079 586 1059 c 0,378,379
 606 1039 606 1039 606 1012 c 0,380,381
 606 984 606 984 586 964 c 0,382,383
 567 945 567 945 539 945 c 256,368,369
697 945 m 0,384,385
 669 945 669 945 649 964 c 0,386,387
 630 984 630 984 630 1012 c 0,388,389
 630 1039 630 1039 649 1059 c 0,390,391
 669 1079 669 1079 697 1079 c 0,392,393
 724 1079 724 1079 744 1059 c 256,394,395
 764 1039 764 1039 764 1012 c 0,396,397
 764 984 764 984 744 964 c 0,398,399
 724 945 724 945 697 945 c 0,384,385
854 945 m 256,400,401
 826 945 826 945 807 964 c 0,402,403
 787 984 787 984 787 1012 c 0,404,405
 787 1039 787 1039 807 1059 c 0,406,407
 826 1079 826 1079 854 1079 c 256,408,409
 882 1079 882 1079 902 1059 c 0,410,411
 921 1039 921 1039 921 1012 c 0,412,413
 921 984 921 984 902 964 c 0,414,415
 882 945 882 945 854 945 c 256,400,401
224 1102 m 256,416,417
 196 1102 196 1102 177 1122 c 0,418,419
 157 1142 157 1142 157 1169 c 0,420,421
 157 1197 157 1197 177 1217 c 0,422,423
 196 1236 196 1236 224 1236 c 256,424,425
 252 1236 252 1236 271 1217 c 0,426,427
 291 1197 291 1197 291 1169 c 0,428,429
 291 1142 291 1142 271 1122 c 0,430,431
 252 1102 252 1102 224 1102 c 256,416,417
539 1102 m 256,432,433
 511 1102 511 1102 492 1122 c 0,434,435
 472 1142 472 1142 472 1169 c 0,436,437
 472 1197 472 1197 492 1217 c 0,438,439
 511 1236 511 1236 539 1236 c 256,440,441
 567 1236 567 1236 586 1217 c 0,442,443
 606 1197 606 1197 606 1169 c 0,444,445
 606 1142 606 1142 586 1122 c 0,446,447
 567 1102 567 1102 539 1102 c 256,432,433
697 1102 m 0,448,449
 669 1102 669 1102 649 1122 c 0,450,451
 630 1142 630 1142 630 1169 c 0,452,453
 630 1197 630 1197 649 1217 c 0,454,455
 669 1236 669 1236 697 1236 c 0,456,457
 724 1236 724 1236 744 1217 c 0,458,459
 764 1197 764 1197 764 1169 c 0,460,461
 764 1142 764 1142 744 1122 c 256,462,463
 724 1102 724 1102 697 1102 c 0,448,449
1012 1102 m 0,464,465
 984 1102 984 1102 964 1122 c 0,466,467
 945 1142 945 1142 945 1169 c 0,468,469
 945 1197 945 1197 964 1217 c 0,470,471
 984 1236 984 1236 1012 1236 c 0,472,473
 1039 1236 1039 1236 1059 1217 c 0,474,475
 1079 1197 1079 1197 1079 1169 c 0,476,477
 1079 1142 1079 1142 1059 1122 c 256,478,479
 1039 1102 1039 1102 1012 1102 c 0,464,465
66 1260 m 0,480,481
 39 1260 39 1260 19 1279 c 0,482,483
 0 1299 0 1299 0 1327 c 0,484,485
 0 1354 0 1354 19 1374 c 0,486,487
 39 1394 39 1394 66 1394 c 0,488,489
 94 1394 94 1394 114 1374 c 0,490,491
 133 1354 133 1354 133 1327 c 0,492,493
 133 1299 133 1299 114 1279 c 0,494,495
 94 1260 94 1260 66 1260 c 0,480,481
539 1260 m 256,496,497
 511 1260 511 1260 492 1279 c 0,498,499
 472 1299 472 1299 472 1327 c 0,500,501
 472 1354 472 1354 492 1374 c 0,502,503
 511 1394 511 1394 539 1394 c 256,504,505
 567 1394 567 1394 586 1374 c 0,506,507
 606 1354 606 1354 606 1327 c 0,508,509
 606 1299 606 1299 586 1279 c 0,510,511
 567 1260 567 1260 539 1260 c 256,496,497
697 1260 m 0,512,513
 669 1260 669 1260 649 1279 c 0,514,515
 630 1299 630 1299 630 1327 c 0,516,517
 630 1354 630 1354 649 1374 c 0,518,519
 669 1394 669 1394 697 1394 c 0,520,521
 724 1394 724 1394 744 1374 c 256,522,523
 764 1354 764 1354 764 1327 c 0,524,525
 764 1299 764 1299 744 1279 c 0,526,527
 724 1260 724 1260 697 1260 c 0,512,513
1169 1260 m 0,528,529
 1142 1260 1142 1260 1122 1279 c 0,530,531
 1102 1299 1102 1299 1102 1327 c 0,532,533
 1102 1354 1102 1354 1122 1374 c 256,534,535
 1142 1394 1142 1394 1169 1394 c 0,536,537
 1197 1394 1197 1394 1217 1374 c 0,538,539
 1236 1354 1236 1354 1236 1327 c 0,540,541
 1236 1299 1236 1299 1217 1279 c 0,542,543
 1197 1260 1197 1260 1169 1260 c 0,528,529
539 1417 m 256,544,545
 511 1417 511 1417 492 1437 c 0,546,547
 472 1457 472 1457 472 1484 c 0,548,549
 472 1512 472 1512 492 1532 c 0,550,551
 511 1551 511 1551 539 1551 c 256,552,553
 567 1551 567 1551 586 1532 c 0,554,555
 606 1512 606 1512 606 1484 c 0,556,557
 606 1457 606 1457 586 1437 c 0,558,559
 567 1417 567 1417 539 1417 c 256,544,545
697 1417 m 0,560,561
 669 1417 669 1417 649 1437 c 0,562,563
 630 1457 630 1457 630 1484 c 0,564,565
 630 1512 630 1512 649 1532 c 0,566,567
 669 1551 669 1551 697 1551 c 0,568,569
 724 1551 724 1551 744 1532 c 0,570,571
 764 1512 764 1512 764 1484 c 0,572,573
 764 1457 764 1457 744 1437 c 256,574,575
 724 1417 724 1417 697 1417 c 0,560,561
EndSplineSet
Validated: 1
EndChar

StartChar: plus
Encoding: 43 43 12
Width: 1102
GlyphClass: 1
Flags: W
LayerCount: 2
Fore
SplineSet
382 315 m 0,0,1
 354 315 354 315 334 334 c 0,2,3
 315 354 315 354 315 382 c 0,4,5
 315 409 315 409 334 429 c 0,6,7
 354 448 354 448 382 448 c 0,8,9
 409 448 409 448 429 429 c 0,10,11
 448 409 448 409 448 382 c 0,12,13
 448 354 448 354 429 334 c 0,14,15
 409 315 409 315 382 315 c 0,0,1
539 315 m 256,16,17
 511 315 511 315 492 334 c 0,18,19
 472 354 472 354 472 382 c 0,20,21
 472 409 472 409 492 429 c 0,22,23
 511 448 511 448 539 448 c 256,24,25
 567 448 567 448 586 429 c 0,26,27
 606 409 606 409 606 382 c 0,28,29
 606 354 606 354 586 334 c 0,30,31
 567 315 567 315 539 315 c 256,16,17
382 472 m 0,32,33
 354 472 354 472 334 492 c 0,34,35
 315 511 315 511 315 539 c 256,36,37
 315 567 315 567 334 586 c 0,38,39
 354 606 354 606 382 606 c 0,40,41
 409 606 409 606 429 586 c 0,42,43
 448 567 448 567 448 539 c 256,44,45
 448 511 448 511 429 492 c 0,46,47
 409 472 409 472 382 472 c 0,32,33
539 472 m 256,48,49
 511 472 511 472 492 492 c 0,50,51
 472 511 472 511 472 539 c 256,52,53
 472 567 472 567 492 586 c 0,54,55
 511 606 511 606 539 606 c 256,56,57
 567 606 567 606 586 586 c 0,58,59
 606 567 606 567 606 539 c 256,60,61
 606 511 606 511 586 492 c 0,62,63
 567 472 567 472 539 472 c 256,48,49
66 630 m 0,64,65
 39 630 39 630 19 649 c 0,66,67
 0 669 0 669 0 697 c 0,68,69
 0 724 0 724 19 744 c 0,70,71
 39 764 39 764 66 764 c 0,72,73
 94 764 94 764 114 744 c 0,74,75
 133 724 133 724 133 697 c 0,76,77
 133 669 133 669 114 649 c 0,78,79
 94 630 94 630 66 630 c 0,64,65
224 630 m 256,80,81
 196 630 196 630 177 649 c 0,82,83
 157 669 157 669 157 697 c 0,84,85
 157 724 157 724 177 744 c 0,86,87
 196 764 196 764 224 764 c 256,88,89
 252 764 252 764 271 744 c 0,90,91
 291 724 291 724 291 697 c 0,92,93
 291 669 291 669 271 649 c 0,94,95
 252 630 252 630 224 630 c 256,80,81
382 630 m 0,96,97
 354 630 354 630 334 649 c 0,98,99
 315 669 315 669 315 697 c 0,100,101
 315 724 315 724 334 744 c 0,102,103
 354 764 354 764 382 764 c 0,104,105
 409 764 409 764 429 744 c 0,106,107
 448 724 448 724 448 697 c 0,108,109
 448 669 448 669 429 649 c 0,110,111
 409 630 409 630 382 630 c 0,96,97
539 630 m 256,112,113
 511 630 511 630 492 649 c 0,114,115
 472 669 472 669 472 697 c 0,116,117
 472 724 472 724 492 744 c 0,118,119
 511 764 511 764 539 764 c 256,120,121
 567 764 567 764 586 744 c 0,122,123
 606 724 606 724 606 697 c 0,124,125
 606 669 606 669 586 649 c 0,126,127
 567 630 567 630 539 630 c 256,112,113
697 630 m 0,128,129
 669 630 669 630 649 649 c 0,130,131
 630 669 630 669 630 697 c 0,132,133
 630 724 630 724 649 744 c 0,134,135
 669 764 669 764 697 764 c 0,136,137
 724 764 724 764 744 744 c 256,138,139
 764 724 764 724 764 697 c 0,140,141
 764 669 764 669 744 649 c 0,142,143
 724 630 724 630 697 630 c 0,128,129
854 630 m 256,144,145
 826 630 826 630 807 649 c 0,146,147
 787 669 787 669 787 697 c 0,148,149
 787 724 787 724 807 744 c 0,150,151
 826 764 826 764 854 764 c 256,152,153
 882 764 882 764 902 744 c 0,154,155
 921 724 921 724 921 697 c 0,156,157
 921 669 921 669 902 649 c 0,158,159
 882 630 882 630 854 630 c 256,144,145
66 787 m 0,160,161
 39 787 39 787 19 807 c 0,162,163
 0 826 0 826 0 854 c 256,164,165
 0 882 0 882 19 902 c 0,166,167
 39 921 39 921 66 921 c 0,168,169
 94 921 94 921 114 902 c 0,170,171
 133 882 133 882 133 854 c 256,172,173
 133 826 133 826 114 807 c 0,174,175
 94 787 94 787 66 787 c 0,160,161
224 787 m 256,176,177
 196 787 196 787 177 807 c 0,178,179
 157 826 157 826 157 854 c 256,180,181
 157 882 157 882 177 902 c 0,182,183
 196 921 196 921 224 921 c 256,184,185
 252 921 252 921 271 902 c 0,186,187
 291 882 291 882 291 854 c 256,188,189
 291 826 291 826 271 807 c 0,190,191
 252 787 252 787 224 787 c 256,176,177
382 787 m 0,192,193
 354 787 354 787 334 807 c 0,194,195
 315 826 315 826 315 854 c 256,196,197
 315 882 315 882 334 902 c 0,198,199
 354 921 354 921 382 921 c 0,200,201
 409 921 409 921 429 902 c 0,202,203
 448 882 448 882 448 854 c 256,204,205
 448 826 448 826 429 807 c 0,206,207
 409 787 409 787 382 787 c 0,192,193
539 787 m 256,208,209
 511 787 511 787 492 807 c 0,210,211
 472 826 472 826 472 854 c 256,212,213
 472 882 472 882 492 902 c 0,214,215
 511 921 511 921 539 921 c 256,216,217
 567 921 567 921 586 902 c 0,218,219
 606 882 606 882 606 854 c 256,220,221
 606 826 606 826 586 807 c 0,222,223
 567 787 567 787 539 787 c 256,208,209
697 787 m 0,224,225
 669 787 669 787 649 807 c 0,226,227
 630 826 630 826 630 854 c 256,228,229
 630 882 630 882 649 902 c 0,230,231
 669 921 669 921 697 921 c 0,232,233
 724 921 724 921 744 902 c 0,234,235
 764 882 764 882 764 854 c 256,236,237
 764 826 764 826 744 807 c 0,238,239
 724 787 724 787 697 787 c 0,224,225
854 787 m 256,240,241
 826 787 826 787 807 807 c 0,242,243
 787 826 787 826 787 854 c 256,244,245
 787 882 787 882 807 902 c 0,246,247
 826 921 826 921 854 921 c 256,248,249
 882 921 882 921 902 902 c 0,250,251
 921 882 921 882 921 854 c 256,252,253
 921 826 921 826 902 807 c 0,254,255
 882 787 882 787 854 787 c 256,240,241
382 945 m 0,256,257
 354 945 354 945 334 964 c 0,258,259
 315 984 315 984 315 1012 c 0,260,261
 315 1039 315 1039 334 1059 c 0,262,263
 354 1079 354 1079 382 1079 c 0,264,265
 409 1079 409 1079 429 1059 c 0,266,267
 448 1039 448 1039 448 1012 c 0,268,269
 448 984 448 984 429 964 c 0,270,271
 409 945 409 945 382 945 c 0,256,257
539 945 m 256,272,273
 511 945 511 945 492 964 c 0,274,275
 472 984 472 984 472 1012 c 0,276,277
 472 1039 472 1039 492 1059 c 0,278,279
 511 1079 511 1079 539 1079 c 256,280,281
 567 1079 567 1079 586 1059 c 0,282,283
 606 1039 606 1039 606 1012 c 0,284,285
 606 984 606 984 586 964 c 0,286,287
 567 945 567 945 539 945 c 256,272,273
382 1102 m 0,288,289
 354 1102 354 1102 334 1122 c 0,290,291
 315 1142 315 1142 315 1169 c 0,292,293
 315 1197 315 1197 334 1217 c 0,294,295
 354 1236 354 1236 382 1236 c 0,296,297
 409 1236 409 1236 429 1217 c 0,298,299
 448 1197 448 1197 448 1169 c 0,300,301
 448 1142 448 1142 429 1122 c 0,302,303
 409 1102 409 1102 382 1102 c 0,288,289
539 1102 m 256,304,305
 511 1102 511 1102 492 1122 c 0,306,307
 472 1142 472 1142 472 1169 c 0,308,309
 472 1197 472 1197 492 1217 c 0,310,311
 511 1236 511 1236 539 1236 c 256,312,313
 567 1236 567 1236 586 1217 c 0,314,315
 606 1197 606 1197 606 1169 c 0,316,317
 606 1142 606 1142 586 1122 c 0,318,319
 567 1102 567 1102 539 1102 c 256,304,305
EndSplineSet
Validated: 1
EndChar

StartChar: comma
Encoding: 44 44 13
Width: 472
GlyphClass: 1
Flags: W
LayerCount: 2
Fore
SplineSet
66 0 m 0,0,1
 39 0 39 0 19 19 c 0,2,3
 0 39 0 39 0 66 c 0,4,5
 0 94 0 94 19 114 c 0,6,7
 39 133 39 133 66 133 c 0,8,9
 94 133 94 133 114 114 c 0,10,11
 133 94 133 94 133 66 c 0,12,13
 133 39 133 39 114 19 c 0,14,15
 94 0 94 0 66 0 c 0,0,1
224 0 m 256,16,17
 196 0 196 0 177 19 c 0,18,19
 157 39 157 39 157 66 c 0,20,21
 157 94 157 94 177 114 c 0,22,23
 196 133 196 133 224 133 c 256,24,25
 252 133 252 133 271 114 c 0,26,27
 291 94 291 94 291 66 c 0,28,29
 291 39 291 39 271 19 c 0,30,31
 252 0 252 0 224 0 c 256,16,17
66 157 m 0,32,33
 39 157 39 157 19 177 c 0,34,35
 0 196 0 196 0 224 c 256,36,37
 0 252 0 252 19 271 c 0,38,39
 39 291 39 291 66 291 c 0,40,41
 94 291 94 291 114 271 c 0,42,43
 133 252 133 252 133 224 c 256,44,45
 133 196 133 196 114 177 c 0,46,47
 94 157 94 157 66 157 c 0,32,33
224 157 m 256,48,49
 196 157 196 157 177 177 c 0,50,51
 157 196 157 196 157 224 c 256,52,53
 157 252 157 252 177 271 c 0,54,55
 196 291 196 291 224 291 c 256,56,57
 252 291 252 291 271 271 c 0,58,59
 291 252 291 252 291 224 c 256,60,61
 291 196 291 196 271 177 c 0,62,63
 252 157 252 157 224 157 c 256,48,49
66 315 m 0,64,65
 39 315 39 315 19 334 c 0,66,67
 0 354 0 354 0 382 c 0,68,69
 0 409 0 409 19 429 c 0,70,71
 39 448 39 448 66 448 c 0,72,73
 94 448 94 448 114 429 c 0,74,75
 133 409 133 409 133 382 c 0,76,77
 133 354 133 354 114 334 c 0,78,79
 94 315 94 315 66 315 c 0,64,65
224 315 m 256,80,81
 196 315 196 315 177 334 c 0,82,83
 157 354 157 354 157 382 c 0,84,85
 157 409 157 409 177 429 c 0,86,87
 196 448 196 448 224 448 c 256,88,89
 252 448 252 448 271 429 c 0,90,91
 291 409 291 409 291 382 c 0,92,93
 291 354 291 354 271 334 c 0,94,95
 252 315 252 315 224 315 c 256,80,81
66 472 m 0,96,97
 39 472 39 472 19 492 c 0,98,99
 0 511 0 511 0 539 c 256,100,101
 0 567 0 567 19 586 c 0,102,103
 39 606 39 606 66 606 c 0,104,105
 94 606 94 606 114 586 c 0,106,107
 133 567 133 567 133 539 c 256,108,109
 133 511 133 511 114 492 c 0,110,111
 94 472 94 472 66 472 c 0,96,97
224 472 m 256,112,113
 196 472 196 472 177 492 c 0,114,115
 157 511 157 511 157 539 c 256,116,117
 157 567 157 567 177 586 c 0,118,119
 196 606 196 606 224 606 c 256,120,121
 252 606 252 606 271 586 c 0,122,123
 291 567 291 567 291 539 c 256,124,125
 291 511 291 511 271 492 c 0,126,127
 252 472 252 472 224 472 c 256,112,113
EndSplineSet
Validated: 1
EndChar

StartChar: hyphen
Encoding: 45 45 14
Width: 1102
GlyphClass: 1
Flags: W
LayerCount: 2
Fore
SplineSet
66 945 m 0,0,1
 39 945 39 945 19 964 c 0,2,3
 0 984 0 984 0 1012 c 0,4,5
 0 1039 0 1039 19 1059 c 0,6,7
 39 1079 39 1079 66 1079 c 0,8,9
 94 1079 94 1079 114 1059 c 0,10,11
 133 1039 133 1039 133 1012 c 0,12,13
 133 984 133 984 114 964 c 0,14,15
 94 945 94 945 66 945 c 0,0,1
224 945 m 256,16,17
 196 945 196 945 177 964 c 0,18,19
 157 984 157 984 157 1012 c 0,20,21
 157 1039 157 1039 177 1059 c 0,22,23
 196 1079 196 1079 224 1079 c 256,24,25
 252 1079 252 1079 271 1059 c 0,26,27
 291 1039 291 1039 291 1012 c 0,28,29
 291 984 291 984 271 964 c 0,30,31
 252 945 252 945 224 945 c 256,16,17
382 945 m 0,32,33
 354 945 354 945 334 964 c 0,34,35
 315 984 315 984 315 1012 c 0,36,37
 315 1039 315 1039 334 1059 c 0,38,39
 354 1079 354 1079 382 1079 c 0,40,41
 409 1079 409 1079 429 1059 c 0,42,43
 448 1039 448 1039 448 1012 c 0,44,45
 448 984 448 984 429 964 c 0,46,47
 409 945 409 945 382 945 c 0,32,33
539 945 m 256,48,49
 511 945 511 945 492 964 c 0,50,51
 472 984 472 984 472 1012 c 0,52,53
 472 1039 472 1039 492 1059 c 0,54,55
 511 1079 511 1079 539 1079 c 256,56,57
 567 1079 567 1079 586 1059 c 0,58,59
 606 1039 606 1039 606 1012 c 0,60,61
 606 984 606 984 586 964 c 0,62,63
 567 945 567 945 539 945 c 256,48,49
697 945 m 0,64,65
 669 945 669 945 649 964 c 0,66,67
 630 984 630 984 630 1012 c 0,68,69
 630 1039 630 1039 649 1059 c 0,70,71
 669 1079 669 1079 697 1079 c 0,72,73
 724 1079 724 1079 744 1059 c 256,74,75
 764 1039 764 1039 764 1012 c 0,76,77
 764 984 764 984 744 964 c 0,78,79
 724 945 724 945 697 945 c 0,64,65
854 945 m 256,80,81
 826 945 826 945 807 964 c 0,82,83
 787 984 787 984 787 1012 c 0,84,85
 787 1039 787 1039 807 1059 c 0,86,87
 826 1079 826 1079 854 1079 c 256,88,89
 882 1079 882 1079 902 1059 c 0,90,91
 921 1039 921 1039 921 1012 c 0,92,93
 921 984 921 984 902 964 c 0,94,95
 882 945 882 945 854 945 c 256,80,81
66 1102 m 0,96,97
 39 1102 39 1102 19 1122 c 0,98,99
 0 1142 0 1142 0 1169 c 0,100,101
 0 1197 0 1197 19 1217 c 0,102,103
 39 1236 39 1236 66 1236 c 0,104,105
 94 1236 94 1236 114 1217 c 0,106,107
 133 1197 133 1197 133 1169 c 0,108,109
 133 1142 133 1142 114 1122 c 0,110,111
 94 1102 94 1102 66 1102 c 0,96,97
224 1102 m 256,112,113
 196 1102 196 1102 177 1122 c 0,114,115
 157 1142 157 1142 157 1169 c 0,116,117
 157 1197 157 1197 177 1217 c 0,118,119
 196 1236 196 1236 224 1236 c 256,120,121
 252 1236 252 1236 271 1217 c 0,122,123
 291 1197 291 1197 291 1169 c 0,124,125
 291 1142 291 1142 271 1122 c 0,126,127
 252 1102 252 1102 224 1102 c 256,112,113
382 1102 m 0,128,129
 354 1102 354 1102 334 1122 c 0,130,131
 315 1142 315 1142 315 1169 c 0,132,133
 315 1197 315 1197 334 1217 c 0,134,135
 354 1236 354 1236 382 1236 c 0,136,137
 409 1236 409 1236 429 1217 c 0,138,139
 448 1197 448 1197 448 1169 c 0,140,141
 448 1142 448 1142 429 1122 c 0,142,143
 409 1102 409 1102 382 1102 c 0,128,129
539 1102 m 256,144,145
 511 1102 511 1102 492 1122 c 0,146,147
 472 1142 472 1142 472 1169 c 0,148,149
 472 1197 472 1197 492 1217 c 0,150,151
 511 1236 511 1236 539 1236 c 256,152,153
 567 1236 567 1236 586 1217 c 0,154,155
 606 1197 606 1197 606 1169 c 0,156,157
 606 1142 606 1142 586 1122 c 0,158,159
 567 1102 567 1102 539 1102 c 256,144,145
697 1102 m 0,160,161
 669 1102 669 1102 649 1122 c 0,162,163
 630 1142 630 1142 630 1169 c 0,164,165
 630 1197 630 1197 649 1217 c 0,166,167
 669 1236 669 1236 697 1236 c 0,168,169
 724 1236 724 1236 744 1217 c 0,170,171
 764 1197 764 1197 764 1169 c 0,172,173
 764 1142 764 1142 744 1122 c 256,174,175
 724 1102 724 1102 697 1102 c 0,160,161
854 1102 m 256,176,177
 826 1102 826 1102 807 1122 c 0,178,179
 787 1142 787 1142 787 1169 c 0,180,181
 787 1197 787 1197 807 1217 c 0,182,183
 826 1236 826 1236 854 1236 c 256,184,185
 882 1236 882 1236 902 1217 c 0,186,187
 921 1197 921 1197 921 1169 c 0,188,189
 921 1142 921 1142 902 1122 c 0,190,191
 882 1102 882 1102 854 1102 c 256,176,177
EndSplineSet
Validated: 1
EndChar

StartChar: period
Encoding: 46 46 15
Width: 472
GlyphClass: 1
Flags: W
LayerCount: 2
Fore
SplineSet
66 0 m 0,0,1
 39 0 39 0 19 19 c 0,2,3
 0 39 0 39 0 66 c 0,4,5
 0 94 0 94 19 114 c 0,6,7
 39 133 39 133 66 133 c 0,8,9
 94 133 94 133 114 114 c 0,10,11
 133 94 133 94 133 66 c 0,12,13
 133 39 133 39 114 19 c 0,14,15
 94 0 94 0 66 0 c 0,0,1
224 0 m 256,16,17
 196 0 196 0 177 19 c 0,18,19
 157 39 157 39 157 66 c 0,20,21
 157 94 157 94 177 114 c 0,22,23
 196 133 196 133 224 133 c 256,24,25
 252 133 252 133 271 114 c 0,26,27
 291 94 291 94 291 66 c 0,28,29
 291 39 291 39 271 19 c 0,30,31
 252 0 252 0 224 0 c 256,16,17
66 157 m 0,32,33
 39 157 39 157 19 177 c 0,34,35
 0 196 0 196 0 224 c 256,36,37
 0 252 0 252 19 271 c 0,38,39
 39 291 39 291 66 291 c 0,40,41
 94 291 94 291 114 271 c 0,42,43
 133 252 133 252 133 224 c 256,44,45
 133 196 133 196 114 177 c 0,46,47
 94 157 94 157 66 157 c 0,32,33
224 157 m 256,48,49
 196 157 196 157 177 177 c 0,50,51
 157 196 157 196 157 224 c 256,52,53
 157 252 157 252 177 271 c 0,54,55
 196 291 196 291 224 291 c 256,56,57
 252 291 252 291 271 271 c 0,58,59
 291 252 291 252 291 224 c 256,60,61
 291 196 291 196 271 177 c 0,62,63
 252 157 252 157 224 157 c 256,48,49
EndSplineSet
Validated: 1
EndChar

StartChar: slash
Encoding: 47 47 16
Width: 1260
GlyphClass: 1
Flags: W
LayerCount: 2
Fore
SplineSet
66 0 m 0,0,1
 39 0 39 0 19 19 c 0,2,3
 0 39 0 39 0 66 c 0,4,5
 0 94 0 94 19 114 c 0,6,7
 39 133 39 133 66 133 c 0,8,9
 94 133 94 133 114 114 c 0,10,11
 133 94 133 94 133 66 c 0,12,13
 133 39 133 39 114 19 c 0,14,15
 94 0 94 0 66 0 c 0,0,1
224 0 m 256,16,17
 196 0 196 0 177 19 c 0,18,19
 157 39 157 39 157 66 c 0,20,21
 157 94 157 94 177 114 c 0,22,23
 196 133 196 133 224 133 c 256,24,25
 252 133 252 133 271 114 c 0,26,27
 291 94 291 94 291 66 c 0,28,29
 291 39 291 39 271 19 c 0,30,31
 252 0 252 0 224 0 c 256,16,17
66 157 m 0,32,33
 39 157 39 157 19 177 c 0,34,35
 0 196 0 196 0 224 c 256,36,37
 0 252 0 252 19 271 c 0,38,39
 39 291 39 291 66 291 c 0,40,41
 94 291 94 291 114 271 c 0,42,43
 133 252 133 252 133 224 c 256,44,45
 133 196 133 196 114 177 c 0,46,47
 94 157 94 157 66 157 c 0,32,33
224 157 m 256,48,49
 196 157 196 157 177 177 c 0,50,51
 157 196 157 196 157 224 c 256,52,53
 157 252 157 252 177 271 c 0,54,55
 196 291 196 291 224 291 c 256,56,57
 252 291 252 291 271 271 c 0,58,59
 291 252 291 252 291 224 c 256,60,61
 291 196 291 196 271 177 c 0,62,63
 252 157 252 157 224 157 c 256,48,49
224 315 m 256,64,65
 196 315 196 315 177 334 c 0,66,67
 157 354 157 354 157 382 c 0,68,69
 157 409 157 409 177 429 c 0,70,71
 196 448 196 448 224 448 c 256,72,73
 252 448 252 448 271 429 c 0,74,75
 291 409 291 409 291 382 c 0,76,77
 291 354 291 354 271 334 c 0,78,79
 252 315 252 315 224 315 c 256,64,65
382 315 m 0,80,81
 354 315 354 315 334 334 c 0,82,83
 315 354 315 354 315 382 c 0,84,85
 315 409 315 409 334 429 c 0,86,87
 354 448 354 448 382 448 c 0,88,89
 409 448 409 448 429 429 c 0,90,91
 448 409 448 409 448 382 c 0,92,93
 448 354 448 354 429 334 c 0,94,95
 409 315 409 315 382 315 c 0,80,81
224 472 m 256,96,97
 196 472 196 472 177 492 c 0,98,99
 157 511 157 511 157 539 c 256,100,101
 157 567 157 567 177 586 c 0,102,103
 196 606 196 606 224 606 c 256,104,105
 252 606 252 606 271 586 c 0,106,107
 291 567 291 567 291 539 c 256,108,109
 291 511 291 511 271 492 c 0,110,111
 252 472 252 472 224 472 c 256,96,97
382 472 m 0,112,113
 354 472 354 472 334 492 c 0,114,115
 315 511 315 511 315 539 c 256,116,117
 315 567 315 567 334 586 c 0,118,119
 354 606 354 606 382 606 c 0,120,121
 409 606 409 606 429 586 c 0,122,123
 448 567 448 567 448 539 c 256,124,125
 448 511 448 511 429 492 c 0,126,127
 409 472 409 472 382 472 c 0,112,113
382 630 m 0,128,129
 354 630 354 630 334 649 c 0,130,131
 315 669 315 669 315 697 c 0,132,133
 315 724 315 724 334 744 c 0,134,135
 354 764 354 764 382 764 c 0,136,137
 409 764 409 764 429 744 c 0,138,139
 448 724 448 724 448 697 c 0,140,141
 448 669 448 669 429 649 c 0,142,143
 409 630 409 630 382 630 c 0,128,129
539 630 m 256,144,145
 511 630 511 630 492 649 c 0,146,147
 472 669 472 669 472 697 c 0,148,149
 472 724 472 724 492 744 c 0,150,151
 511 764 511 764 539 764 c 256,152,153
 567 764 567 764 586 744 c 0,154,155
 606 724 606 724 606 697 c 0,156,157
 606 669 606 669 586 649 c 0,158,159
 567 630 567 630 539 630 c 256,144,145
382 787 m 0,160,161
 354 787 354 787 334 807 c 0,162,163
 315 826 315 826 315 854 c 256,164,165
 315 882 315 882 334 902 c 0,166,167
 354 921 354 921 382 921 c 0,168,169
 409 921 409 921 429 902 c 0,170,171
 448 882 448 882 448 854 c 256,172,173
 448 826 448 826 429 807 c 0,174,175
 409 787 409 787 382 787 c 0,160,161
539 787 m 256,176,177
 511 787 511 787 492 807 c 0,178,179
 472 826 472 826 472 854 c 256,180,181
 472 882 472 882 492 902 c 0,182,183
 511 921 511 921 539 921 c 256,184,185
 567 921 567 921 586 902 c 0,186,187
 606 882 606 882 606 854 c 256,188,189
 606 826 606 826 586 807 c 0,190,191
 567 787 567 787 539 787 c 256,176,177
697 787 m 0,192,193
 669 787 669 787 649 807 c 0,194,195
 630 826 630 826 630 854 c 256,196,197
 630 882 630 882 649 902 c 0,198,199
 669 921 669 921 697 921 c 0,200,201
 724 921 724 921 744 902 c 0,202,203
 764 882 764 882 764 854 c 256,204,205
 764 826 764 826 744 807 c 0,206,207
 724 787 724 787 697 787 c 0,192,193
539 945 m 256,208,209
 511 945 511 945 492 964 c 0,210,211
 472 984 472 984 472 1012 c 0,212,213
 472 1039 472 1039 492 1059 c 0,214,215
 511 1079 511 1079 539 1079 c 256,216,217
 567 1079 567 1079 586 1059 c 0,218,219
 606 1039 606 1039 606 1012 c 0,220,221
 606 984 606 984 586 964 c 0,222,223
 567 945 567 945 539 945 c 256,208,209
697 945 m 0,224,225
 669 945 669 945 649 964 c 0,226,227
 630 984 630 984 630 1012 c 0,228,229
 630 1039 630 1039 649 1059 c 0,230,231
 669 1079 669 1079 697 1079 c 0,232,233
 724 1079 724 1079 744 1059 c 256,234,235
 764 1039 764 1039 764 1012 c 0,236,237
 764 984 764 984 744 964 c 0,238,239
 724 945 724 945 697 945 c 0,224,225
697 1102 m 0,240,241
 669 1102 669 1102 649 1122 c 0,242,243
 630 1142 630 1142 630 1169 c 0,244,245
 630 1197 630 1197 649 1217 c 0,246,247
 669 1236 669 1236 697 1236 c 0,248,249
 724 1236 724 1236 744 1217 c 0,250,251
 764 1197 764 1197 764 1169 c 0,252,253
 764 1142 764 1142 744 1122 c 256,254,255
 724 1102 724 1102 697 1102 c 0,240,241
854 1102 m 256,256,257
 826 1102 826 1102 807 1122 c 0,258,259
 787 1142 787 1142 787 1169 c 0,260,261
 787 1197 787 1197 807 1217 c 0,262,263
 826 1236 826 1236 854 1236 c 256,264,265
 882 1236 882 1236 902 1217 c 0,266,267
 921 1197 921 1197 921 1169 c 0,268,269
 921 1142 921 1142 902 1122 c 0,270,271
 882 1102 882 1102 854 1102 c 256,256,257
697 1260 m 0,272,273
 669 1260 669 1260 649 1279 c 0,274,275
 630 1299 630 1299 630 1327 c 0,276,277
 630 1354 630 1354 649 1374 c 0,278,279
 669 1394 669 1394 697 1394 c 0,280,281
 724 1394 724 1394 744 1374 c 256,282,283
 764 1354 764 1354 764 1327 c 0,284,285
 764 1299 764 1299 744 1279 c 0,286,287
 724 1260 724 1260 697 1260 c 0,272,273
854 1260 m 256,288,289
 826 1260 826 1260 807 1279 c 0,290,291
 787 1299 787 1299 787 1327 c 0,292,293
 787 1354 787 1354 807 1374 c 0,294,295
 826 1394 826 1394 854 1394 c 256,296,297
 882 1394 882 1394 902 1374 c 0,298,299
 921 1354 921 1354 921 1327 c 0,300,301
 921 1299 921 1299 902 1279 c 0,302,303
 882 1260 882 1260 854 1260 c 256,288,289
854 1417 m 256,304,305
 826 1417 826 1417 807 1437 c 0,306,307
 787 1457 787 1457 787 1484 c 0,308,309
 787 1512 787 1512 807 1532 c 0,310,311
 826 1551 826 1551 854 1551 c 256,312,313
 882 1551 882 1551 902 1532 c 0,314,315
 921 1512 921 1512 921 1484 c 0,316,317
 921 1457 921 1457 902 1437 c 0,318,319
 882 1417 882 1417 854 1417 c 256,304,305
1012 1417 m 0,320,321
 984 1417 984 1417 964 1437 c 0,322,323
 945 1457 945 1457 945 1484 c 0,324,325
 945 1512 945 1512 964 1532 c 0,326,327
 984 1551 984 1551 1012 1551 c 0,328,329
 1039 1551 1039 1551 1059 1532 c 0,330,331
 1079 1512 1079 1512 1079 1484 c 0,332,333
 1079 1457 1079 1457 1059 1437 c 256,334,335
 1039 1417 1039 1417 1012 1417 c 0,320,321
854 1575 m 256,336,337
 826 1575 826 1575 807 1594 c 0,338,339
 787 1614 787 1614 787 1642 c 256,340,341
 787 1670 787 1670 807 1689 c 0,342,343
 826 1709 826 1709 854 1709 c 256,344,345
 882 1709 882 1709 902 1689 c 0,346,347
 921 1670 921 1670 921 1642 c 256,348,349
 921 1614 921 1614 902 1594 c 0,350,351
 882 1575 882 1575 854 1575 c 256,336,337
1012 1575 m 0,352,353
 984 1575 984 1575 964 1594 c 0,354,355
 945 1614 945 1614 945 1642 c 256,356,357
 945 1670 945 1670 964 1689 c 0,358,359
 984 1709 984 1709 1012 1709 c 0,360,361
 1039 1709 1039 1709 1059 1689 c 0,362,363
 1079 1670 1079 1670 1079 1642 c 256,364,365
 1079 1614 1079 1614 1059 1594 c 0,366,367
 1039 1575 1039 1575 1012 1575 c 0,352,353
EndSplineSet
Validated: 1
EndChar

StartChar: zero
Encoding: 48 48 17
Width: 1575
GlyphClass: 1
Flags: W
LayerCount: 2
Fore
SplineSet
382 0 m 0,0,1
 354 0 354 0 334 19 c 0,2,3
 315 39 315 39 315 66 c 0,4,5
 315 94 315 94 334 114 c 0,6,7
 354 133 354 133 382 133 c 0,8,9
 409 133 409 133 429 114 c 0,10,11
 448 94 448 94 448 66 c 0,12,13
 448 39 448 39 429 19 c 0,14,15
 409 0 409 0 382 0 c 0,0,1
539 0 m 256,16,17
 511 0 511 0 492 19 c 0,18,19
 472 39 472 39 472 66 c 0,20,21
 472 94 472 94 492 114 c 0,22,23
 511 133 511 133 539 133 c 256,24,25
 567 133 567 133 586 114 c 0,26,27
 606 94 606 94 606 66 c 0,28,29
 606 39 606 39 586 19 c 0,30,31
 567 0 567 0 539 0 c 256,16,17
697 0 m 0,32,33
 669 0 669 0 649 19 c 0,34,35
 630 39 630 39 630 66 c 0,36,37
 630 94 630 94 649 114 c 0,38,39
 669 133 669 133 697 133 c 0,40,41
 724 133 724 133 744 114 c 0,42,43
 764 94 764 94 764 66 c 0,44,45
 764 39 764 39 744 19 c 0,46,47
 724 0 724 0 697 0 c 0,32,33
854 0 m 256,48,49
 826 0 826 0 807 19 c 0,50,51
 787 39 787 39 787 66 c 0,52,53
 787 94 787 94 807 114 c 0,54,55
 826 133 826 133 854 133 c 256,56,57
 882 133 882 133 902 114 c 0,58,59
 921 94 921 94 921 66 c 0,60,61
 921 39 921 39 902 19 c 0,62,63
 882 0 882 0 854 0 c 256,48,49
1012 0 m 0,64,65
 984 0 984 0 964 19 c 0,66,67
 945 39 945 39 945 66 c 0,68,69
 945 94 945 94 964 114 c 0,70,71
 984 133 984 133 1012 133 c 0,72,73
 1039 133 1039 133 1059 114 c 0,74,75
 1079 94 1079 94 1079 66 c 0,76,77
 1079 39 1079 39 1059 19 c 0,78,79
 1039 0 1039 0 1012 0 c 0,64,65
224 157 m 256,80,81
 196 157 196 157 177 177 c 0,82,83
 157 196 157 196 157 224 c 256,84,85
 157 252 157 252 177 271 c 0,86,87
 196 291 196 291 224 291 c 256,88,89
 252 291 252 291 271 271 c 0,90,91
 291 252 291 252 291 224 c 256,92,93
 291 196 291 196 271 177 c 0,94,95
 252 157 252 157 224 157 c 256,80,81
382 157 m 0,96,97
 354 157 354 157 334 177 c 0,98,99
 315 196 315 196 315 224 c 256,100,101
 315 252 315 252 334 271 c 0,102,103
 354 291 354 291 382 291 c 0,104,105
 409 291 409 291 429 271 c 0,106,107
 448 252 448 252 448 224 c 256,108,109
 448 196 448 196 429 177 c 0,110,111
 409 157 409 157 382 157 c 0,96,97
539 157 m 256,112,113
 511 157 511 157 492 177 c 0,114,115
 472 196 472 196 472 224 c 256,116,117
 472 252 472 252 492 271 c 0,118,119
 511 291 511 291 539 291 c 256,120,121
 567 291 567 291 586 271 c 0,122,123
 606 252 606 252 606 224 c 256,124,125
 606 196 606 196 586 177 c 0,126,127
 567 157 567 157 539 157 c 256,112,113
697 157 m 0,128,129
 669 157 669 157 649 177 c 0,130,131
 630 196 630 196 630 224 c 256,132,133
 630 252 630 252 649 271 c 0,134,135
 669 291 669 291 697 291 c 0,136,137
 724 291 724 291 744 271 c 0,138,139
 764 252 764 252 764 224 c 256,140,141
 764 196 764 196 744 177 c 0,142,143
 724 157 724 157 697 157 c 0,128,129
854 157 m 256,144,145
 826 157 826 157 807 177 c 0,146,147
 787 196 787 196 787 224 c 256,148,149
 787 252 787 252 807 271 c 0,150,151
 826 291 826 291 854 291 c 256,152,153
 882 291 882 291 902 271 c 0,154,155
 921 252 921 252 921 224 c 256,156,157
 921 196 921 196 902 177 c 0,158,159
 882 157 882 157 854 157 c 256,144,145
1012 157 m 0,160,161
 984 157 984 157 964 177 c 0,162,163
 945 196 945 196 945 224 c 256,164,165
 945 252 945 252 964 271 c 0,166,167
 984 291 984 291 1012 291 c 0,168,169
 1039 291 1039 291 1059 271 c 0,170,171
 1079 252 1079 252 1079 224 c 256,172,173
 1079 196 1079 196 1059 177 c 0,174,175
 1039 157 1039 157 1012 157 c 0,160,161
1169 157 m 0,176,177
 1142 157 1142 157 1122 177 c 0,178,179
 1102 196 1102 196 1102 224 c 256,180,181
 1102 252 1102 252 1122 271 c 0,182,183
 1142 291 1142 291 1169 291 c 0,184,185
 1197 291 1197 291 1217 271 c 0,186,187
 1236 252 1236 252 1236 224 c 256,188,189
 1236 196 1236 196 1217 177 c 0,190,191
 1197 157 1197 157 1169 157 c 0,176,177
224 315 m 256,192,193
 196 315 196 315 177 334 c 0,194,195
 157 354 157 354 157 382 c 0,196,197
 157 409 157 409 177 429 c 0,198,199
 196 448 196 448 224 448 c 256,200,201
 252 448 252 448 271 429 c 0,202,203
 291 409 291 409 291 382 c 0,204,205
 291 354 291 354 271 334 c 0,206,207
 252 315 252 315 224 315 c 256,192,193
382 315 m 0,208,209
 354 315 354 315 334 334 c 0,210,211
 315 354 315 354 315 382 c 0,212,213
 315 409 315 409 334 429 c 0,214,215
 354 448 354 448 382 448 c 0,216,217
 409 448 409 448 429 429 c 0,218,219
 448 409 448 409 448 382 c 0,220,221
 448 354 448 354 429 334 c 0,222,223
 409 315 409 315 382 315 c 0,208,209
1012 315 m 0,224,225
 984 315 984 315 964 334 c 0,226,227
 945 354 945 354 945 382 c 0,228,229
 945 409 945 409 964 429 c 0,230,231
 984 448 984 448 1012 448 c 0,232,233
 1039 448 1039 448 1059 429 c 0,234,235
 1079 409 1079 409 1079 382 c 0,236,237
 1079 354 1079 354 1059 334 c 0,238,239
 1039 315 1039 315 1012 315 c 0,224,225
1169 315 m 0,240,241
 1142 315 1142 315 1122 334 c 0,242,243
 1102 354 1102 354 1102 382 c 0,244,245
 1102 409 1102 409 1122 429 c 0,246,247
 1142 448 1142 448 1169 448 c 0,248,249
 1197 448 1197 448 1217 429 c 0,250,251
 1236 409 1236 409 1236 382 c 0,252,253
 1236 354 1236 354 1217 334 c 0,254,255
 1197 315 1197 315 1169 315 c 0,240,241
66 472 m 0,256,257
 39 472 39 472 19 492 c 0,258,259
 0 511 0 511 0 539 c 256,260,261
 0 567 0 567 19 586 c 0,262,263
 39 606 39 606 66 606 c 0,264,265
 94 606 94 606 114 586 c 0,266,267
 133 567 133 567 133 539 c 256,268,269
 133 511 133 511 114 492 c 0,270,271
 94 472 94 472 66 472 c 0,256,257
224 472 m 256,272,273
 196 472 196 472 177 492 c 0,274,275
 157 511 157 511 157 539 c 256,276,277
 157 567 157 567 177 586 c 0,278,279
 196 606 196 606 224 606 c 256,280,281
 252 606 252 606 271 586 c 0,282,283
 291 567 291 567 291 539 c 256,284,285
 291 511 291 511 271 492 c 0,286,287
 252 472 252 472 224 472 c 256,272,273
382 472 m 0,288,289
 354 472 354 472 334 492 c 0,290,291
 315 511 315 511 315 539 c 256,292,293
 315 567 315 567 334 586 c 0,294,295
 354 606 354 606 382 606 c 0,296,297
 409 606 409 606 429 586 c 0,298,299
 448 567 448 567 448 539 c 256,300,301
 448 511 448 511 429 492 c 0,302,303
 409 472 409 472 382 472 c 0,288,289
1012 472 m 0,304,305
 984 472 984 472 964 492 c 0,306,307
 945 511 945 511 945 539 c 256,308,309
 945 567 945 567 964 586 c 0,310,311
 984 606 984 606 1012 606 c 0,312,313
 1039 606 1039 606 1059 586 c 0,314,315
 1079 567 1079 567 1079 539 c 256,316,317
 1079 511 1079 511 1059 492 c 0,318,319
 1039 472 1039 472 1012 472 c 0,304,305
1169 472 m 0,320,321
 1142 472 1142 472 1122 492 c 0,322,323
 1102 511 1102 511 1102 539 c 256,324,325
 1102 567 1102 567 1122 586 c 0,326,327
 1142 606 1142 606 1169 606 c 0,328,329
 1197 606 1197 606 1217 586 c 0,330,331
 1236 567 1236 567 1236 539 c 256,332,333
 1236 511 1236 511 1217 492 c 0,334,335
 1197 472 1197 472 1169 472 c 0,320,321
1327 472 m 0,336,337
 1299 472 1299 472 1279 492 c 0,338,339
 1260 511 1260 511 1260 539 c 256,340,341
 1260 567 1260 567 1279 586 c 0,342,343
 1299 606 1299 606 1327 606 c 0,344,345
 1354 606 1354 606 1374 586 c 0,346,347
 1394 567 1394 567 1394 539 c 256,348,349
 1394 511 1394 511 1374 492 c 0,350,351
 1354 472 1354 472 1327 472 c 0,336,337
66 630 m 0,352,353
 39 630 39 630 19 649 c 0,354,355
 0 669 0 669 0 697 c 0,356,357
 0 724 0 724 19 744 c 0,358,359
 39 764 39 764 66 764 c 0,360,361
 94 764 94 764 114 744 c 0,362,363
 133 724 133 724 133 697 c 0,364,365
 133 669 133 669 114 649 c 0,366,367
 94 630 94 630 66 630 c 0,352,353
224 630 m 256,368,369
 196 630 196 630 177 649 c 0,370,371
 157 669 157 669 157 697 c 0,372,373
 157 724 157 724 177 744 c 0,374,375
 196 764 196 764 224 764 c 256,376,377
 252 764 252 764 271 744 c 0,378,379
 291 724 291 724 291 697 c 0,380,381
 291 669 291 669 271 649 c 0,382,383
 252 630 252 630 224 630 c 256,368,369
1169 630 m 0,384,385
 1142 630 1142 630 1122 649 c 0,386,387
 1102 669 1102 669 1102 697 c 0,388,389
 1102 724 1102 724 1122 744 c 256,390,391
 1142 764 1142 764 1169 764 c 0,392,393
 1197 764 1197 764 1217 744 c 0,394,395
 1236 724 1236 724 1236 697 c 0,396,397
 1236 669 1236 669 1217 649 c 0,398,399
 1197 630 1197 630 1169 630 c 0,384,385
1327 630 m 0,400,401
 1299 630 1299 630 1279 649 c 0,402,403
 1260 669 1260 669 1260 697 c 0,404,405
 1260 724 1260 724 1279 744 c 0,406,407
 1299 764 1299 764 1327 764 c 0,408,409
 1354 764 1354 764 1374 744 c 256,410,411
 1394 724 1394 724 1394 697 c 0,412,413
 1394 669 1394 669 1374 649 c 0,414,415
 1354 630 1354 630 1327 630 c 0,400,401
66 787 m 0,416,417
 39 787 39 787 19 807 c 0,418,419
 0 826 0 826 0 854 c 256,420,421
 0 882 0 882 19 902 c 0,422,423
 39 921 39 921 66 921 c 0,424,425
 94 921 94 921 114 902 c 0,426,427
 133 882 133 882 133 854 c 256,428,429
 133 826 133 826 114 807 c 0,430,431
 94 787 94 787 66 787 c 0,416,417
224 787 m 256,432,433
 196 787 196 787 177 807 c 0,434,435
 157 826 157 826 157 854 c 256,436,437
 157 882 157 882 177 902 c 0,438,439
 196 921 196 921 224 921 c 256,440,441
 252 921 252 921 271 902 c 0,442,443
 291 882 291 882 291 854 c 256,444,445
 291 826 291 826 271 807 c 0,446,447
 252 787 252 787 224 787 c 256,432,433
1169 787 m 0,448,449
 1142 787 1142 787 1122 807 c 0,450,451
 1102 826 1102 826 1102 854 c 256,452,453
 1102 882 1102 882 1122 902 c 0,454,455
 1142 921 1142 921 1169 921 c 0,456,457
 1197 921 1197 921 1217 902 c 0,458,459
 1236 882 1236 882 1236 854 c 256,460,461
 1236 826 1236 826 1217 807 c 0,462,463
 1197 787 1197 787 1169 787 c 0,448,449
1327 787 m 0,464,465
 1299 787 1299 787 1279 807 c 0,466,467
 1260 826 1260 826 1260 854 c 256,468,469
 1260 882 1260 882 1279 902 c 0,470,471
 1299 921 1299 921 1327 921 c 0,472,473
 1354 921 1354 921 1374 902 c 0,474,475
 1394 882 1394 882 1394 854 c 256,476,477
 1394 826 1394 826 1374 807 c 0,478,479
 1354 787 1354 787 1327 787 c 0,464,465
66 945 m 0,480,481
 39 945 39 945 19 964 c 0,482,483
 0 984 0 984 0 1012 c 0,484,485
 0 1039 0 1039 19 1059 c 0,486,487
 39 1079 39 1079 66 1079 c 0,488,489
 94 1079 94 1079 114 1059 c 0,490,491
 133 1039 133 1039 133 1012 c 0,492,493
 133 984 133 984 114 964 c 0,494,495
 94 945 94 945 66 945 c 0,480,481
224 945 m 256,496,497
 196 945 196 945 177 964 c 0,498,499
 157 984 157 984 157 1012 c 0,500,501
 157 1039 157 1039 177 1059 c 0,502,503
 196 1079 196 1079 224 1079 c 256,504,505
 252 1079 252 1079 271 1059 c 0,506,507
 291 1039 291 1039 291 1012 c 0,508,509
 291 984 291 984 271 964 c 0,510,511
 252 945 252 945 224 945 c 256,496,497
1169 945 m 0,512,513
 1142 945 1142 945 1122 964 c 0,514,515
 1102 984 1102 984 1102 1012 c 0,516,517
 1102 1039 1102 1039 1122 1059 c 256,518,519
 1142 1079 1142 1079 1169 1079 c 0,520,521
 1197 1079 1197 1079 1217 1059 c 0,522,523
 1236 1039 1236 1039 1236 1012 c 0,524,525
 1236 984 1236 984 1217 964 c 0,526,527
 1197 945 1197 945 1169 945 c 0,512,513
1327 945 m 0,528,529
 1299 945 1299 945 1279 964 c 0,530,531
 1260 984 1260 984 1260 1012 c 0,532,533
 1260 1039 1260 1039 1279 1059 c 0,534,535
 1299 1079 1299 1079 1327 1079 c 0,536,537
 1354 1079 1354 1079 1374 1059 c 256,538,539
 1394 1039 1394 1039 1394 1012 c 0,540,541
 1394 984 1394 984 1374 964 c 0,542,543
 1354 945 1354 945 1327 945 c 0,528,529
66 1102 m 0,544,545
 39 1102 39 1102 19 1122 c 0,546,547
 0 1142 0 1142 0 1169 c 0,548,549
 0 1197 0 1197 19 1217 c 0,550,551
 39 1236 39 1236 66 1236 c 0,552,553
 94 1236 94 1236 114 1217 c 0,554,555
 133 1197 133 1197 133 1169 c 0,556,557
 133 1142 133 1142 114 1122 c 0,558,559
 94 1102 94 1102 66 1102 c 0,544,545
224 1102 m 256,560,561
 196 1102 196 1102 177 1122 c 0,562,563
 157 1142 157 1142 157 1169 c 0,564,565
 157 1197 157 1197 177 1217 c 0,566,567
 196 1236 196 1236 224 1236 c 256,568,569
 252 1236 252 1236 271 1217 c 0,570,571
 291 1197 291 1197 291 1169 c 0,572,573
 291 1142 291 1142 271 1122 c 0,574,575
 252 1102 252 1102 224 1102 c 256,560,561
382 1102 m 0,576,577
 354 1102 354 1102 334 1122 c 0,578,579
 315 1142 315 1142 315 1169 c 0,580,581
 315 1197 315 1197 334 1217 c 0,582,583
 354 1236 354 1236 382 1236 c 0,584,585
 409 1236 409 1236 429 1217 c 0,586,587
 448 1197 448 1197 448 1169 c 0,588,589
 448 1142 448 1142 429 1122 c 0,590,591
 409 1102 409 1102 382 1102 c 0,576,577
1012 1102 m 0,592,593
 984 1102 984 1102 964 1122 c 0,594,595
 945 1142 945 1142 945 1169 c 0,596,597
 945 1197 945 1197 964 1217 c 0,598,599
 984 1236 984 1236 1012 1236 c 0,600,601
 1039 1236 1039 1236 1059 1217 c 0,602,603
 1079 1197 1079 1197 1079 1169 c 0,604,605
 1079 1142 1079 1142 1059 1122 c 256,606,607
 1039 1102 1039 1102 1012 1102 c 0,592,593
1169 1102 m 0,608,609
 1142 1102 1142 1102 1122 1122 c 256,610,611
 1102 1142 1102 1142 1102 1169 c 0,612,613
 1102 1197 1102 1197 1122 1217 c 0,614,615
 1142 1236 1142 1236 1169 1236 c 0,616,617
 1197 1236 1197 1236 1217 1217 c 0,618,619
 1236 1197 1236 1197 1236 1169 c 0,620,621
 1236 1142 1236 1142 1217 1122 c 0,622,623
 1197 1102 1197 1102 1169 1102 c 0,608,609
1327 1102 m 0,624,625
 1299 1102 1299 1102 1279 1122 c 0,626,627
 1260 1142 1260 1142 1260 1169 c 0,628,629
 1260 1197 1260 1197 1279 1217 c 0,630,631
 1299 1236 1299 1236 1327 1236 c 0,632,633
 1354 1236 1354 1236 1374 1217 c 0,634,635
 1394 1197 1394 1197 1394 1169 c 0,636,637
 1394 1142 1394 1142 1374 1122 c 256,638,639
 1354 1102 1354 1102 1327 1102 c 0,624,625
224 1260 m 256,640,641
 196 1260 196 1260 177 1279 c 0,642,643
 157 1299 157 1299 157 1327 c 0,644,645
 157 1354 157 1354 177 1374 c 0,646,647
 196 1394 196 1394 224 1394 c 256,648,649
 252 1394 252 1394 271 1374 c 0,650,651
 291 1354 291 1354 291 1327 c 0,652,653
 291 1299 291 1299 271 1279 c 0,654,655
 252 1260 252 1260 224 1260 c 256,640,641
382 1260 m 0,656,657
 354 1260 354 1260 334 1279 c 0,658,659
 315 1299 315 1299 315 1327 c 0,660,661
 315 1354 315 1354 334 1374 c 0,662,663
 354 1394 354 1394 382 1394 c 0,664,665
 409 1394 409 1394 429 1374 c 0,666,667
 448 1354 448 1354 448 1327 c 0,668,669
 448 1299 448 1299 429 1279 c 0,670,671
 409 1260 409 1260 382 1260 c 0,656,657
1012 1260 m 0,672,673
 984 1260 984 1260 964 1279 c 0,674,675
 945 1299 945 1299 945 1327 c 0,676,677
 945 1354 945 1354 964 1374 c 0,678,679
 984 1394 984 1394 1012 1394 c 0,680,681
 1039 1394 1039 1394 1059 1374 c 256,682,683
 1079 1354 1079 1354 1079 1327 c 0,684,685
 1079 1299 1079 1299 1059 1279 c 0,686,687
 1039 1260 1039 1260 1012 1260 c 0,672,673
1169 1260 m 0,688,689
 1142 1260 1142 1260 1122 1279 c 0,690,691
 1102 1299 1102 1299 1102 1327 c 0,692,693
 1102 1354 1102 1354 1122 1374 c 256,694,695
 1142 1394 1142 1394 1169 1394 c 0,696,697
 1197 1394 1197 1394 1217 1374 c 0,698,699
 1236 1354 1236 1354 1236 1327 c 0,700,701
 1236 1299 1236 1299 1217 1279 c 0,702,703
 1197 1260 1197 1260 1169 1260 c 0,688,689
224 1417 m 256,704,705
 196 1417 196 1417 177 1437 c 0,706,707
 157 1457 157 1457 157 1484 c 0,708,709
 157 1512 157 1512 177 1532 c 0,710,711
 196 1551 196 1551 224 1551 c 256,712,713
 252 1551 252 1551 271 1532 c 0,714,715
 291 1512 291 1512 291 1484 c 0,716,717
 291 1457 291 1457 271 1437 c 0,718,719
 252 1417 252 1417 224 1417 c 256,704,705
382 1417 m 0,720,721
 354 1417 354 1417 334 1437 c 0,722,723
 315 1457 315 1457 315 1484 c 0,724,725
 315 1512 315 1512 334 1532 c 0,726,727
 354 1551 354 1551 382 1551 c 0,728,729
 409 1551 409 1551 429 1532 c 0,730,731
 448 1512 448 1512 448 1484 c 0,732,733
 448 1457 448 1457 429 1437 c 0,734,735
 409 1417 409 1417 382 1417 c 0,720,721
539 1417 m 256,736,737
 511 1417 511 1417 492 1437 c 0,738,739
 472 1457 472 1457 472 1484 c 0,740,741
 472 1512 472 1512 492 1532 c 0,742,743
 511 1551 511 1551 539 1551 c 256,744,745
 567 1551 567 1551 586 1532 c 0,746,747
 606 1512 606 1512 606 1484 c 0,748,749
 606 1457 606 1457 586 1437 c 0,750,751
 567 1417 567 1417 539 1417 c 256,736,737
697 1417 m 0,752,753
 669 1417 669 1417 649 1437 c 0,754,755
 630 1457 630 1457 630 1484 c 0,756,757
 630 1512 630 1512 649 1532 c 0,758,759
 669 1551 669 1551 697 1551 c 0,760,761
 724 1551 724 1551 744 1532 c 0,762,763
 764 1512 764 1512 764 1484 c 0,764,765
 764 1457 764 1457 744 1437 c 256,766,767
 724 1417 724 1417 697 1417 c 0,752,753
854 1417 m 256,768,769
 826 1417 826 1417 807 1437 c 0,770,771
 787 1457 787 1457 787 1484 c 0,772,773
 787 1512 787 1512 807 1532 c 0,774,775
 826 1551 826 1551 854 1551 c 256,776,777
 882 1551 882 1551 902 1532 c 0,778,779
 921 1512 921 1512 921 1484 c 0,780,781
 921 1457 921 1457 902 1437 c 0,782,783
 882 1417 882 1417 854 1417 c 256,768,769
1012 1417 m 0,784,785
 984 1417 984 1417 964 1437 c 0,786,787
 945 1457 945 1457 945 1484 c 0,788,789
 945 1512 945 1512 964 1532 c 0,790,791
 984 1551 984 1551 1012 1551 c 0,792,793
 1039 1551 1039 1551 1059 1532 c 0,794,795
 1079 1512 1079 1512 1079 1484 c 0,796,797
 1079 1457 1079 1457 1059 1437 c 256,798,799
 1039 1417 1039 1417 1012 1417 c 0,784,785
1169 1417 m 0,800,801
 1142 1417 1142 1417 1122 1437 c 256,802,803
 1102 1457 1102 1457 1102 1484 c 0,804,805
 1102 1512 1102 1512 1122 1532 c 0,806,807
 1142 1551 1142 1551 1169 1551 c 0,808,809
 1197 1551 1197 1551 1217 1532 c 0,810,811
 1236 1512 1236 1512 1236 1484 c 0,812,813
 1236 1457 1236 1457 1217 1437 c 0,814,815
 1197 1417 1197 1417 1169 1417 c 0,800,801
382 1575 m 0,816,817
 354 1575 354 1575 334 1594 c 0,818,819
 315 1614 315 1614 315 1642 c 256,820,821
 315 1670 315 1670 334 1689 c 0,822,823
 354 1709 354 1709 382 1709 c 0,824,825
 409 1709 409 1709 429 1689 c 0,826,827
 448 1670 448 1670 448 1642 c 256,828,829
 448 1614 448 1614 429 1594 c 0,830,831
 409 1575 409 1575 382 1575 c 0,816,817
539 1575 m 256,832,833
 511 1575 511 1575 492 1594 c 0,834,835
 472 1614 472 1614 472 1642 c 256,836,837
 472 1670 472 1670 492 1689 c 0,838,839
 511 1709 511 1709 539 1709 c 256,840,841
 567 1709 567 1709 586 1689 c 0,842,843
 606 1670 606 1670 606 1642 c 256,844,845
 606 1614 606 1614 586 1594 c 0,846,847
 567 1575 567 1575 539 1575 c 256,832,833
697 1575 m 0,848,849
 669 1575 669 1575 649 1594 c 0,850,851
 630 1614 630 1614 630 1642 c 256,852,853
 630 1670 630 1670 649 1689 c 0,854,855
 669 1709 669 1709 697 1709 c 0,856,857
 724 1709 724 1709 744 1689 c 0,858,859
 764 1670 764 1670 764 1642 c 256,860,861
 764 1614 764 1614 744 1594 c 0,862,863
 724 1575 724 1575 697 1575 c 0,848,849
854 1575 m 256,864,865
 826 1575 826 1575 807 1594 c 0,866,867
 787 1614 787 1614 787 1642 c 256,868,869
 787 1670 787 1670 807 1689 c 0,870,871
 826 1709 826 1709 854 1709 c 256,872,873
 882 1709 882 1709 902 1689 c 0,874,875
 921 1670 921 1670 921 1642 c 256,876,877
 921 1614 921 1614 902 1594 c 0,878,879
 882 1575 882 1575 854 1575 c 256,864,865
1012 1575 m 0,880,881
 984 1575 984 1575 964 1594 c 0,882,883
 945 1614 945 1614 945 1642 c 256,884,885
 945 1670 945 1670 964 1689 c 0,886,887
 984 1709 984 1709 1012 1709 c 0,888,889
 1039 1709 1039 1709 1059 1689 c 0,890,891
 1079 1670 1079 1670 1079 1642 c 256,892,893
 1079 1614 1079 1614 1059 1594 c 0,894,895
 1039 1575 1039 1575 1012 1575 c 0,880,881
EndSplineSet
Validated: 1
EndChar

StartChar: one
Encoding: 49 49 18
Width: 945
GlyphClass: 1
Flags: W
LayerCount: 2
Fore
SplineSet
539 0 m 256,0,1
 511 0 511 0 492 19 c 0,2,3
 472 39 472 39 472 66 c 0,4,5
 472 94 472 94 492 114 c 0,6,7
 511 133 511 133 539 133 c 256,8,9
 567 133 567 133 586 114 c 0,10,11
 606 94 606 94 606 66 c 0,12,13
 606 39 606 39 586 19 c 0,14,15
 567 0 567 0 539 0 c 256,0,1
697 0 m 0,16,17
 669 0 669 0 649 19 c 0,18,19
 630 39 630 39 630 66 c 0,20,21
 630 94 630 94 649 114 c 0,22,23
 669 133 669 133 697 133 c 0,24,25
 724 133 724 133 744 114 c 0,26,27
 764 94 764 94 764 66 c 0,28,29
 764 39 764 39 744 19 c 0,30,31
 724 0 724 0 697 0 c 0,16,17
539 157 m 256,32,33
 511 157 511 157 492 177 c 0,34,35
 472 196 472 196 472 224 c 256,36,37
 472 252 472 252 492 271 c 0,38,39
 511 291 511 291 539 291 c 256,40,41
 567 291 567 291 586 271 c 0,42,43
 606 252 606 252 606 224 c 256,44,45
 606 196 606 196 586 177 c 0,46,47
 567 157 567 157 539 157 c 256,32,33
697 157 m 0,48,49
 669 157 669 157 649 177 c 0,50,51
 630 196 630 196 630 224 c 256,52,53
 630 252 630 252 649 271 c 0,54,55
 669 291 669 291 697 291 c 0,56,57
 724 291 724 291 744 271 c 0,58,59
 764 252 764 252 764 224 c 256,60,61
 764 196 764 196 744 177 c 0,62,63
 724 157 724 157 697 157 c 0,48,49
539 315 m 256,64,65
 511 315 511 315 492 334 c 0,66,67
 472 354 472 354 472 382 c 0,68,69
 472 409 472 409 492 429 c 0,70,71
 511 448 511 448 539 448 c 256,72,73
 567 448 567 448 586 429 c 0,74,75
 606 409 606 409 606 382 c 0,76,77
 606 354 606 354 586 334 c 0,78,79
 567 315 567 315 539 315 c 256,64,65
697 315 m 0,80,81
 669 315 669 315 649 334 c 0,82,83
 630 354 630 354 630 382 c 0,84,85
 630 409 630 409 649 429 c 0,86,87
 669 448 669 448 697 448 c 0,88,89
 724 448 724 448 744 429 c 0,90,91
 764 409 764 409 764 382 c 0,92,93
 764 354 764 354 744 334 c 0,94,95
 724 315 724 315 697 315 c 0,80,81
539 472 m 256,96,97
 511 472 511 472 492 492 c 0,98,99
 472 511 472 511 472 539 c 256,100,101
 472 567 472 567 492 586 c 0,102,103
 511 606 511 606 539 606 c 256,104,105
 567 606 567 606 586 586 c 0,106,107
 606 567 606 567 606 539 c 256,108,109
 606 511 606 511 586 492 c 0,110,111
 567 472 567 472 539 472 c 256,96,97
697 472 m 0,112,113
 669 472 669 472 649 492 c 0,114,115
 630 511 630 511 630 539 c 256,116,117
 630 567 630 567 649 586 c 0,118,119
 669 606 669 606 697 606 c 0,120,121
 724 606 724 606 744 586 c 0,122,123
 764 567 764 567 764 539 c 256,124,125
 764 511 764 511 744 492 c 0,126,127
 724 472 724 472 697 472 c 0,112,113
539 630 m 256,128,129
 511 630 511 630 492 649 c 0,130,131
 472 669 472 669 472 697 c 0,132,133
 472 724 472 724 492 744 c 0,134,135
 511 764 511 764 539 764 c 256,136,137
 567 764 567 764 586 744 c 0,138,139
 606 724 606 724 606 697 c 0,140,141
 606 669 606 669 586 649 c 0,142,143
 567 630 567 630 539 630 c 256,128,129
697 630 m 0,144,145
 669 630 669 630 649 649 c 0,146,147
 630 669 630 669 630 697 c 0,148,149
 630 724 630 724 649 744 c 0,150,151
 669 764 669 764 697 764 c 0,152,153
 724 764 724 764 744 744 c 256,154,155
 764 724 764 724 764 697 c 0,156,157
 764 669 764 669 744 649 c 0,158,159
 724 630 724 630 697 630 c 0,144,145
539 787 m 256,160,161
 511 787 511 787 492 807 c 0,162,163
 472 826 472 826 472 854 c 256,164,165
 472 882 472 882 492 902 c 0,166,167
 511 921 511 921 539 921 c 256,168,169
 567 921 567 921 586 902 c 0,170,171
 606 882 606 882 606 854 c 256,172,173
 606 826 606 826 586 807 c 0,174,175
 567 787 567 787 539 787 c 256,160,161
697 787 m 0,176,177
 669 787 669 787 649 807 c 0,178,179
 630 826 630 826 630 854 c 256,180,181
 630 882 630 882 649 902 c 0,182,183
 669 921 669 921 697 921 c 0,184,185
 724 921 724 921 744 902 c 0,186,187
 764 882 764 882 764 854 c 256,188,189
 764 826 764 826 744 807 c 0,190,191
 724 787 724 787 697 787 c 0,176,177
539 945 m 256,192,193
 511 945 511 945 492 964 c 0,194,195
 472 984 472 984 472 1012 c 0,196,197
 472 1039 472 1039 492 1059 c 0,198,199
 511 1079 511 1079 539 1079 c 256,200,201
 567 1079 567 1079 586 1059 c 0,202,203
 606 1039 606 1039 606 1012 c 0,204,205
 606 984 606 984 586 964 c 0,206,207
 567 945 567 945 539 945 c 256,192,193
697 945 m 0,208,209
 669 945 669 945 649 964 c 0,210,211
 630 984 630 984 630 1012 c 0,212,213
 630 1039 630 1039 649 1059 c 0,214,215
 669 1079 669 1079 697 1079 c 0,216,217
 724 1079 724 1079 744 1059 c 256,218,219
 764 1039 764 1039 764 1012 c 0,220,221
 764 984 764 984 744 964 c 0,222,223
 724 945 724 945 697 945 c 0,208,209
66 1102 m 0,224,225
 39 1102 39 1102 19 1122 c 0,226,227
 0 1142 0 1142 0 1169 c 0,228,229
 0 1197 0 1197 19 1217 c 0,230,231
 39 1236 39 1236 66 1236 c 0,232,233
 94 1236 94 1236 114 1217 c 0,234,235
 133 1197 133 1197 133 1169 c 0,236,237
 133 1142 133 1142 114 1122 c 0,238,239
 94 1102 94 1102 66 1102 c 0,224,225
224 1102 m 256,240,241
 196 1102 196 1102 177 1122 c 0,242,243
 157 1142 157 1142 157 1169 c 0,244,245
 157 1197 157 1197 177 1217 c 0,246,247
 196 1236 196 1236 224 1236 c 256,248,249
 252 1236 252 1236 271 1217 c 0,250,251
 291 1197 291 1197 291 1169 c 0,252,253
 291 1142 291 1142 271 1122 c 0,254,255
 252 1102 252 1102 224 1102 c 256,240,241
382 1102 m 0,256,257
 354 1102 354 1102 334 1122 c 0,258,259
 315 1142 315 1142 315 1169 c 0,260,261
 315 1197 315 1197 334 1217 c 0,262,263
 354 1236 354 1236 382 1236 c 0,264,265
 409 1236 409 1236 429 1217 c 0,266,267
 448 1197 448 1197 448 1169 c 0,268,269
 448 1142 448 1142 429 1122 c 0,270,271
 409 1102 409 1102 382 1102 c 0,256,257
539 1102 m 256,272,273
 511 1102 511 1102 492 1122 c 0,274,275
 472 1142 472 1142 472 1169 c 0,276,277
 472 1197 472 1197 492 1217 c 0,278,279
 511 1236 511 1236 539 1236 c 256,280,281
 567 1236 567 1236 586 1217 c 0,282,283
 606 1197 606 1197 606 1169 c 0,284,285
 606 1142 606 1142 586 1122 c 0,286,287
 567 1102 567 1102 539 1102 c 256,272,273
697 1102 m 0,288,289
 669 1102 669 1102 649 1122 c 0,290,291
 630 1142 630 1142 630 1169 c 0,292,293
 630 1197 630 1197 649 1217 c 0,294,295
 669 1236 669 1236 697 1236 c 0,296,297
 724 1236 724 1236 744 1217 c 0,298,299
 764 1197 764 1197 764 1169 c 0,300,301
 764 1142 764 1142 744 1122 c 256,302,303
 724 1102 724 1102 697 1102 c 0,288,289
66 1260 m 0,304,305
 39 1260 39 1260 19 1279 c 0,306,307
 0 1299 0 1299 0 1327 c 0,308,309
 0 1354 0 1354 19 1374 c 0,310,311
 39 1394 39 1394 66 1394 c 0,312,313
 94 1394 94 1394 114 1374 c 0,314,315
 133 1354 133 1354 133 1327 c 0,316,317
 133 1299 133 1299 114 1279 c 0,318,319
 94 1260 94 1260 66 1260 c 0,304,305
224 1260 m 256,320,321
 196 1260 196 1260 177 1279 c 0,322,323
 157 1299 157 1299 157 1327 c 0,324,325
 157 1354 157 1354 177 1374 c 0,326,327
 196 1394 196 1394 224 1394 c 256,328,329
 252 1394 252 1394 271 1374 c 0,330,331
 291 1354 291 1354 291 1327 c 0,332,333
 291 1299 291 1299 271 1279 c 0,334,335
 252 1260 252 1260 224 1260 c 256,320,321
382 1260 m 0,336,337
 354 1260 354 1260 334 1279 c 0,338,339
 315 1299 315 1299 315 1327 c 0,340,341
 315 1354 315 1354 334 1374 c 0,342,343
 354 1394 354 1394 382 1394 c 0,344,345
 409 1394 409 1394 429 1374 c 0,346,347
 448 1354 448 1354 448 1327 c 0,348,349
 448 1299 448 1299 429 1279 c 0,350,351
 409 1260 409 1260 382 1260 c 0,336,337
539 1260 m 256,352,353
 511 1260 511 1260 492 1279 c 0,354,355
 472 1299 472 1299 472 1327 c 0,356,357
 472 1354 472 1354 492 1374 c 0,358,359
 511 1394 511 1394 539 1394 c 256,360,361
 567 1394 567 1394 586 1374 c 0,362,363
 606 1354 606 1354 606 1327 c 0,364,365
 606 1299 606 1299 586 1279 c 0,366,367
 567 1260 567 1260 539 1260 c 256,352,353
697 1260 m 0,368,369
 669 1260 669 1260 649 1279 c 0,370,371
 630 1299 630 1299 630 1327 c 0,372,373
 630 1354 630 1354 649 1374 c 0,374,375
 669 1394 669 1394 697 1394 c 0,376,377
 724 1394 724 1394 744 1374 c 256,378,379
 764 1354 764 1354 764 1327 c 0,380,381
 764 1299 764 1299 744 1279 c 0,382,383
 724 1260 724 1260 697 1260 c 0,368,369
382 1417 m 0,384,385
 354 1417 354 1417 334 1437 c 0,386,387
 315 1457 315 1457 315 1484 c 0,388,389
 315 1512 315 1512 334 1532 c 0,390,391
 354 1551 354 1551 382 1551 c 0,392,393
 409 1551 409 1551 429 1532 c 0,394,395
 448 1512 448 1512 448 1484 c 0,396,397
 448 1457 448 1457 429 1437 c 0,398,399
 409 1417 409 1417 382 1417 c 0,384,385
539 1417 m 256,400,401
 511 1417 511 1417 492 1437 c 0,402,403
 472 1457 472 1457 472 1484 c 0,404,405
 472 1512 472 1512 492 1532 c 0,406,407
 511 1551 511 1551 539 1551 c 256,408,409
 567 1551 567 1551 586 1532 c 0,410,411
 606 1512 606 1512 606 1484 c 0,412,413
 606 1457 606 1457 586 1437 c 0,414,415
 567 1417 567 1417 539 1417 c 256,400,401
697 1417 m 0,416,417
 669 1417 669 1417 649 1437 c 0,418,419
 630 1457 630 1457 630 1484 c 0,420,421
 630 1512 630 1512 649 1532 c 0,422,423
 669 1551 669 1551 697 1551 c 0,424,425
 724 1551 724 1551 744 1532 c 0,426,427
 764 1512 764 1512 764 1484 c 0,428,429
 764 1457 764 1457 744 1437 c 256,430,431
 724 1417 724 1417 697 1417 c 0,416,417
539 1575 m 256,432,433
 511 1575 511 1575 492 1594 c 0,434,435
 472 1614 472 1614 472 1642 c 256,436,437
 472 1670 472 1670 492 1689 c 0,438,439
 511 1709 511 1709 539 1709 c 256,440,441
 567 1709 567 1709 586 1689 c 0,442,443
 606 1670 606 1670 606 1642 c 256,444,445
 606 1614 606 1614 586 1594 c 0,446,447
 567 1575 567 1575 539 1575 c 256,432,433
697 1575 m 0,448,449
 669 1575 669 1575 649 1594 c 0,450,451
 630 1614 630 1614 630 1642 c 256,452,453
 630 1670 630 1670 649 1689 c 0,454,455
 669 1709 669 1709 697 1709 c 0,456,457
 724 1709 724 1709 744 1689 c 0,458,459
 764 1670 764 1670 764 1642 c 256,460,461
 764 1614 764 1614 744 1594 c 0,462,463
 724 1575 724 1575 697 1575 c 0,448,449
EndSplineSet
Validated: 1
EndChar

StartChar: two
Encoding: 50 50 19
Width: 1417
GlyphClass: 1
Flags: W
LayerCount: 2
Fore
SplineSet
66 0 m 0,0,1
 39 0 39 0 19 19 c 0,2,3
 0 39 0 39 0 66 c 0,4,5
 0 94 0 94 19 114 c 0,6,7
 39 133 39 133 66 133 c 0,8,9
 94 133 94 133 114 114 c 0,10,11
 133 94 133 94 133 66 c 0,12,13
 133 39 133 39 114 19 c 0,14,15
 94 0 94 0 66 0 c 0,0,1
224 0 m 256,16,17
 196 0 196 0 177 19 c 0,18,19
 157 39 157 39 157 66 c 0,20,21
 157 94 157 94 177 114 c 0,22,23
 196 133 196 133 224 133 c 256,24,25
 252 133 252 133 271 114 c 0,26,27
 291 94 291 94 291 66 c 0,28,29
 291 39 291 39 271 19 c 0,30,31
 252 0 252 0 224 0 c 256,16,17
382 0 m 0,32,33
 354 0 354 0 334 19 c 0,34,35
 315 39 315 39 315 66 c 0,36,37
 315 94 315 94 334 114 c 0,38,39
 354 133 354 133 382 133 c 0,40,41
 409 133 409 133 429 114 c 0,42,43
 448 94 448 94 448 66 c 0,44,45
 448 39 448 39 429 19 c 0,46,47
 409 0 409 0 382 0 c 0,32,33
539 0 m 256,48,49
 511 0 511 0 492 19 c 0,50,51
 472 39 472 39 472 66 c 0,52,53
 472 94 472 94 492 114 c 0,54,55
 511 133 511 133 539 133 c 256,56,57
 567 133 567 133 586 114 c 0,58,59
 606 94 606 94 606 66 c 0,60,61
 606 39 606 39 586 19 c 0,62,63
 567 0 567 0 539 0 c 256,48,49
697 0 m 0,64,65
 669 0 669 0 649 19 c 0,66,67
 630 39 630 39 630 66 c 0,68,69
 630 94 630 94 649 114 c 0,70,71
 669 133 669 133 697 133 c 0,72,73
 724 133 724 133 744 114 c 0,74,75
 764 94 764 94 764 66 c 0,76,77
 764 39 764 39 744 19 c 0,78,79
 724 0 724 0 697 0 c 0,64,65
854 0 m 256,80,81
 826 0 826 0 807 19 c 0,82,83
 787 39 787 39 787 66 c 0,84,85
 787 94 787 94 807 114 c 0,86,87
 826 133 826 133 854 133 c 256,88,89
 882 133 882 133 902 114 c 0,90,91
 921 94 921 94 921 66 c 0,92,93
 921 39 921 39 902 19 c 0,94,95
 882 0 882 0 854 0 c 256,80,81
1012 0 m 0,96,97
 984 0 984 0 964 19 c 0,98,99
 945 39 945 39 945 66 c 0,100,101
 945 94 945 94 964 114 c 0,102,103
 984 133 984 133 1012 133 c 0,104,105
 1039 133 1039 133 1059 114 c 0,106,107
 1079 94 1079 94 1079 66 c 0,108,109
 1079 39 1079 39 1059 19 c 0,110,111
 1039 0 1039 0 1012 0 c 0,96,97
1169 0 m 0,112,113
 1142 0 1142 0 1122 19 c 0,114,115
 1102 39 1102 39 1102 66 c 0,116,117
 1102 94 1102 94 1122 114 c 0,118,119
 1142 133 1142 133 1169 133 c 0,120,121
 1197 133 1197 133 1217 114 c 0,122,123
 1236 94 1236 94 1236 66 c 0,124,125
 1236 39 1236 39 1217 19 c 0,126,127
 1197 0 1197 0 1169 0 c 0,112,113
66 157 m 0,128,129
 39 157 39 157 19 177 c 0,130,131
 0 196 0 196 0 224 c 256,132,133
 0 252 0 252 19 271 c 0,134,135
 39 291 39 291 66 291 c 0,136,137
 94 291 94 291 114 271 c 0,138,139
 133 252 133 252 133 224 c 256,140,141
 133 196 133 196 114 177 c 0,142,143
 94 157 94 157 66 157 c 0,128,129
224 157 m 256,144,145
 196 157 196 157 177 177 c 0,146,147
 157 196 157 196 157 224 c 256,148,149
 157 252 157 252 177 271 c 0,150,151
 196 291 196 291 224 291 c 256,152,153
 252 291 252 291 271 271 c 0,154,155
 291 252 291 252 291 224 c 256,156,157
 291 196 291 196 271 177 c 0,158,159
 252 157 252 157 224 157 c 256,144,145
382 157 m 0,160,161
 354 157 354 157 334 177 c 0,162,163
 315 196 315 196 315 224 c 256,164,165
 315 252 315 252 334 271 c 0,166,167
 354 291 354 291 382 291 c 0,168,169
 409 291 409 291 429 271 c 0,170,171
 448 252 448 252 448 224 c 256,172,173
 448 196 448 196 429 177 c 0,174,175
 409 157 409 157 382 157 c 0,160,161
539 157 m 256,176,177
 511 157 511 157 492 177 c 0,178,179
 472 196 472 196 472 224 c 256,180,181
 472 252 472 252 492 271 c 0,182,183
 511 291 511 291 539 291 c 256,184,185
 567 291 567 291 586 271 c 0,186,187
 606 252 606 252 606 224 c 256,188,189
 606 196 606 196 586 177 c 0,190,191
 567 157 567 157 539 157 c 256,176,177
697 157 m 0,192,193
 669 157 669 157 649 177 c 0,194,195
 630 196 630 196 630 224 c 256,196,197
 630 252 630 252 649 271 c 0,198,199
 669 291 669 291 697 291 c 0,200,201
 724 291 724 291 744 271 c 0,202,203
 764 252 764 252 764 224 c 256,204,205
 764 196 764 196 744 177 c 0,206,207
 724 157 724 157 697 157 c 0,192,193
854 157 m 256,208,209
 826 157 826 157 807 177 c 0,210,211
 787 196 787 196 787 224 c 256,212,213
 787 252 787 252 807 271 c 0,214,215
 826 291 826 291 854 291 c 256,216,217
 882 291 882 291 902 271 c 0,218,219
 921 252 921 252 921 224 c 256,220,221
 921 196 921 196 902 177 c 0,222,223
 882 157 882 157 854 157 c 256,208,209
1012 157 m 0,224,225
 984 157 984 157 964 177 c 0,226,227
 945 196 945 196 945 224 c 256,228,229
 945 252 945 252 964 271 c 0,230,231
 984 291 984 291 1012 291 c 0,232,233
 1039 291 1039 291 1059 271 c 0,234,235
 1079 252 1079 252 1079 224 c 256,236,237
 1079 196 1079 196 1059 177 c 0,238,239
 1039 157 1039 157 1012 157 c 0,224,225
1169 157 m 0,240,241
 1142 157 1142 157 1122 177 c 0,242,243
 1102 196 1102 196 1102 224 c 256,244,245
 1102 252 1102 252 1122 271 c 0,246,247
 1142 291 1142 291 1169 291 c 0,248,249
 1197 291 1197 291 1217 271 c 0,250,251
 1236 252 1236 252 1236 224 c 256,252,253
 1236 196 1236 196 1217 177 c 0,254,255
 1197 157 1197 157 1169 157 c 0,240,241
66 315 m 0,256,257
 39 315 39 315 19 334 c 0,258,259
 0 354 0 354 0 382 c 0,260,261
 0 409 0 409 19 429 c 0,262,263
 39 448 39 448 66 448 c 0,264,265
 94 448 94 448 114 429 c 0,266,267
 133 409 133 409 133 382 c 0,268,269
 133 354 133 354 114 334 c 0,270,271
 94 315 94 315 66 315 c 0,256,257
224 315 m 256,272,273
 196 315 196 315 177 334 c 0,274,275
 157 354 157 354 157 382 c 0,276,277
 157 409 157 409 177 429 c 0,278,279
 196 448 196 448 224 448 c 256,280,281
 252 448 252 448 271 429 c 0,282,283
 291 409 291 409 291 382 c 0,284,285
 291 354 291 354 271 334 c 0,286,287
 252 315 252 315 224 315 c 256,272,273
382 315 m 0,288,289
 354 315 354 315 334 334 c 0,290,291
 315 354 315 354 315 382 c 0,292,293
 315 409 315 409 334 429 c 0,294,295
 354 448 354 448 382 448 c 0,296,297
 409 448 409 448 429 429 c 0,298,299
 448 409 448 409 448 382 c 0,300,301
 448 354 448 354 429 334 c 0,302,303
 409 315 409 315 382 315 c 0,288,289
224 472 m 256,304,305
 196 472 196 472 177 492 c 0,306,307
 157 511 157 511 157 539 c 256,308,309
 157 567 157 567 177 586 c 0,310,311
 196 606 196 606 224 606 c 256,312,313
 252 606 252 606 271 586 c 0,314,315
 291 567 291 567 291 539 c 256,316,317
 291 511 291 511 271 492 c 0,318,319
 252 472 252 472 224 472 c 256,304,305
382 472 m 0,320,321
 354 472 354 472 334 492 c 0,322,323
 315 511 315 511 315 539 c 256,324,325
 315 567 315 567 334 586 c 0,326,327
 354 606 354 606 382 606 c 0,328,329
 409 606 409 606 429 586 c 0,330,331
 448 567 448 567 448 539 c 256,332,333
 448 511 448 511 429 492 c 0,334,335
 409 472 409 472 382 472 c 0,320,321
539 472 m 256,336,337
 511 472 511 472 492 492 c 0,338,339
 472 511 472 511 472 539 c 256,340,341
 472 567 472 567 492 586 c 0,342,343
 511 606 511 606 539 606 c 256,344,345
 567 606 567 606 586 586 c 0,346,347
 606 567 606 567 606 539 c 256,348,349
 606 511 606 511 586 492 c 0,350,351
 567 472 567 472 539 472 c 256,336,337
697 472 m 0,352,353
 669 472 669 472 649 492 c 0,354,355
 630 511 630 511 630 539 c 256,356,357
 630 567 630 567 649 586 c 0,358,359
 669 606 669 606 697 606 c 0,360,361
 724 606 724 606 744 586 c 0,362,363
 764 567 764 567 764 539 c 256,364,365
 764 511 764 511 744 492 c 0,366,367
 724 472 724 472 697 472 c 0,352,353
382 630 m 0,368,369
 354 630 354 630 334 649 c 0,370,371
 315 669 315 669 315 697 c 0,372,373
 315 724 315 724 334 744 c 0,374,375
 354 764 354 764 382 764 c 0,376,377
 409 764 409 764 429 744 c 0,378,379
 448 724 448 724 448 697 c 0,380,381
 448 669 448 669 429 649 c 0,382,383
 409 630 409 630 382 630 c 0,368,369
539 630 m 256,384,385
 511 630 511 630 492 649 c 0,386,387
 472 669 472 669 472 697 c 0,388,389
 472 724 472 724 492 744 c 0,390,391
 511 764 511 764 539 764 c 256,392,393
 567 764 567 764 586 744 c 0,394,395
 606 724 606 724 606 697 c 0,396,397
 606 669 606 669 586 649 c 0,398,399
 567 630 567 630 539 630 c 256,384,385
697 630 m 0,400,401
 669 630 669 630 649 649 c 0,402,403
 630 669 630 669 630 697 c 0,404,405
 630 724 630 724 649 744 c 0,406,407
 669 764 669 764 697 764 c 0,408,409
 724 764 724 764 744 744 c 256,410,411
 764 724 764 724 764 697 c 0,412,413
 764 669 764 669 744 649 c 0,414,415
 724 630 724 630 697 630 c 0,400,401
854 630 m 256,416,417
 826 630 826 630 807 649 c 0,418,419
 787 669 787 669 787 697 c 0,420,421
 787 724 787 724 807 744 c 0,422,423
 826 764 826 764 854 764 c 256,424,425
 882 764 882 764 902 744 c 0,426,427
 921 724 921 724 921 697 c 0,428,429
 921 669 921 669 902 649 c 0,430,431
 882 630 882 630 854 630 c 256,416,417
1012 630 m 0,432,433
 984 630 984 630 964 649 c 0,434,435
 945 669 945 669 945 697 c 0,436,437
 945 724 945 724 964 744 c 0,438,439
 984 764 984 764 1012 764 c 0,440,441
 1039 764 1039 764 1059 744 c 256,442,443
 1079 724 1079 724 1079 697 c 0,444,445
 1079 669 1079 669 1059 649 c 0,446,447
 1039 630 1039 630 1012 630 c 0,432,433
697 787 m 0,448,449
 669 787 669 787 649 807 c 0,450,451
 630 826 630 826 630 854 c 256,452,453
 630 882 630 882 649 902 c 0,454,455
 669 921 669 921 697 921 c 0,456,457
 724 921 724 921 744 902 c 0,458,459
 764 882 764 882 764 854 c 256,460,461
 764 826 764 826 744 807 c 0,462,463
 724 787 724 787 697 787 c 0,448,449
854 787 m 256,464,465
 826 787 826 787 807 807 c 0,466,467
 787 826 787 826 787 854 c 256,468,469
 787 882 787 882 807 902 c 0,470,471
 826 921 826 921 854 921 c 256,472,473
 882 921 882 921 902 902 c 0,474,475
 921 882 921 882 921 854 c 256,476,477
 921 826 921 826 902 807 c 0,478,479
 882 787 882 787 854 787 c 256,464,465
1012 787 m 0,480,481
 984 787 984 787 964 807 c 0,482,483
 945 826 945 826 945 854 c 256,484,485
 945 882 945 882 964 902 c 0,486,487
 984 921 984 921 1012 921 c 0,488,489
 1039 921 1039 921 1059 902 c 0,490,491
 1079 882 1079 882 1079 854 c 256,492,493
 1079 826 1079 826 1059 807 c 0,494,495
 1039 787 1039 787 1012 787 c 0,480,481
1169 787 m 0,496,497
 1142 787 1142 787 1122 807 c 0,498,499
 1102 826 1102 826 1102 854 c 256,500,501
 1102 882 1102 882 1122 902 c 0,502,503
 1142 921 1142 921 1169 921 c 0,504,505
 1197 921 1197 921 1217 902 c 0,506,507
 1236 882 1236 882 1236 854 c 256,508,509
 1236 826 1236 826 1217 807 c 0,510,511
 1197 787 1197 787 1169 787 c 0,496,497
1012 945 m 0,512,513
 984 945 984 945 964 964 c 0,514,515
 945 984 945 984 945 1012 c 0,516,517
 945 1039 945 1039 964 1059 c 0,518,519
 984 1079 984 1079 1012 1079 c 0,520,521
 1039 1079 1039 1079 1059 1059 c 256,522,523
 1079 1039 1079 1039 1079 1012 c 0,524,525
 1079 984 1079 984 1059 964 c 0,526,527
 1039 945 1039 945 1012 945 c 0,512,513
1169 945 m 0,528,529
 1142 945 1142 945 1122 964 c 0,530,531
 1102 984 1102 984 1102 1012 c 0,532,533
 1102 1039 1102 1039 1122 1059 c 256,534,535
 1142 1079 1142 1079 1169 1079 c 0,536,537
 1197 1079 1197 1079 1217 1059 c 0,538,539
 1236 1039 1236 1039 1236 1012 c 0,540,541
 1236 984 1236 984 1217 964 c 0,542,543
 1197 945 1197 945 1169 945 c 0,528,529
66 1102 m 0,544,545
 39 1102 39 1102 19 1122 c 0,546,547
 0 1142 0 1142 0 1169 c 0,548,549
 0 1197 0 1197 19 1217 c 0,550,551
 39 1236 39 1236 66 1236 c 0,552,553
 94 1236 94 1236 114 1217 c 0,554,555
 133 1197 133 1197 133 1169 c 0,556,557
 133 1142 133 1142 114 1122 c 0,558,559
 94 1102 94 1102 66 1102 c 0,544,545
224 1102 m 256,560,561
 196 1102 196 1102 177 1122 c 0,562,563
 157 1142 157 1142 157 1169 c 0,564,565
 157 1197 157 1197 177 1217 c 0,566,567
 196 1236 196 1236 224 1236 c 256,568,569
 252 1236 252 1236 271 1217 c 0,570,571
 291 1197 291 1197 291 1169 c 0,572,573
 291 1142 291 1142 271 1122 c 0,574,575
 252 1102 252 1102 224 1102 c 256,560,561
1012 1102 m 0,576,577
 984 1102 984 1102 964 1122 c 0,578,579
 945 1142 945 1142 945 1169 c 0,580,581
 945 1197 945 1197 964 1217 c 0,582,583
 984 1236 984 1236 1012 1236 c 0,584,585
 1039 1236 1039 1236 1059 1217 c 0,586,587
 1079 1197 1079 1197 1079 1169 c 0,588,589
 1079 1142 1079 1142 1059 1122 c 256,590,591
 1039 1102 1039 1102 1012 1102 c 0,576,577
1169 1102 m 0,592,593
 1142 1102 1142 1102 1122 1122 c 256,594,595
 1102 1142 1102 1142 1102 1169 c 0,596,597
 1102 1197 1102 1197 1122 1217 c 0,598,599
 1142 1236 1142 1236 1169 1236 c 0,600,601
 1197 1236 1197 1236 1217 1217 c 0,602,603
 1236 1197 1236 1197 1236 1169 c 0,604,605
 1236 1142 1236 1142 1217 1122 c 0,606,607
 1197 1102 1197 1102 1169 1102 c 0,592,593
66 1260 m 0,608,609
 39 1260 39 1260 19 1279 c 0,610,611
 0 1299 0 1299 0 1327 c 0,612,613
 0 1354 0 1354 19 1374 c 0,614,615
 39 1394 39 1394 66 1394 c 0,616,617
 94 1394 94 1394 114 1374 c 0,618,619
 133 1354 133 1354 133 1327 c 0,620,621
 133 1299 133 1299 114 1279 c 0,622,623
 94 1260 94 1260 66 1260 c 0,608,609
224 1260 m 256,624,625
 196 1260 196 1260 177 1279 c 0,626,627
 157 1299 157 1299 157 1327 c 0,628,629
 157 1354 157 1354 177 1374 c 0,630,631
 196 1394 196 1394 224 1394 c 256,632,633
 252 1394 252 1394 271 1374 c 0,634,635
 291 1354 291 1354 291 1327 c 0,636,637
 291 1299 291 1299 271 1279 c 0,638,639
 252 1260 252 1260 224 1260 c 256,624,625
382 1260 m 0,640,641
 354 1260 354 1260 334 1279 c 0,642,643
 315 1299 315 1299 315 1327 c 0,644,645
 315 1354 315 1354 334 1374 c 0,646,647
 354 1394 354 1394 382 1394 c 0,648,649
 409 1394 409 1394 429 1374 c 0,650,651
 448 1354 448 1354 448 1327 c 0,652,653
 448 1299 448 1299 429 1279 c 0,654,655
 409 1260 409 1260 382 1260 c 0,640,641
854 1260 m 256,656,657
 826 1260 826 1260 807 1279 c 0,658,659
 787 1299 787 1299 787 1327 c 0,660,661
 787 1354 787 1354 807 1374 c 0,662,663
 826 1394 826 1394 854 1394 c 256,664,665
 882 1394 882 1394 902 1374 c 0,666,667
 921 1354 921 1354 921 1327 c 0,668,669
 921 1299 921 1299 902 1279 c 0,670,671
 882 1260 882 1260 854 1260 c 256,656,657
1012 1260 m 0,672,673
 984 1260 984 1260 964 1279 c 0,674,675
 945 1299 945 1299 945 1327 c 0,676,677
 945 1354 945 1354 964 1374 c 0,678,679
 984 1394 984 1394 1012 1394 c 0,680,681
 1039 1394 1039 1394 1059 1374 c 256,682,683
 1079 1354 1079 1354 1079 1327 c 0,684,685
 1079 1299 1079 1299 1059 1279 c 0,686,687
 1039 1260 1039 1260 1012 1260 c 0,672,673
1169 1260 m 0,688,689
 1142 1260 1142 1260 1122 1279 c 0,690,691
 1102 1299 1102 1299 1102 1327 c 0,692,693
 1102 1354 1102 1354 1122 1374 c 256,694,695
 1142 1394 1142 1394 1169 1394 c 0,696,697
 1197 1394 1197 1394 1217 1374 c 0,698,699
 1236 1354 1236 1354 1236 1327 c 0,700,701
 1236 1299 1236 1299 1217 1279 c 0,702,703
 1197 1260 1197 1260 1169 1260 c 0,688,689
224 1417 m 256,704,705
 196 1417 196 1417 177 1437 c 0,706,707
 157 1457 157 1457 157 1484 c 0,708,709
 157 1512 157 1512 177 1532 c 0,710,711
 196 1551 196 1551 224 1551 c 256,712,713
 252 1551 252 1551 271 1532 c 0,714,715
 291 1512 291 1512 291 1484 c 0,716,717
 291 1457 291 1457 271 1437 c 0,718,719
 252 1417 252 1417 224 1417 c 256,704,705
382 1417 m 0,720,721
 354 1417 354 1417 334 1437 c 0,722,723
 315 1457 315 1457 315 1484 c 0,724,725
 315 1512 315 1512 334 1532 c 0,726,727
 354 1551 354 1551 382 1551 c 0,728,729
 409 1551 409 1551 429 1532 c 0,730,731
 448 1512 448 1512 448 1484 c 0,732,733
 448 1457 448 1457 429 1437 c 0,734,735
 409 1417 409 1417 382 1417 c 0,720,721
539 1417 m 256,736,737
 511 1417 511 1417 492 1437 c 0,738,739
 472 1457 472 1457 472 1484 c 0,740,741
 472 1512 472 1512 492 1532 c 0,742,743
 511 1551 511 1551 539 1551 c 256,744,745
 567 1551 567 1551 586 1532 c 0,746,747
 606 1512 606 1512 606 1484 c 0,748,749
 606 1457 606 1457 586 1437 c 0,750,751
 567 1417 567 1417 539 1417 c 256,736,737
697 1417 m 0,752,753
 669 1417 669 1417 649 1437 c 0,754,755
 630 1457 630 1457 630 1484 c 0,756,757
 630 1512 630 1512 649 1532 c 0,758,759
 669 1551 669 1551 697 1551 c 0,760,761
 724 1551 724 1551 744 1532 c 0,762,763
 764 1512 764 1512 764 1484 c 0,764,765
 764 1457 764 1457 744 1437 c 256,766,767
 724 1417 724 1417 697 1417 c 0,752,753
854 1417 m 256,768,769
 826 1417 826 1417 807 1437 c 0,770,771
 787 1457 787 1457 787 1484 c 0,772,773
 787 1512 787 1512 807 1532 c 0,774,775
 826 1551 826 1551 854 1551 c 256,776,777
 882 1551 882 1551 902 1532 c 0,778,779
 921 1512 921 1512 921 1484 c 0,780,781
 921 1457 921 1457 902 1437 c 0,782,783
 882 1417 882 1417 854 1417 c 256,768,769
1012 1417 m 0,784,785
 984 1417 984 1417 964 1437 c 0,786,787
 945 1457 945 1457 945 1484 c 0,788,789
 945 1512 945 1512 964 1532 c 0,790,791
 984 1551 984 1551 1012 1551 c 0,792,793
 1039 1551 1039 1551 1059 1532 c 0,794,795
 1079 1512 1079 1512 1079 1484 c 0,796,797
 1079 1457 1079 1457 1059 1437 c 256,798,799
 1039 1417 1039 1417 1012 1417 c 0,784,785
382 1575 m 0,800,801
 354 1575 354 1575 334 1594 c 0,802,803
 315 1614 315 1614 315 1642 c 256,804,805
 315 1670 315 1670 334 1689 c 0,806,807
 354 1709 354 1709 382 1709 c 0,808,809
 409 1709 409 1709 429 1689 c 0,810,811
 448 1670 448 1670 448 1642 c 256,812,813
 448 1614 448 1614 429 1594 c 0,814,815
 409 1575 409 1575 382 1575 c 0,800,801
539 1575 m 256,816,817
 511 1575 511 1575 492 1594 c 0,818,819
 472 1614 472 1614 472 1642 c 256,820,821
 472 1670 472 1670 492 1689 c 0,822,823
 511 1709 511 1709 539 1709 c 256,824,825
 567 1709 567 1709 586 1689 c 0,826,827
 606 1670 606 1670 606 1642 c 256,828,829
 606 1614 606 1614 586 1594 c 0,830,831
 567 1575 567 1575 539 1575 c 256,816,817
697 1575 m 0,832,833
 669 1575 669 1575 649 1594 c 0,834,835
 630 1614 630 1614 630 1642 c 256,836,837
 630 1670 630 1670 649 1689 c 0,838,839
 669 1709 669 1709 697 1709 c 0,840,841
 724 1709 724 1709 744 1689 c 0,842,843
 764 1670 764 1670 764 1642 c 256,844,845
 764 1614 764 1614 744 1594 c 0,846,847
 724 1575 724 1575 697 1575 c 0,832,833
854 1575 m 256,848,849
 826 1575 826 1575 807 1594 c 0,850,851
 787 1614 787 1614 787 1642 c 256,852,853
 787 1670 787 1670 807 1689 c 0,854,855
 826 1709 826 1709 854 1709 c 256,856,857
 882 1709 882 1709 902 1689 c 0,858,859
 921 1670 921 1670 921 1642 c 256,860,861
 921 1614 921 1614 902 1594 c 0,862,863
 882 1575 882 1575 854 1575 c 256,848,849
EndSplineSet
Validated: 1
EndChar

StartChar: three
Encoding: 51 51 20
Width: 1417
GlyphClass: 1
Flags: W
LayerCount: 2
Fore
SplineSet
382 0 m 0,0,1
 354 0 354 0 334 19 c 0,2,3
 315 39 315 39 315 66 c 0,4,5
 315 94 315 94 334 114 c 0,6,7
 354 133 354 133 382 133 c 0,8,9
 409 133 409 133 429 114 c 0,10,11
 448 94 448 94 448 66 c 0,12,13
 448 39 448 39 429 19 c 0,14,15
 409 0 409 0 382 0 c 0,0,1
539 0 m 256,16,17
 511 0 511 0 492 19 c 0,18,19
 472 39 472 39 472 66 c 0,20,21
 472 94 472 94 492 114 c 0,22,23
 511 133 511 133 539 133 c 256,24,25
 567 133 567 133 586 114 c 0,26,27
 606 94 606 94 606 66 c 0,28,29
 606 39 606 39 586 19 c 0,30,31
 567 0 567 0 539 0 c 256,16,17
697 0 m 0,32,33
 669 0 669 0 649 19 c 0,34,35
 630 39 630 39 630 66 c 0,36,37
 630 94 630 94 649 114 c 0,38,39
 669 133 669 133 697 133 c 0,40,41
 724 133 724 133 744 114 c 0,42,43
 764 94 764 94 764 66 c 0,44,45
 764 39 764 39 744 19 c 0,46,47
 724 0 724 0 697 0 c 0,32,33
854 0 m 256,48,49
 826 0 826 0 807 19 c 0,50,51
 787 39 787 39 787 66 c 0,52,53
 787 94 787 94 807 114 c 0,54,55
 826 133 826 133 854 133 c 256,56,57
 882 133 882 133 902 114 c 0,58,59
 921 94 921 94 921 66 c 0,60,61
 921 39 921 39 902 19 c 0,62,63
 882 0 882 0 854 0 c 256,48,49
224 157 m 256,64,65
 196 157 196 157 177 177 c 0,66,67
 157 196 157 196 157 224 c 256,68,69
 157 252 157 252 177 271 c 0,70,71
 196 291 196 291 224 291 c 256,72,73
 252 291 252 291 271 271 c 0,74,75
 291 252 291 252 291 224 c 256,76,77
 291 196 291 196 271 177 c 0,78,79
 252 157 252 157 224 157 c 256,64,65
382 157 m 0,80,81
 354 157 354 157 334 177 c 0,82,83
 315 196 315 196 315 224 c 256,84,85
 315 252 315 252 334 271 c 0,86,87
 354 291 354 291 382 291 c 0,88,89
 409 291 409 291 429 271 c 0,90,91
 448 252 448 252 448 224 c 256,92,93
 448 196 448 196 429 177 c 0,94,95
 409 157 409 157 382 157 c 0,80,81
539 157 m 256,96,97
 511 157 511 157 492 177 c 0,98,99
 472 196 472 196 472 224 c 256,100,101
 472 252 472 252 492 271 c 0,102,103
 511 291 511 291 539 291 c 256,104,105
 567 291 567 291 586 271 c 0,106,107
 606 252 606 252 606 224 c 256,108,109
 606 196 606 196 586 177 c 0,110,111
 567 157 567 157 539 157 c 256,96,97
697 157 m 0,112,113
 669 157 669 157 649 177 c 0,114,115
 630 196 630 196 630 224 c 256,116,117
 630 252 630 252 649 271 c 0,118,119
 669 291 669 291 697 291 c 0,120,121
 724 291 724 291 744 271 c 0,122,123
 764 252 764 252 764 224 c 256,124,125
 764 196 764 196 744 177 c 0,126,127
 724 157 724 157 697 157 c 0,112,113
854 157 m 256,128,129
 826 157 826 157 807 177 c 0,130,131
 787 196 787 196 787 224 c 256,132,133
 787 252 787 252 807 271 c 0,134,135
 826 291 826 291 854 291 c 256,136,137
 882 291 882 291 902 271 c 0,138,139
 921 252 921 252 921 224 c 256,140,141
 921 196 921 196 902 177 c 0,142,143
 882 157 882 157 854 157 c 256,128,129
1012 157 m 0,144,145
 984 157 984 157 964 177 c 0,146,147
 945 196 945 196 945 224 c 256,148,149
 945 252 945 252 964 271 c 0,150,151
 984 291 984 291 1012 291 c 0,152,153
 1039 291 1039 291 1059 271 c 0,154,155
 1079 252 1079 252 1079 224 c 256,156,157
 1079 196 1079 196 1059 177 c 0,158,159
 1039 157 1039 157 1012 157 c 0,144,145
66 315 m 0,160,161
 39 315 39 315 19 334 c 0,162,163
 0 354 0 354 0 382 c 0,164,165
 0 409 0 409 19 429 c 0,166,167
 39 448 39 448 66 448 c 0,168,169
 94 448 94 448 114 429 c 0,170,171
 133 409 133 409 133 382 c 0,172,173
 133 354 133 354 114 334 c 0,174,175
 94 315 94 315 66 315 c 0,160,161
224 315 m 256,176,177
 196 315 196 315 177 334 c 0,178,179
 157 354 157 354 157 382 c 0,180,181
 157 409 157 409 177 429 c 0,182,183
 196 448 196 448 224 448 c 256,184,185
 252 448 252 448 271 429 c 0,186,187
 291 409 291 409 291 382 c 0,188,189
 291 354 291 354 271 334 c 0,190,191
 252 315 252 315 224 315 c 256,176,177
382 315 m 0,192,193
 354 315 354 315 334 334 c 0,194,195
 315 354 315 354 315 382 c 0,196,197
 315 409 315 409 334 429 c 0,198,199
 354 448 354 448 382 448 c 0,200,201
 409 448 409 448 429 429 c 0,202,203
 448 409 448 409 448 382 c 0,204,205
 448 354 448 354 429 334 c 0,206,207
 409 315 409 315 382 315 c 0,192,193
854 315 m 256,208,209
 826 315 826 315 807 334 c 0,210,211
 787 354 787 354 787 382 c 0,212,213
 787 409 787 409 807 429 c 0,214,215
 826 448 826 448 854 448 c 256,216,217
 882 448 882 448 902 429 c 0,218,219
 921 409 921 409 921 382 c 0,220,221
 921 354 921 354 902 334 c 0,222,223
 882 315 882 315 854 315 c 256,208,209
1012 315 m 0,224,225
 984 315 984 315 964 334 c 0,226,227
 945 354 945 354 945 382 c 0,228,229
 945 409 945 409 964 429 c 0,230,231
 984 448 984 448 1012 448 c 0,232,233
 1039 448 1039 448 1059 429 c 0,234,235
 1079 409 1079 409 1079 382 c 0,236,237
 1079 354 1079 354 1059 334 c 0,238,239
 1039 315 1039 315 1012 315 c 0,224,225
1169 315 m 0,240,241
 1142 315 1142 315 1122 334 c 0,242,243
 1102 354 1102 354 1102 382 c 0,244,245
 1102 409 1102 409 1122 429 c 0,246,247
 1142 448 1142 448 1169 448 c 0,248,249
 1197 448 1197 448 1217 429 c 0,250,251
 1236 409 1236 409 1236 382 c 0,252,253
 1236 354 1236 354 1217 334 c 0,254,255
 1197 315 1197 315 1169 315 c 0,240,241
66 472 m 0,256,257
 39 472 39 472 19 492 c 0,258,259
 0 511 0 511 0 539 c 256,260,261
 0 567 0 567 19 586 c 0,262,263
 39 606 39 606 66 606 c 0,264,265
 94 606 94 606 114 586 c 0,266,267
 133 567 133 567 133 539 c 256,268,269
 133 511 133 511 114 492 c 0,270,271
 94 472 94 472 66 472 c 0,256,257
224 472 m 256,272,273
 196 472 196 472 177 492 c 0,274,275
 157 511 157 511 157 539 c 256,276,277
 157 567 157 567 177 586 c 0,278,279
 196 606 196 606 224 606 c 256,280,281
 252 606 252 606 271 586 c 0,282,283
 291 567 291 567 291 539 c 256,284,285
 291 511 291 511 271 492 c 0,286,287
 252 472 252 472 224 472 c 256,272,273
1012 472 m 0,288,289
 984 472 984 472 964 492 c 0,290,291
 945 511 945 511 945 539 c 256,292,293
 945 567 945 567 964 586 c 0,294,295
 984 606 984 606 1012 606 c 0,296,297
 1039 606 1039 606 1059 586 c 0,298,299
 1079 567 1079 567 1079 539 c 256,300,301
 1079 511 1079 511 1059 492 c 0,302,303
 1039 472 1039 472 1012 472 c 0,288,289
1169 472 m 0,304,305
 1142 472 1142 472 1122 492 c 0,306,307
 1102 511 1102 511 1102 539 c 256,308,309
 1102 567 1102 567 1122 586 c 0,310,311
 1142 606 1142 606 1169 606 c 0,312,313
 1197 606 1197 606 1217 586 c 0,314,315
 1236 567 1236 567 1236 539 c 256,316,317
 1236 511 1236 511 1217 492 c 0,318,319
 1197 472 1197 472 1169 472 c 0,304,305
854 630 m 256,320,321
 826 630 826 630 807 649 c 0,322,323
 787 669 787 669 787 697 c 0,324,325
 787 724 787 724 807 744 c 0,326,327
 826 764 826 764 854 764 c 256,328,329
 882 764 882 764 902 744 c 0,330,331
 921 724 921 724 921 697 c 0,332,333
 921 669 921 669 902 649 c 0,334,335
 882 630 882 630 854 630 c 256,320,321
1012 630 m 0,336,337
 984 630 984 630 964 649 c 0,338,339
 945 669 945 669 945 697 c 0,340,341
 945 724 945 724 964 744 c 0,342,343
 984 764 984 764 1012 764 c 0,344,345
 1039 764 1039 764 1059 744 c 256,346,347
 1079 724 1079 724 1079 697 c 0,348,349
 1079 669 1079 669 1059 649 c 0,350,351
 1039 630 1039 630 1012 630 c 0,336,337
1169 630 m 0,352,353
 1142 630 1142 630 1122 649 c 0,354,355
 1102 669 1102 669 1102 697 c 0,356,357
 1102 724 1102 724 1122 744 c 256,358,359
 1142 764 1142 764 1169 764 c 0,360,361
 1197 764 1197 764 1217 744 c 0,362,363
 1236 724 1236 724 1236 697 c 0,364,365
 1236 669 1236 669 1217 649 c 0,366,367
 1197 630 1197 630 1169 630 c 0,352,353
382 787 m 0,368,369
 354 787 354 787 334 807 c 0,370,371
 315 826 315 826 315 854 c 256,372,373
 315 882 315 882 334 902 c 0,374,375
 354 921 354 921 382 921 c 0,376,377
 409 921 409 921 429 902 c 0,378,379
 448 882 448 882 448 854 c 256,380,381
 448 826 448 826 429 807 c 0,382,383
 409 787 409 787 382 787 c 0,368,369
539 787 m 256,384,385
 511 787 511 787 492 807 c 0,386,387
 472 826 472 826 472 854 c 256,388,389
 472 882 472 882 492 902 c 0,390,391
 511 921 511 921 539 921 c 256,392,393
 567 921 567 921 586 902 c 0,394,395
 606 882 606 882 606 854 c 256,396,397
 606 826 606 826 586 807 c 0,398,399
 567 787 567 787 539 787 c 256,384,385
697 787 m 0,400,401
 669 787 669 787 649 807 c 0,402,403
 630 826 630 826 630 854 c 256,404,405
 630 882 630 882 649 902 c 0,406,407
 669 921 669 921 697 921 c 0,408,409
 724 921 724 921 744 902 c 0,410,411
 764 882 764 882 764 854 c 256,412,413
 764 826 764 826 744 807 c 0,414,415
 724 787 724 787 697 787 c 0,400,401
854 787 m 256,416,417
 826 787 826 787 807 807 c 0,418,419
 787 826 787 826 787 854 c 256,420,421
 787 882 787 882 807 902 c 0,422,423
 826 921 826 921 854 921 c 256,424,425
 882 921 882 921 902 902 c 0,426,427
 921 882 921 882 921 854 c 256,428,429
 921 826 921 826 902 807 c 0,430,431
 882 787 882 787 854 787 c 256,416,417
1012 787 m 0,432,433
 984 787 984 787 964 807 c 0,434,435
 945 826 945 826 945 854 c 256,436,437
 945 882 945 882 964 902 c 0,438,439
 984 921 984 921 1012 921 c 0,440,441
 1039 921 1039 921 1059 902 c 0,442,443
 1079 882 1079 882 1079 854 c 256,444,445
 1079 826 1079 826 1059 807 c 0,446,447
 1039 787 1039 787 1012 787 c 0,432,433
382 945 m 0,448,449
 354 945 354 945 334 964 c 0,450,451
 315 984 315 984 315 1012 c 0,452,453
 315 1039 315 1039 334 1059 c 0,454,455
 354 1079 354 1079 382 1079 c 0,456,457
 409 1079 409 1079 429 1059 c 0,458,459
 448 1039 448 1039 448 1012 c 0,460,461
 448 984 448 984 429 964 c 0,462,463
 409 945 409 945 382 945 c 0,448,449
539 945 m 256,464,465
 511 945 511 945 492 964 c 0,466,467
 472 984 472 984 472 1012 c 0,468,469
 472 1039 472 1039 492 1059 c 0,470,471
 511 1079 511 1079 539 1079 c 256,472,473
 567 1079 567 1079 586 1059 c 0,474,475
 606 1039 606 1039 606 1012 c 0,476,477
 606 984 606 984 586 964 c 0,478,479
 567 945 567 945 539 945 c 256,464,465
697 945 m 0,480,481
 669 945 669 945 649 964 c 0,482,483
 630 984 630 984 630 1012 c 0,484,485
 630 1039 630 1039 649 1059 c 0,486,487
 669 1079 669 1079 697 1079 c 0,488,489
 724 1079 724 1079 744 1059 c 256,490,491
 764 1039 764 1039 764 1012 c 0,492,493
 764 984 764 984 744 964 c 0,494,495
 724 945 724 945 697 945 c 0,480,481
854 945 m 256,496,497
 826 945 826 945 807 964 c 0,498,499
 787 984 787 984 787 1012 c 0,500,501
 787 1039 787 1039 807 1059 c 0,502,503
 826 1079 826 1079 854 1079 c 256,504,505
 882 1079 882 1079 902 1059 c 0,506,507
 921 1039 921 1039 921 1012 c 0,508,509
 921 984 921 984 902 964 c 0,510,511
 882 945 882 945 854 945 c 256,496,497
539 1102 m 256,512,513
 511 1102 511 1102 492 1122 c 0,514,515
 472 1142 472 1142 472 1169 c 0,516,517
 472 1197 472 1197 492 1217 c 0,518,519
 511 1236 511 1236 539 1236 c 256,520,521
 567 1236 567 1236 586 1217 c 0,522,523
 606 1197 606 1197 606 1169 c 0,524,525
 606 1142 606 1142 586 1122 c 0,526,527
 567 1102 567 1102 539 1102 c 256,512,513
697 1102 m 0,528,529
 669 1102 669 1102 649 1122 c 0,530,531
 630 1142 630 1142 630 1169 c 0,532,533
 630 1197 630 1197 649 1217 c 0,534,535
 669 1236 669 1236 697 1236 c 0,536,537
 724 1236 724 1236 744 1217 c 0,538,539
 764 1197 764 1197 764 1169 c 0,540,541
 764 1142 764 1142 744 1122 c 256,542,543
 724 1102 724 1102 697 1102 c 0,528,529
854 1102 m 256,544,545
 826 1102 826 1102 807 1122 c 0,546,547
 787 1142 787 1142 787 1169 c 0,548,549
 787 1197 787 1197 807 1217 c 0,550,551
 826 1236 826 1236 854 1236 c 256,552,553
 882 1236 882 1236 902 1217 c 0,554,555
 921 1197 921 1197 921 1169 c 0,556,557
 921 1142 921 1142 902 1122 c 0,558,559
 882 1102 882 1102 854 1102 c 256,544,545
697 1260 m 0,560,561
 669 1260 669 1260 649 1279 c 0,562,563
 630 1299 630 1299 630 1327 c 0,564,565
 630 1354 630 1354 649 1374 c 0,566,567
 669 1394 669 1394 697 1394 c 0,568,569
 724 1394 724 1394 744 1374 c 256,570,571
 764 1354 764 1354 764 1327 c 0,572,573
 764 1299 764 1299 744 1279 c 0,574,575
 724 1260 724 1260 697 1260 c 0,560,561
854 1260 m 256,576,577
 826 1260 826 1260 807 1279 c 0,578,579
 787 1299 787 1299 787 1327 c 0,580,581
 787 1354 787 1354 807 1374 c 0,582,583
 826 1394 826 1394 854 1394 c 256,584,585
 882 1394 882 1394 902 1374 c 0,586,587
 921 1354 921 1354 921 1327 c 0,588,589
 921 1299 921 1299 902 1279 c 0,590,591
 882 1260 882 1260 854 1260 c 256,576,577
1012 1260 m 0,592,593
 984 1260 984 1260 964 1279 c 0,594,595
 945 1299 945 1299 945 1327 c 0,596,597
 945 1354 945 1354 964 1374 c 0,598,599
 984 1394 984 1394 1012 1394 c 0,600,601
 1039 1394 1039 1394 1059 1374 c 256,602,603
 1079 1354 1079 1354 1079 1327 c 0,604,605
 1079 1299 1079 1299 1059 1279 c 0,606,607
 1039 1260 1039 1260 1012 1260 c 0,592,593
66 1417 m 0,608,609
 39 1417 39 1417 19 1437 c 0,610,611
 0 1457 0 1457 0 1484 c 0,612,613
 0 1512 0 1512 19 1532 c 0,614,615
 39 1551 39 1551 66 1551 c 0,616,617
 94 1551 94 1551 114 1532 c 0,618,619
 133 1512 133 1512 133 1484 c 0,620,621
 133 1457 133 1457 114 1437 c 0,622,623
 94 1417 94 1417 66 1417 c 0,608,609
224 1417 m 256,624,625
 196 1417 196 1417 177 1437 c 0,626,627
 157 1457 157 1457 157 1484 c 0,628,629
 157 1512 157 1512 177 1532 c 0,630,631
 196 1551 196 1551 224 1551 c 256,632,633
 252 1551 252 1551 271 1532 c 0,634,635
 291 1512 291 1512 291 1484 c 0,636,637
 291 1457 291 1457 271 1437 c 0,638,639
 252 1417 252 1417 224 1417 c 256,624,625
382 1417 m 0,640,641
 354 1417 354 1417 334 1437 c 0,642,643
 315 1457 315 1457 315 1484 c 0,644,645
 315 1512 315 1512 334 1532 c 0,646,647
 354 1551 354 1551 382 1551 c 0,648,649
 409 1551 409 1551 429 1532 c 0,650,651
 448 1512 448 1512 448 1484 c 0,652,653
 448 1457 448 1457 429 1437 c 0,654,655
 409 1417 409 1417 382 1417 c 0,640,641
539 1417 m 256,656,657
 511 1417 511 1417 492 1437 c 0,658,659
 472 1457 472 1457 472 1484 c 0,660,661
 472 1512 472 1512 492 1532 c 0,662,663
 511 1551 511 1551 539 1551 c 256,664,665
 567 1551 567 1551 586 1532 c 0,666,667
 606 1512 606 1512 606 1484 c 0,668,669
 606 1457 606 1457 586 1437 c 0,670,671
 567 1417 567 1417 539 1417 c 256,656,657
697 1417 m 0,672,673
 669 1417 669 1417 649 1437 c 0,674,675
 630 1457 630 1457 630 1484 c 0,676,677
 630 1512 630 1512 649 1532 c 0,678,679
 669 1551 669 1551 697 1551 c 0,680,681
 724 1551 724 1551 744 1532 c 0,682,683
 764 1512 764 1512 764 1484 c 0,684,685
 764 1457 764 1457 744 1437 c 256,686,687
 724 1417 724 1417 697 1417 c 0,672,673
854 1417 m 256,688,689
 826 1417 826 1417 807 1437 c 0,690,691
 787 1457 787 1457 787 1484 c 0,692,693
 787 1512 787 1512 807 1532 c 0,694,695
 826 1551 826 1551 854 1551 c 256,696,697
 882 1551 882 1551 902 1532 c 0,698,699
 921 1512 921 1512 921 1484 c 0,700,701
 921 1457 921 1457 902 1437 c 0,702,703
 882 1417 882 1417 854 1417 c 256,688,689
1012 1417 m 0,704,705
 984 1417 984 1417 964 1437 c 0,706,707
 945 1457 945 1457 945 1484 c 0,708,709
 945 1512 945 1512 964 1532 c 0,710,711
 984 1551 984 1551 1012 1551 c 0,712,713
 1039 1551 1039 1551 1059 1532 c 0,714,715
 1079 1512 1079 1512 1079 1484 c 0,716,717
 1079 1457 1079 1457 1059 1437 c 256,718,719
 1039 1417 1039 1417 1012 1417 c 0,704,705
1169 1417 m 0,720,721
 1142 1417 1142 1417 1122 1437 c 256,722,723
 1102 1457 1102 1457 1102 1484 c 0,724,725
 1102 1512 1102 1512 1122 1532 c 0,726,727
 1142 1551 1142 1551 1169 1551 c 0,728,729
 1197 1551 1197 1551 1217 1532 c 0,730,731
 1236 1512 1236 1512 1236 1484 c 0,732,733
 1236 1457 1236 1457 1217 1437 c 0,734,735
 1197 1417 1197 1417 1169 1417 c 0,720,721
66 1575 m 0,736,737
 39 1575 39 1575 19 1594 c 0,738,739
 0 1614 0 1614 0 1642 c 256,740,741
 0 1670 0 1670 19 1689 c 0,742,743
 39 1709 39 1709 66 1709 c 0,744,745
 94 1709 94 1709 114 1689 c 0,746,747
 133 1670 133 1670 133 1642 c 256,748,749
 133 1614 133 1614 114 1594 c 0,750,751
 94 1575 94 1575 66 1575 c 0,736,737
224 1575 m 256,752,753
 196 1575 196 1575 177 1594 c 0,754,755
 157 1614 157 1614 157 1642 c 256,756,757
 157 1670 157 1670 177 1689 c 0,758,759
 196 1709 196 1709 224 1709 c 256,760,761
 252 1709 252 1709 271 1689 c 0,762,763
 291 1670 291 1670 291 1642 c 256,764,765
 291 1614 291 1614 271 1594 c 0,766,767
 252 1575 252 1575 224 1575 c 256,752,753
382 1575 m 0,768,769
 354 1575 354 1575 334 1594 c 0,770,771
 315 1614 315 1614 315 1642 c 256,772,773
 315 1670 315 1670 334 1689 c 0,774,775
 354 1709 354 1709 382 1709 c 0,776,777
 409 1709 409 1709 429 1689 c 0,778,779
 448 1670 448 1670 448 1642 c 256,780,781
 448 1614 448 1614 429 1594 c 0,782,783
 409 1575 409 1575 382 1575 c 0,768,769
539 1575 m 256,784,785
 511 1575 511 1575 492 1594 c 0,786,787
 472 1614 472 1614 472 1642 c 256,788,789
 472 1670 472 1670 492 1689 c 0,790,791
 511 1709 511 1709 539 1709 c 256,792,793
 567 1709 567 1709 586 1689 c 0,794,795
 606 1670 606 1670 606 1642 c 256,796,797
 606 1614 606 1614 586 1594 c 0,798,799
 567 1575 567 1575 539 1575 c 256,784,785
697 1575 m 0,800,801
 669 1575 669 1575 649 1594 c 0,802,803
 630 1614 630 1614 630 1642 c 256,804,805
 630 1670 630 1670 649 1689 c 0,806,807
 669 1709 669 1709 697 1709 c 0,808,809
 724 1709 724 1709 744 1689 c 0,810,811
 764 1670 764 1670 764 1642 c 256,812,813
 764 1614 764 1614 744 1594 c 0,814,815
 724 1575 724 1575 697 1575 c 0,800,801
854 1575 m 256,816,817
 826 1575 826 1575 807 1594 c 0,818,819
 787 1614 787 1614 787 1642 c 256,820,821
 787 1670 787 1670 807 1689 c 0,822,823
 826 1709 826 1709 854 1709 c 256,824,825
 882 1709 882 1709 902 1689 c 0,826,827
 921 1670 921 1670 921 1642 c 256,828,829
 921 1614 921 1614 902 1594 c 0,830,831
 882 1575 882 1575 854 1575 c 256,816,817
1012 1575 m 0,832,833
 984 1575 984 1575 964 1594 c 0,834,835
 945 1614 945 1614 945 1642 c 256,836,837
 945 1670 945 1670 964 1689 c 0,838,839
 984 1709 984 1709 1012 1709 c 0,840,841
 1039 1709 1039 1709 1059 1689 c 0,842,843
 1079 1670 1079 1670 1079 1642 c 256,844,845
 1079 1614 1079 1614 1059 1594 c 0,846,847
 1039 1575 1039 1575 1012 1575 c 0,832,833
1169 1575 m 0,848,849
 1142 1575 1142 1575 1122 1594 c 0,850,851
 1102 1614 1102 1614 1102 1642 c 256,852,853
 1102 1670 1102 1670 1122 1689 c 0,854,855
 1142 1709 1142 1709 1169 1709 c 0,856,857
 1197 1709 1197 1709 1217 1689 c 0,858,859
 1236 1670 1236 1670 1236 1642 c 256,860,861
 1236 1614 1236 1614 1217 1594 c 0,862,863
 1197 1575 1197 1575 1169 1575 c 0,848,849
EndSplineSet
Validated: 1
EndChar

